<?xml version="1.0" standalone="no"?>
<!DOCTYPE svg PUBLIC "-//W3C//DTD SVG 20010904//EN"
 "http://www.w3.org/TR/2001/REC-SVG-20010904/DTD/svg10.dtd">
<svg version="1.0" xmlns="http://www.w3.org/2000/svg"
 width="260.000000pt" height="260.000000pt" viewBox="0 0 260.000000 260.000000"
 preserveAspectRatio="xMidYMid meet">
<metadata>
Created by potrace 1.11, written by Peter Selinger 2001-2013
</metadata>
<g transform="translate(0.000000,260.000000) scale(0.100000,-0.100000)"
fill="#000000" stroke="none">
<path d="M756 2162 c-3 -10 -15 -18 -25 -18 -11 0 -17 5 -13 11 3 5 -2 4 -11
-4 -9 -7 -17 -10 -17 -6 0 4 -7 2 -16 -6 -13 -10 -17 -10 -25 2 -5 8 -9 10 -9
4 0 -5 -5 -3 -11 5 -9 13 -10 12 -5 -2 3 -10 1 -20 -4 -23 -6 -4 -10 0 -10 7
0 9 -3 9 -8 2 -11 -17 -60 -26 -65 -11 -3 7 -6 5 -6 -5 -1 -10 -4 -17 -8 -16
-5 1 -18 -3 -31 -10 -12 -7 -27 -10 -32 -7 -6 3 -10 1 -10 -5 0 -7 -7 -9 -16
-6 -8 3 -13 2 -10 -3 7 -11 -18 -33 -27 -24 -4 3 -15 -3 -25 -15 -21 -24 -39
-18 -19 7 11 14 10 14 -5 2 -10 -7 -16 -17 -13 -21 3 -5 -5 -16 -17 -24 -12
-9 -18 -16 -13 -16 10 0 -26 -29 -37 -30 -4 0 -5 8 -2 18 5 13 4 14 -4 3 -6
-8 -8 -20 -5 -28 3 -8 0 -13 -8 -11 -7 2 -13 -3 -14 -9 0 -7 -3 -12 -6 -10 -8
3 -39 -30 -39 -41 0 -6 -3 -12 -7 -14 -5 -2 -19 -15 -32 -30 l-24 -27 23 4
c12 2 28 9 36 16 8 6 14 8 14 3 0 -5 4 -4 8 2 10 16 82 45 82 33 0 -5 4 -9 10
-9 5 0 6 8 3 18 -6 15 -5 16 12 2 10 -8 16 -10 12 -4 -4 7 0 15 9 18 8 3 12 2
9 -4 -3 -6 -1 -10 4 -10 6 0 11 7 11 15 0 8 6 12 14 9 8 -3 17 -1 20 5 4 6 13
8 21 4 8 -3 15 -1 15 5 0 5 12 8 27 6 15 -1 33 2 40 8 9 7 13 7 13 -1 0 -15
27 -14 33 2 4 10 6 10 6 0 1 -7 6 -13 12 -13 5 0 8 4 5 9 -7 11 13 9 32 -2 7
-5 12 -3 12 5 0 9 3 9 10 -2 9 -13 10 -13 10 0 0 13 1 13 10 0 9 -13 10 -13
10 0 0 9 3 11 8 5 4 -6 22 -10 40 -10 18 1 35 -2 38 -6 2 -5 11 -6 18 -3 8 3
20 -4 28 -15 8 -12 18 -18 23 -13 5 4 5 2 1 -5 -3 -6 -2 -14 3 -17 5 -4 12 2
14 11 4 17 5 17 6 0 0 -10 5 -16 10 -12 5 3 15 -1 23 -8 7 -8 20 -16 28 -20
12 -4 11 -6 -3 -6 -10 -1 -16 -5 -12 -11 3 -5 13 -7 23 -4 13 5 14 4 3 -4 -10
-7 -6 -12 17 -23 25 -11 29 -16 19 -28 -10 -12 -9 -14 5 -8 24 9 29 -4 11 -28
-8 -11 -14 -14 -11 -7 2 8 -18 36 -44 64 -29 29 -46 54 -41 61 5 9 3 9 -8 0
-12 -10 -20 -8 -40 10 -13 13 -28 25 -34 28 -5 2 -9 10 -9 17 1 6 -2 12 -7 12
-5 0 -9 -8 -10 -17 0 -13 -3 -11 -10 7 -10 24 -11 24 -24 6 -13 -17 -15 -17
-21 -3 -8 23 -25 22 -18 0 4 -11 2 -14 -3 -8 -4 6 -15 10 -23 10 -8 -1 -19 1
-25 4 -16 9 -35 10 -35 2 0 -4 -9 -7 -20 -7 -11 0 -20 4 -20 8 0 4 -11 3 -25
-2 -17 -7 -25 -6 -25 1 0 8 -5 7 -15 -1 -12 -10 -15 -10 -15 1 0 11 -2 11 -10
-1 -16 -24 -12 -29 23 -29 58 0 71 -2 130 -13 31 -6 57 -15 57 -19 0 -5 6 -8
13 -6 6 1 11 -5 9 -13 -2 -8 0 -12 4 -8 4 4 14 2 23 -5 14 -11 14 -10 2 6 -7
9 -9 17 -3 17 14 0 33 -26 25 -34 -4 -4 1 -4 11 0 13 5 17 4 12 -4 -4 -7 -2
-10 6 -7 17 6 50 -19 46 -35 -2 -7 8 -16 22 -20 15 -4 24 -13 24 -23 -1 -9 2
-14 8 -11 14 9 38 -15 31 -32 -3 -8 -1 -14 4 -14 11 0 43 -64 43 -85 0 -8 4
-15 8 -15 5 0 9 -6 9 -12 3 -42 12 -80 22 -91 6 -8 7 -18 3 -22 -4 -5 -1 -5 6
-1 14 8 17 -10 3 -19 -6 -3 -15 3 -21 12 -9 15 -10 14 -4 -7 6 -22 5 -23 -10
-11 -14 12 -16 12 -10 -4 5 -13 4 -16 -4 -11 -7 4 -15 1 -18 -8 -3 -9 -10 -14
-14 -11 -5 3 -14 0 -22 -7 -7 -7 -21 -19 -31 -27 -15 -12 -17 -12 -14 0 2 8 2
11 0 6 -3 -4 -9 -5 -14 -2 -5 4 -6 0 -3 -8 3 -8 0 -18 -7 -23 -8 -4 -10 -3 -5
4 5 8 2 10 -8 6 -9 -3 -13 -10 -10 -15 5 -9 -53 -36 -68 -31 -5 1 -7 -4 -5
-11 1 -6 -4 -11 -10 -10 -7 2 -13 -3 -13 -11 0 -16 -28 -30 -50 -27 -8 2 -12
0 -8 -5 5 -4 -1 -14 -12 -21 -18 -12 -24 -13 -38 -1 -15 11 -16 11 -4 -3 10
-13 10 -19 -2 -29 -9 -6 -19 -9 -24 -7 -4 3 -14 1 -22 -5 -12 -8 -11 -9 5 -4
11 4 -2 -14 -30 -38 -27 -24 -53 -42 -57 -39 -5 2 -8 -3 -8 -12 0 -9 -4 -14
-10 -10 -5 3 -7 13 -4 23 5 14 4 14 -4 3 -6 -8 -8 -21 -4 -29 3 -10 1 -13 -6
-8 -7 4 -12 2 -12 -4 0 -6 -6 -8 -12 -4 -7 4 -10 3 -5 -1 7 -9 -20 -45 -34
-45 -5 0 -6 8 -3 18 5 13 4 14 -4 3 -6 -8 -8 -21 -4 -29 4 -11 1 -14 -12 -9
-9 4 -15 3 -12 -2 9 -13 -21 -34 -36 -25 -9 5 -8 2 2 -12 8 -10 10 -16 6 -12
-5 4 -17 -1 -26 -13 -10 -11 -28 -22 -40 -24 -13 -2 -25 -7 -29 -11 -3 -4 2
-4 11 -1 25 9 23 3 -17 -38 -19 -21 -39 -34 -45 -30 -7 4 -10 0 -8 -11 2 -10
-2 -19 -9 -19 -6 0 -15 -4 -20 -9 -5 -5 -3 -6 4 -2 7 4 13 2 13 -3 0 -10 -13
-15 -32 -13 -3 1 -9 -5 -12 -14 -4 -10 -2 -13 7 -8 6 4 2 -4 -10 -18 -13 -13
-23 -29 -23 -34 0 -15 85 -11 103 5 13 10 20 10 40 -3 13 -9 27 -13 30 -9 4 3
7 0 7 -8 0 -11 2 -11 10 1 8 12 10 12 10 1 0 -11 3 -11 17 0 15 12 16 12 10
-5 -6 -15 -5 -17 7 -7 7 6 22 8 31 4 11 -4 16 -2 12 4 -7 11 28 11 39 0 11
-11 26 -8 19 3 -4 7 2 7 18 1 14 -6 28 -7 31 -3 4 3 16 6 27 7 14 1 18 -3 14
-13 -4 -12 -3 -13 10 -2 8 7 15 9 15 5 0 -4 6 -3 13 3 8 7 18 7 27 2 19 -12
33 -13 26 -2 -7 11 25 9 44 -3 9 -5 15 -4 18 3 2 6 9 9 17 6 8 -3 11 -13 8
-22 -4 -13 -2 -13 9 2 19 24 62 30 53 8 -4 -12 -3 -13 10 -2 8 7 15 9 15 5 0
-4 6 -3 13 3 8 7 18 7 27 2 19 -12 33 -13 26 -2 -6 10 30 9 40 -1 11 -11 26
-8 19 3 -4 7 2 7 18 1 14 -6 28 -7 31 -3 4 3 16 6 27 7 14 1 18 -3 14 -13 -4
-12 -3 -13 10 -2 8 7 15 9 15 5 0 -4 6 -3 13 3 8 7 18 7 27 2 19 -12 33 -13
26 -2 -6 10 24 9 41 -1 6 -4 15 -2 18 3 5 8 12 7 23 -3 10 -8 24 -17 32 -21 9
-4 8 -1 -3 7 -15 13 -16 15 -2 21 8 3 15 0 15 -6 0 -6 6 -5 16 3 15 12 16 11
10 -11 l-8 -25 17 23 c10 13 21 19 28 15 7 -4 20 -6 29 -5 13 2 16 -1 12 -12
-3 -9 -9 -14 -13 -12 -3 2 -17 -2 -31 -11 -17 -9 -18 -12 -5 -8 11 4 26 8 34
9 8 2 22 13 33 25 10 13 18 18 18 11 0 -10 3 -10 14 -1 10 8 16 9 21 1 4 -6 3
-10 -2 -9 -4 1 -11 0 -15 -1 -5 -1 -12 -3 -16 -4 -5 0 -16 -9 -26 -18 -10 -10
-23 -18 -30 -18 -8 0 -19 -6 -26 -14 -6 -8 -17 -13 -24 -10 -8 3 -16 -2 -19
-10 -4 -9 -15 -13 -26 -11 -12 2 -20 -1 -18 -8 1 -8 -9 -11 -28 -10 -21 2 -26
0 -16 -7 11 -6 5 -13 -27 -25 -23 -10 -42 -21 -42 -25 0 -8 70 3 103 15 10 4
17 2 17 -5 0 -7 6 -5 16 4 8 9 20 14 25 11 5 -3 17 -1 27 4 13 7 23 6 32 -2
10 -9 11 -9 6 0 -6 12 12 18 37 14 4 -1 17 5 29 13 11 8 27 12 34 9 8 -3 14 0
14 7 0 7 6 10 14 7 7 -3 19 0 26 6 10 9 11 9 5 -3 -6 -10 -1 -9 13 4 12 10 28
16 37 12 9 -3 14 -2 11 3 -3 5 3 11 14 14 13 3 18 1 14 -6 -3 -7 2 -3 10 7 9
11 19 17 22 13 4 -4 13 1 21 11 8 9 12 11 8 5 -4 -8 0 -13 10 -13 10 0 13 5 9
12 -4 7 -3 8 5 4 6 -4 14 0 17 9 4 9 13 14 20 11 8 -3 14 -1 14 4 0 5 7 6 17
3 11 -4 14 -3 9 5 -5 8 -2 10 8 6 20 -8 20 -12 2 -30 -18 -17 -29 -18 -21 -2
4 7 1 6 -7 -3 -14 -17 -56 -35 -73 -30 -5 1 -5 -3 1 -9 9 -9 17 -9 32 -1 10 6
22 7 26 4 3 -3 6 -1 6 5 0 6 6 9 14 6 7 -3 21 2 30 11 9 9 16 13 16 9 0 -3 6
-1 13 5 8 6 17 8 20 4 4 -3 7 -1 7 6 0 7 4 10 8 7 5 -3 20 2 33 12 13 9 29 17
36 18 7 1 20 9 29 18 8 9 20 14 25 11 5 -4 9 -1 9 5 0 6 4 9 9 6 5 -3 12 1 15
10 3 9 11 14 18 12 11 -4 30 8 64 40 8 7 19 10 25 6 6 -3 15 -1 19 7 6 9 12
10 22 2 13 -11 18 -13 39 -13 6 0 9 -7 6 -14 -4 -11 -1 -13 11 -9 9 4 20 11
24 17 3 5 12 11 20 12 7 1 25 4 41 7 15 3 25 2 23 -2 -3 -4 1 -8 9 -8 8 0 12
4 9 9 -3 4 0 8 5 8 6 0 11 -5 11 -11 0 -8 6 -7 17 2 13 11 17 11 21 1 3 -10 7
-10 19 -1 11 10 16 10 23 0 5 -9 13 -10 21 -5 8 5 32 10 54 12 68 5 74 6 72
17 -1 5 4 9 11 7 8 -1 11 2 8 7 -4 5 1 17 10 25 8 9 12 16 8 16 -3 0 -2 6 3
13 5 6 9 46 8 87 -1 41 2 83 8 94 6 13 6 16 -2 12 -12 -8 -10 28 2 40 4 4 7
12 7 18 0 6 -5 4 -10 -4 -9 -13 -10 -13 -10 0 0 9 6 22 13 29 6 8 7 11 1 8
-13 -7 -12 42 1 63 5 8 4 11 -2 7 -12 -8 -11 92 2 113 5 9 4 11 -3 6 -8 -5
-12 0 -12 13 0 11 5 23 10 26 6 3 10 12 10 18 0 7 -4 6 -10 -3 -8 -12 -10 -12
-10 -1 0 8 8 20 18 27 12 10 12 12 2 9 -12 -4 -15 6 -17 51 -2 50 0 54 15 42
14 -10 14 -9 -1 8 -10 12 -17 27 -15 34 2 9 -10 14 -37 14 -23 1 -45 7 -52 16
-6 8 -15 12 -19 7 -4 -4 -2 -7 4 -7 7 0 12 -4 12 -8 0 -4 -18 -8 -40 -7 -22 0
-40 4 -40 8 0 4 -8 4 -17 -1 -29 -14 -128 -7 -125 9 1 10 -2 9 -11 -3 -12 -15
-14 -15 -25 0 -9 14 -11 14 -6 1 7 -21 -25 -21 -49 -1 -16 15 -17 14 -11 -4 7
-17 6 -18 -11 -4 -10 8 -21 14 -24 13 -12 -5 -41 9 -36 16 2 5 -5 9 -18 9 -34
0 -51 6 -65 22 -10 11 -12 12 -6 1 6 -11 3 -13 -12 -7 -10 5 -25 9 -31 9 -7 0
-13 3 -13 6 0 3 -15 7 -32 7 -113 5 -146 9 -142 15 5 9 -23 5 -32 -4 -12 -11
-42 -8 -47 6 -3 6 -6 3 -6 -8 -1 -17 -3 -17 -11 -5 -5 8 -10 10 -10 5 0 -6
-17 -10 -37 -10 -21 1 -42 -1 -48 -4 -20 -11 -40 -10 -47 2 -5 8 -8 6 -8 -7 0
-11 -5 -16 -14 -13 -8 3 -17 3 -20 -1 -12 -12 -48 -13 -40 0 4 7 3 8 -5 4 -6
-4 -9 -11 -6 -16 6 -10 -28 -21 -69 -24 -13 0 -22 -4 -19 -8 2 -5 -1 -8 -6 -8
-6 0 -11 -4 -11 -10 0 -11 22 -9 31 3 3 5 21 9 40 9 19 1 37 5 40 11 4 5 18
11 32 12 14 2 39 6 56 10 63 14 140 14 135 1 -5 -14 -64 -17 -64 -3 0 5 -11 2
-24 -6 -13 -9 -35 -14 -50 -11 -14 2 -26 0 -26 -4 0 -5 -10 -9 -22 -8 -13 1
-25 -2 -28 -6 -3 -4 -21 -9 -40 -10 -19 -2 -38 -6 -41 -11 -3 -4 -15 -9 -27
-12 -12 -2 -27 -7 -34 -11 -6 -4 -18 2 -26 12 -13 18 -14 18 -7 -6 7 -22 6
-23 -9 -11 -15 12 -16 12 -10 -5 4 -10 3 -16 -1 -11 -5 4 -17 0 -27 -10 -10
-9 -18 -13 -18 -9 0 4 -14 -3 -32 -15 -17 -13 -28 -18 -24 -11 4 7 2 12 -3 12
-6 0 -11 -6 -11 -14 0 -8 -10 -18 -22 -22 -13 -3 -30 -12 -39 -20 -13 -12 -18
-11 -37 2 -18 12 -21 23 -20 64 2 27 7 51 13 54 7 2 10 -14 9 -43 -2 -25 0
-40 3 -33 2 6 10 9 15 6 7 -4 8 -2 4 4 -3 6 0 14 8 19 8 4 14 12 14 16 0 5 12
22 26 38 14 16 25 30 24 31 -7 7 30 47 37 40 4 -4 5 1 2 10 -3 10 -3 17 1 17
20 -3 25 2 12 12 -13 9 -12 10 2 5 10 -3 20 -1 23 4 4 6 0 10 -7 10 -9 0 -9 3
2 10 8 5 11 10 6 10 -5 0 -2 8 7 18 10 10 14 22 10 27 -5 4 -2 5 5 1 11 -6 17
5 13 26 0 4 6 5 13 2 10 -4 14 0 12 12 -1 9 8 28 21 42 12 13 20 29 16 35 -3
6 -1 7 5 3 7 -4 12 -1 12 7 0 8 7 20 15 27 9 7 13 15 10 18 -2 3 2 10 10 16
13 10 11 17 -20 49 -19 20 -38 37 -42 37 -12 0 -63 46 -57 52 2 3 -7 3 -21 1
-16 -4 -25 -1 -25 7 0 7 -6 10 -14 7 -7 -3 -18 -1 -22 3 -8 8 -38 17 -67 19
-5 1 -5 5 -2 11 3 6 -1 7 -9 4 -10 -4 -16 -1 -16 7 0 12 -2 12 -9 0 -6 -9 -15
-11 -27 -6 -11 5 -26 9 -35 9 -9 1 -23 7 -33 15 -9 8 -19 11 -23 7 -3 -3 -1
-6 5 -6 7 0 12 -5 12 -11 0 -7 -8 -6 -22 3 -18 12 -27 13 -41 4 -15 -9 -21 -7
-34 9 -9 12 -14 14 -10 5 4 -12 -3 -16 -28 -17 -25 0 -32 3 -28 13 3 8 3 14 0
14 -3 0 -8 -8 -11 -18z m91 -418 c-3 -3 -12 -4 -19 -1 -8 3 -5 6 6 6 11 1 17
-2 13 -5z m126 -41 c-5 -11 -3 -14 6 -8 10 6 11 3 2 -14 -11 -20 -8 -25 12
-22 5 1 6 -3 2 -9 -4 -6 -2 -17 5 -25 8 -10 8 -15 -1 -20 -8 -6 -8 -10 2 -16
12 -7 12 -10 0 -21 -9 -8 -11 -9 -7 -1 3 6 2 14 -3 17 -5 4 -8 14 -6 24 1 9
-2 26 -8 37 -6 11 -10 26 -8 34 1 8 -2 10 -9 6 -9 -6 -9 -2 -1 14 14 25 23 28
14 4z m745 -61 c9 9 12 9 12 0 0 -7 -5 -12 -12 -12 -6 0 -8 -3 -5 -6 4 -4 12
-2 19 3 14 12 63 11 74 0 12 -12 26 -8 17 6 -4 6 5 4 20 -6 17 -11 27 -13 27
-6 0 8 4 8 15 -1 8 -7 15 -9 15 -4 0 4 5 3 11 -3 6 -6 17 -9 24 -7 6 3 12 -2
12 -10 0 -10 -5 -12 -16 -7 -9 5 -26 7 -38 5 -12 -2 -25 1 -28 6 -4 6 -11 7
-17 4 -7 -4 -8 -2 -4 4 4 7 2 12 -3 12 -6 0 -11 -5 -11 -11 0 -8 -4 -8 -14 0
-10 9 -16 9 -21 1 -5 -8 -13 -6 -26 6 -10 9 -19 13 -19 8 0 -5 -18 -10 -40
-10 -33 -1 -40 2 -35 15 3 11 0 10 -10 -3 -12 -16 -15 -17 -15 -4 0 20 20 28
41 17 9 -5 21 -3 27 3z m-275 -225 c16 10 157 11 157 2 0 -4 10 -6 21 -4 12 2
31 -1 43 -7 11 -7 27 -11 35 -9 7 1 10 -2 6 -8 -3 -6 0 -11 8 -11 8 0 17 -9
20 -20 3 -13 1 -18 -6 -13 -6 4 -8 0 -4 -10 4 -10 1 -17 -6 -18 -9 0 -9 -2 1
-6 14 -6 17 -63 2 -63 -5 0 -10 -5 -10 -11 0 -5 5 -7 10 -4 14 9 12 -28 -2
-44 -10 -11 -10 -13 0 -7 7 5 12 1 12 -9 0 -9 -4 -14 -8 -11 -5 3 -9 -1 -9 -9
0 -8 4 -12 9 -9 4 3 8 -9 8 -25 0 -18 -5 -31 -12 -32 -10 0 -10 -2 0 -6 6 -2
12 -9 12 -14 0 -6 -4 -8 -8 -5 -4 2 -8 -4 -8 -15 0 -10 7 -19 16 -20 10 0 9
-3 -5 -9 -12 -5 -14 -9 -6 -9 11 -1 10 -6 -5 -23 -14 -17 -15 -19 -2 -10 15
12 17 10 16 -20 0 -18 -6 -39 -12 -47 -8 -11 -8 -13 1 -8 8 5 11 0 10 -13 -1
-11 -7 -21 -14 -21 -27 -3 -32 -4 -40 -13 -5 -5 -2 -6 6 -1 9 5 12 3 9 -6 -3
-8 -11 -13 -17 -11 -6 1 -11 -2 -11 -7 0 -8 -78 -65 -90 -66 -3 0 -16 -10 -30
-22 -13 -13 -28 -23 -34 -23 -6 0 0 7 12 16 12 8 20 19 18 23 -3 4 16 30 42
57 25 27 41 41 33 32 -7 -9 -9 -23 -5 -29 5 -8 3 -9 -6 -4 -9 5 -11 4 -6 -4 4
-6 12 -9 17 -5 5 3 7 10 4 15 -4 5 -3 15 1 21 20 31 11 48 -23 48 -24 0 -32 4
-27 13 6 10 4 10 -7 0 -16 -16 -33 -17 -23 -2 5 8 1 8 -14 0 -27 -14 -35 -14
-26 2 5 8 2 8 -9 -2 -14 -11 -17 -11 -18 0 0 10 -2 11 -6 2 -2 -7 -9 -13 -14
-13 -6 0 -7 6 -3 13 4 6 4 9 -1 5 -4 -4 -15 -2 -24 5 -14 11 -14 10 -2 -6 13
-16 11 -17 -40 -13 -30 3 -64 8 -77 10 -13 3 -20 1 -17 -5 4 -5 1 -9 -4 -9 -6
0 -11 6 -12 13 0 10 -2 10 -6 0 -2 -7 -12 -13 -21 -13 -15 0 -15 2 -2 10 9 6
10 10 3 10 -6 0 -15 -5 -19 -11 -4 -8 -9 -7 -15 2 -7 11 -9 11 -9 -1 0 -13 -1
-13 -10 0 -6 10 -10 11 -10 3 0 -12 -50 -11 -125 2 -22 4 -26 3 -15 -5 12 -8
11 -10 -7 -10 -15 0 -23 6 -23 17 0 15 -2 14 -16 -3 -8 -10 -13 -13 -9 -6 3 6
1 12 -5 12 -6 0 -8 5 -5 10 3 6 2 10 -4 10 -13 0 -7 66 9 85 7 8 9 15 6 15 -4
0 -2 10 5 21 9 18 13 19 21 8 7 -10 8 -9 4 7 -4 13 1 28 14 42 12 12 18 22 15
22 -3 0 8 14 25 30 17 17 36 27 42 24 7 -4 8 -2 4 4 -4 6 3 23 15 37 23 25 46
35 33 13 -4 -7 -3 -8 4 -4 6 4 9 12 6 19 -5 13 50 70 58 61 3 -2 5 2 5 9 0 11
-27 15 -47 7 -3 -1 -8 -2 -12 -1 -5 0 -8 -4 -8 -10 0 -6 -9 -8 -21 -4 -16 5
-19 4 -14 -5 6 -9 4 -11 -5 -5 -10 6 -7 12 11 26 17 13 27 15 36 7 10 -8 13
-6 13 5 0 8 7 18 16 21 8 3 12 2 9 -4 -3 -6 -2 -10 3 -10 6 0 13 7 16 15 5 13
10 14 28 4 22 -12 22 -11 8 7 -8 10 -11 16 -6 12 4 -4 18 -3 30 2 13 5 30 4
42 -3 18 -10 18 -9 4 8 -13 17 -13 18 1 13 9 -4 21 -2 27 4 7 7 17 6 31 -2 12
-6 21 -7 20 -3 -3 16 3 28 8 15 2 -6 10 -9 16 -5z m-338 -107 c-3 -5 -14 -10
-23 -9 -14 0 -13 2 3 9 27 11 27 11 20 0z m-41 -31 c-3 -5 -10 -7 -15 -3 -5 3
-7 10 -3 15 3 5 10 7 15 3 5 -3 7 -10 3 -15z m-44 -9 c-6 -11 -15 -18 -20 -15
-4 3 -11 0 -13 -5 -4 -7 -5 -6 -3 1 1 6 5 9 9 7 5 -2 13 5 18 15 14 24 22 21
9 -3z m-53 -24 c0 -8 -6 -12 -15 -9 -11 5 -11 7 0 14 7 5 13 9 14 9 0 0 1 -6
1 -14z m-17 -21 c0 -12 -19 -12 -23 0 -4 9 -1 12 9 8 7 -3 14 -7 14 -8z m-34
-7 c4 -7 3 -8 -4 -4 -7 4 -12 0 -12 -10 0 -10 -3 -15 -6 -11 -7 6 2 37 10 37
3 0 8 -5 12 -12z m-57 -32 c11 -14 6 -15 -27 -7 -4 1 8 21 12 21 2 0 9 -6 15
-14z m-35 -12 c3 -8 2 -12 -4 -9 -6 3 -10 10 -10 16 0 14 7 11 14 -7z m-19
-13 c3 -5 2 -12 -3 -15 -5 -3 -9 1 -9 9 0 17 3 19 12 6z m-29 -20 c0 -21 -28
-22 -34 0 -3 11 -2 12 6 1 7 -11 10 -11 15 2 8 21 13 20 13 -3z m-54 -28 c-6
-3 -9 -10 -5 -16 3 -7 3 -9 -2 -5 -4 4 -14 3 -22 -3 -22 -19 -15 -1 9 21 12
11 24 17 27 14 3 -4 0 -9 -7 -11z m-48 -39 c3 -8 2 -13 -3 -9 -5 3 -17 2 -26
-1 -13 -6 -14 -9 -3 -16 9 -6 6 -7 -10 -3 -12 4 -21 3 -20 -2 2 -4 -7 -18 -19
-30 -13 -13 -23 -18 -23 -10 0 8 -4 7 -10 -3 -9 -13 -10 -13 -10 0 0 13 -1 13
-10 0 -6 -9 -5 -17 3 -23 8 -5 8 -7 -3 -5 -8 1 -27 -10 -43 -25 -15 -16 -32
-25 -39 -21 -7 5 -9 2 -6 -8 4 -8 -2 -22 -13 -31 -10 -9 -19 -12 -19 -6 0 5
-5 7 -10 4 -6 -4 -8 -10 -5 -15 7 -12 -23 -33 -36 -24 -9 5 -10 2 -6 -10 5
-12 0 -19 -18 -26 -14 -5 -25 -13 -24 -17 3 -21 -2 -24 -18 -12 -15 12 -16 12
-10 -4 5 -12 3 -16 -5 -11 -8 5 -9 2 -5 -9 4 -11 -1 -20 -13 -27 -11 -6 -19
-14 -17 -18 1 -4 -6 -18 -16 -32 -16 -23 -18 -23 -34 -7 -12 11 -13 17 -5 17
8 0 10 5 6 12 -4 7 -3 8 5 4 6 -4 8 -12 5 -18 -5 -7 -2 -8 5 -4 7 5 10 14 7
22 -3 7 1 20 9 28 8 7 11 17 7 20 -3 4 0 5 8 2 10 -4 21 6 31 27 11 21 22 31
34 29 9 -2 14 1 11 7 -8 13 32 41 50 34 9 -3 12 2 9 15 -4 23 25 55 32 35 2
-7 11 -9 19 -6 12 4 13 8 3 13 -15 10 29 60 57 64 10 2 18 9 16 16 -1 6 2 9 7
6 5 -3 12 1 15 10 3 8 10 12 16 9 5 -3 10 0 10 7 0 9 3 9 10 -2 9 -13 14 -7
11 12 0 4 7 4 17 1 15 -6 15 -5 3 11 -8 9 -10 16 -5 15 16 -2 54 13 54 22 0
15 17 10 24 -7z m1261 -304 c4 -6 -1 -7 -11 -3 -10 4 -15 2 -11 -3 5 -10 -53
-52 -62 -45 -2 1 -8 -4 -13 -13 -5 -9 -19 -16 -30 -16 -12 0 -18 -3 -15 -6 4
-4 -10 -16 -30 -26 -34 -18 -37 -19 -52 -2 -9 9 -11 14 -4 10 6 -3 18 0 26 8
11 11 17 12 27 3 10 -10 12 -8 7 6 -4 11 -3 16 3 12 6 -3 10 -1 10 5 0 6 5 8
11 4 6 -3 15 0 20 7 4 8 14 14 21 14 7 1 12 6 11 13 -2 6 4 9 13 5 9 -3 14 -1
12 7 -2 7 5 14 15 15 11 2 21 6 25 9 8 9 20 7 27 -4z m-420 -20 c-3 -5 -12
-10 -18 -10 -7 0 -6 4 3 10 19 12 23 12 15 0z m-28 -35 c0 -18 -24 -28 -33
-13 -4 7 -3 8 4 4 7 -4 12 -1 12 8 0 9 4 16 8 16 5 0 9 -7 9 -15z m-42 -33
c-3 -3 -11 0 -18 7 -9 10 -8 11 6 5 10 -3 15 -9 12 -12z m-47 -16 c-10 -7 -14
-17 -10 -21 4 -5 1 -5 -7 0 -12 7 -11 10 4 22 24 17 36 17 13 -1z"/>
<path d="M1776 1618 c3 -5 10 -6 15 -3 13 9 11 12 -6 12 -8 0 -12 -4 -9 -9z"/>
<path d="M1647 1399 c7 -7 15 -10 18 -7 3 3 -2 9 -12 12 -14 6 -15 5 -6 -5z"/>
<path d="M1695 1360 c3 -5 8 -10 11 -10 2 0 4 5 4 10 0 6 -5 10 -11 10 -5 0
-7 -4 -4 -10z"/>
<path d="M1066 1142 c-3 -5 1 -9 9 -9 8 0 12 4 9 9 -3 4 -7 8 -9 8 -2 0 -6 -4
-9 -8z"/>
<path d="M970 946 c0 -2 7 -7 16 -10 8 -3 12 -2 9 4 -6 10 -25 14 -25 6z"/>
<path d="M1637 843 c-10 -9 -9 -23 1 -23 5 0 9 7 9 15 0 17 -1 18 -10 8z"/>
<path d="M1559 782 c-13 -14 -17 -21 -8 -14 9 6 18 10 21 7 3 -3 11 1 17 9 22
27 -6 26 -30 -2z"/>
<path d="M490 960 c0 -5 -5 -9 -11 -7 -6 1 -14 -4 -16 -11 -4 -11 -1 -12 16
-3 19 10 29 31 16 31 -3 0 -5 -4 -5 -10z"/>
<path d="M336 832 c-3 -5 1 -9 9 -9 8 0 12 4 9 9 -3 4 -7 8 -9 8 -2 0 -6 -4
-9 -8z"/>
<path d="M300 801 c0 -6 4 -13 10 -16 6 -3 7 1 4 9 -7 18 -14 21 -14 7z"/>
<path d="M241 726 c-9 -11 -9 -16 1 -22 7 -4 10 -4 6 1 -4 4 -3 14 3 22 6 7 9
13 6 13 -2 0 -10 -6 -16 -14z"/>
<path d="M1876 748 c3 -5 10 -6 15 -3 13 9 11 12 -6 12 -8 0 -12 -4 -9 -9z"/>
<path d="M1735 660 c-3 -6 1 -7 9 -4 18 7 21 14 7 14 -6 0 -13 -4 -16 -10z"/>
<path d="M575 2140 c-3 -5 -1 -10 4 -10 6 0 11 5 11 10 0 6 -2 10 -4 10 -3 0
-8 -4 -11 -10z"/>
<path d="M1135 2131 c-3 -5 -2 -12 3 -15 5 -3 9 1 9 9 0 17 -3 19 -12 6z"/>
<path d="M2119 2125 c-1 -3 -2 -11 -3 -17 -1 -16 -96 -19 -115 -4 -11 8 -13 8
-8 0 5 -8 -5 -11 -28 -11 -19 1 -35 6 -35 12 0 5 -4 4 -9 -4 -7 -11 -13 -12
-24 -3 -11 9 -14 9 -14 -3 0 -8 4 -12 9 -9 4 3 8 1 8 -4 0 -5 10 -8 23 -7 12
1 28 0 35 -3 28 -10 -10 -20 -42 -11 -17 5 -48 10 -68 11 -33 1 -36 3 -26 17
8 10 4 8 -10 -3 -17 -14 -22 -16 -22 -5 0 11 -2 11 -10 -1 -8 -12 -10 -12 -10
-1 0 11 -3 11 -17 0 -11 -10 -14 -10 -9 -1 4 6 2 12 -3 12 -6 0 -11 -5 -11
-11 0 -8 -6 -7 -17 2 -15 12 -16 12 -8 -1 8 -13 7 -13 -8 -1 -14 11 -17 11
-18 0 0 -8 -4 -5 -9 6 -5 11 -9 15 -9 8 -1 -7 -21 -10 -61 -9 -43 2 -61 -1
-64 -11 -3 -8 -10 -11 -16 -8 -5 3 -10 -1 -10 -9 0 -9 -5 -16 -11 -16 -5 0 -7
-4 -4 -10 3 -5 1 -10 -5 -10 -6 0 -16 -11 -22 -25 -9 -19 -14 -22 -25 -14 -10
9 -12 9 -8 -2 3 -8 -2 -23 -11 -34 -8 -11 -13 -14 -9 -8 4 8 1 11 -9 7 -9 -3
-15 -9 -14 -12 2 -21 -3 -32 -13 -26 -7 4 -10 1 -7 -7 5 -14 -45 -69 -63 -69
-6 0 -7 5 -4 10 3 6 1 10 -5 10 -7 0 -9 -7 -6 -16 3 -9 6 -18 6 -20 0 -3 6 -2
13 2 7 5 7 1 -2 -10 -9 -10 -24 -16 -36 -14 -14 3 -22 0 -22 -9 0 -8 6 -12 14
-9 10 4 10 2 0 -15 -10 -16 -14 -17 -22 -6 -8 11 -15 8 -33 -15 -13 -15 -19
-28 -13 -28 6 0 11 5 11 12 0 6 3 8 6 5 9 -9 -23 -55 -65 -96 -20 -18 -35 -37
-34 -41 1 -4 -11 -22 -27 -38 -16 -17 -25 -34 -20 -37 6 -3 10 -1 10 5 0 7 7
10 15 6 8 -3 14 0 12 7 -1 7 4 11 11 9 8 -1 11 2 6 9 -5 9 -2 10 10 6 9 -4 15
-3 13 1 -3 4 1 13 9 20 8 7 14 8 14 2 0 -5 5 -10 11 -10 5 0 8 4 5 9 -8 13 21
34 35 25 8 -4 9 -3 5 4 -12 19 19 14 37 -6 18 -19 23 -37 9 -28 -5 3 -9 -1 -9
-8 0 -8 6 -12 14 -9 19 7 16 23 -9 50 -12 13 -20 24 -17 25 43 26 71 38 79 33
6 -3 10 2 11 12 0 10 3 13 6 6 2 -7 9 -13 14 -13 6 0 8 4 5 9 -6 9 30 24 53
21 7 -1 10 3 6 9 -3 6 -3 11 2 12 8 1 28 4 53 10 8 2 18 8 21 12 6 9 46 18 91
20 14 1 24 5 22 8 -5 9 26 20 37 13 5 -3 9 0 9 5 0 6 5 11 11 11 5 0 7 -6 3
-12 -4 -7 2 -4 14 6 12 11 23 16 23 13 1 -4 2 -11 3 -16 0 -5 4 -13 8 -17 4
-3 6 2 3 14 -4 22 22 34 60 28 11 -2 22 0 25 5 8 12 73 17 92 7 13 -6 16 -5
12 5 -3 10 8 13 46 13 27 0 50 -5 51 -11 0 -5 4 -1 9 10 l9 20 0 -20 c1 -17 3
-18 11 -5 9 13 11 13 20 0 8 -12 10 -12 10 5 0 17 2 17 10 5 6 -9 10 -11 10
-3 0 7 6 10 13 8 6 -3 50 -6 97 -8 68 -3 88 0 100 13 18 19 26 55 11 45 -6 -3
-11 -2 -11 4 0 17 18 21 24 5 5 -12 11 -10 32 13 14 15 22 22 18 14 -5 -9 -3
-12 5 -7 6 4 9 12 6 17 -4 5 7 21 22 36 15 14 21 23 13 19 -9 -5 -8 -2 3 7 9
8 17 18 17 22 0 5 7 16 16 26 24 27 11 35 -55 34 -34 0 -61 2 -61 5 0 3 -9 11
-20 17 -14 9 -21 10 -26 1 -4 -6 -3 -8 3 -5 6 4 15 1 21 -6 8 -10 1 -12 -33
-12 -24 0 -41 3 -39 6 1 3 -3 6 -11 6 -8 0 -12 -4 -9 -9 3 -4 0 -8 -5 -8 -6 0
-11 5 -11 11 0 6 -5 7 -12 2 -7 -4 -27 -8 -45 -8 -25 -1 -30 3 -28 17 3 15 -3
27 -6 13z m-109 -73 c0 -4 -9 -8 -19 -8 -11 0 -17 4 -15 8 3 4 12 8 20 8 8 0
14 -4 14 -8z m-773 -317 c0 -8 -4 -12 -9 -9 -5 3 -6 10 -3 15 9 13 12 11 12
-6z"/>
<path d="M2172 2121 c-11 -7 -11 -9 0 -14 9 -3 15 1 15 9 0 8 -1 14 -1 14 -1
0 -7 -4 -14 -9z"/>
<path d="M2375 2120 c-3 -5 -1 -10 4 -10 6 0 11 5 11 10 0 6 -2 10 -4 10 -3 0
-8 -4 -11 -10z"/>
<path d="M1316 1895 c-3 -9 -6 -22 -5 -28 0 -7 5 -1 10 12 5 13 8 26 5 28 -2
2 -6 -3 -10 -12z"/>
<path d="M413 1893 c-12 -2 -27 -12 -35 -21 -11 -13 -11 -14 2 -7 20 12 43 12
53 0 5 -6 7 -3 4 7 -3 9 -1 19 6 22 14 5 1 5 -30 -1z"/>
<path d="M1336 1874 c-9 -24 -2 -26 12 -4 7 11 8 20 3 20 -5 0 -12 -7 -15 -16z"/>
<path d="M826 1838 c3 -5 10 -6 15 -3 13 9 11 12 -6 12 -8 0 -12 -4 -9 -9z"/>
<path d="M1265 1820 c-3 -5 -5 -10 -3 -11 33 -8 38 -7 27 7 -14 17 -16 17 -24
4z"/>
<path d="M2135 1820 c-3 -5 -1 -10 4 -10 6 0 11 5 11 10 0 6 -2 10 -4 10 -3 0
-8 -4 -11 -10z"/>
<path d="M900 1776 c0 -2 8 -10 18 -17 15 -13 16 -12 3 4 -13 16 -21 21 -21
13z"/>
<path d="M870 1659 c0 -5 5 -7 10 -4 6 3 10 8 10 11 0 2 -4 4 -10 4 -5 0 -10
-5 -10 -11z"/>
<path d="M1313 1645 c0 -8 4 -12 9 -9 5 3 6 10 3 15 -9 13 -12 11 -12 -6z"/>
<path d="M1281 1636 c-9 -11 -9 -16 1 -22 7 -4 10 -4 6 1 -4 4 -3 14 3 22 6 7
9 13 6 13 -2 0 -10 -6 -16 -14z"/>
<path d="M2155 1611 c-3 -5 -2 -12 3 -15 5 -3 9 1 9 9 0 17 -3 19 -12 6z"/>
<path d="M2316 1598 c3 -5 10 -6 15 -3 13 9 11 12 -6 12 -8 0 -12 -4 -9 -9z"/>
<path d="M1139 1513 c-13 -16 -12 -17 4 -4 9 7 17 15 17 17 0 8 -8 3 -21 -13z"/>
<path d="M1175 1520 c3 -5 8 -10 11 -10 2 0 4 5 4 10 0 6 -5 10 -11 10 -5 0
-7 -4 -4 -10z"/>
<path d="M1085 1500 c-3 -6 1 -7 9 -4 18 7 21 14 7 14 -6 0 -13 -4 -16 -10z"/>
<path d="M1021 1453 c-1 -17 16 -25 25 -12 4 7 3 9 -4 5 -5 -3 -13 0 -15 6 -4
9 -6 10 -6 1z"/>
<path d="M2574 1399 c0 -13 3 -15 13 -7 7 6 13 12 13 13 0 2 -6 5 -13 8 -7 3
-13 -3 -13 -14z"/>
<path d="M2550 1366 c0 -2 7 -7 16 -10 8 -3 12 -2 9 4 -6 10 -25 14 -25 6z"/>
<path d="M2556 1273 c-6 -14 -5 -15 5 -6 7 7 10 15 7 18 -3 3 -9 -2 -12 -12z"/>
<path d="M685 1240 c-3 -5 -1 -10 4 -10 6 0 11 5 11 10 0 6 -2 10 -4 10 -3 0
-8 -4 -11 -10z"/>
<path d="M2561 1196 c-9 -11 -9 -16 1 -22 7 -4 10 -4 6 1 -4 4 -3 14 3 22 6 7
9 13 6 13 -2 0 -10 -6 -16 -14z"/>
<path d="M2573 1123 c1 -17 4 -19 14 -11 15 12 18 22 4 14 -5 -4 -11 0 -14 6
-3 7 -4 3 -4 -9z"/>
<path d="M480 1080 c-9 -6 -10 -10 -3 -10 6 0 15 5 18 10 8 12 4 12 -15 0z"/>
<path d="M2556 993 c-6 -14 -5 -15 5 -6 7 7 10 15 7 18 -3 3 -9 -2 -12 -12z"/>
<path d="M2557 955 c-4 -8 -3 -16 1 -19 4 -3 9 4 9 15 2 23 -3 25 -10 4z"/>
<path d="M2555 911 c-3 -5 -2 -12 3 -15 5 -3 9 1 9 9 0 17 -3 19 -12 6z"/>
<path d="M2060 771 c0 -10 19 -25 25 -20 1 2 -3 10 -11 17 -8 7 -14 8 -14 3z"/>
<path d="M2291 764 c0 -11 3 -14 6 -6 3 7 2 16 -1 19 -3 4 -6 -2 -5 -13z"/>
<path d="M2186 762 c-3 -5 1 -9 9 -9 8 0 12 4 9 9 -3 4 -7 8 -9 8 -2 0 -6 -4
-9 -8z"/>
<path d="M1130 631 c0 -6 4 -13 10 -16 6 -3 7 1 4 9 -7 18 -14 21 -14 7z"/>
<path d="M1236 623 c-6 -14 -5 -15 5 -6 7 7 10 15 7 18 -3 3 -9 -2 -12 -12z"/>
<path d="M416 622 c-3 -5 1 -9 9 -9 8 0 12 4 9 9 -3 4 -7 8 -9 8 -2 0 -6 -4
-9 -8z"/>
<path d="M896 622 c-3 -5 1 -9 9 -9 8 0 12 4 9 9 -3 4 -7 8 -9 8 -2 0 -6 -4
-9 -8z"/>
<path d="M1635 620 c-3 -5 -1 -10 4 -10 6 0 11 5 11 10 0 6 -2 10 -4 10 -3 0
-8 -4 -11 -10z"/>
<path d="M1550 582 c0 -6 9 -12 20 -15 11 -3 20 -3 20 -1 0 2 -9 8 -20 14 -11
6 -20 7 -20 2z"/>
<path d="M1468 543 c7 -3 16 -2 19 1 4 3 -2 6 -13 5 -11 0 -14 -3 -6 -6z"/>
</g>
</svg>
