<?xml version="1.0" standalone="no"?>
<!DOCTYPE svg PUBLIC "-//W3C//DTD SVG 1.1//EN" "http://www.w3.org/Graphics/SVG/1.1/DTD/svg11.dtd" >
<svg xmlns="http://www.w3.org/2000/svg" xmlns:xlink="http://www.w3.org/1999/xlink" version="1.1">
<metadata>
Created by FontForge 20161013 at Fri Mar 29 22:16:32 2013
 By ,,,
Copyright (c) 1995 ParaGraph Intl., (c) 1998 ParaType Inc., ParaType Ltd. All rights reserved.
</metadata>
<defs>
<font id="FuturaPT-ExtraBoldObl" horiz-adv-x="500" >
  <font-face 
    font-family="Futura PT Extra Bold"
    font-weight="800"
    font-style="italic"
    font-stretch="normal"
    units-per-em="1000"
    panose-1="2 11 10 2 2 2 4 9 2 3"
    ascent="763"
    descent="-237"
    x-height="467"
    cap-height="667"
    bbox="-365 -274 1509 982"
    underline-thickness="50"
    underline-position="-200"
    slope="-7"
    unicode-range="U+0020-FB02"
  />
<missing-glyph horiz-adv-x="233" 
 />
    <glyph glyph-name="afii10017.var.accented" unicode="&#x410;`" horiz-adv-x="708" 
d="M428 89h-164l-32 -89h-260l308 667h276l124 -667h-247zM365 362l-45 -121h92l-10 121q-2 22 -2 47q0 20 3 53h-8q-13 -55 -30 -100zM317 779l127 137l117 -73l-157 -119z" />
    <glyph glyph-name="afii10022.var.accented" unicode="&#x415;`" horiz-adv-x="549" 
d="M121 667h438l-21 -174h-197l-9 -73h180l-20 -165h-180l-9 -76h204l-22 -179h-446zM247 779l127 137l117 -73l-157 -119z" />
    <glyph glyph-name="afii10026.var.accented" unicode="&#x418;`" horiz-adv-x="784" 
d="M121 667h238l-26 -204q-10 -78 -32 -140l10 -5q33 64 73 120l166 229h221l-82 -667h-238l21 172q8 68 32 153l-10 2q-26 -51 -75 -117l-159 -210h-221zM345 779l127 137l117 -73l-157 -119z" />
    <glyph glyph-name="afii10032.var.accented" unicode="&#x41e;`" horiz-adv-x="808" 
d="M675 591q111 -91 111 -252q0 -152 -104.5 -254t-260.5 -102q-158 0 -265.5 98t-107.5 243q0 151 106.5 255t261.5 104q150 0 259 -92zM410 193q57 0 94.5 40.5t37.5 101.5q0 53 -34 90t-84 37q-55 0 -93.5 -41t-38.5 -99q0 -56 33.5 -92.5t84.5 -36.5zM357 779l127 137
l117 -73l-157 -119z" />
    <glyph glyph-name="afii10037.var.accented" unicode="&#x423;`" horiz-adv-x="714" 
d="M40 667h259l72 -188q15 -39 17 -73h8q11 43 26 75l90 186h263l-389 -667h-266l87 153q25 44 53 73zM310 779l127 137l117 -73l-157 -119z" />
    <glyph glyph-name="afii10045.var.accented" unicode="&#x42b;`" horiz-adv-x="1007" 
d="M912 0h-242l82 667h242zM39 0l83 667h242l-31 -254h78q138 0 195 -56q50 -48 50 -134q0 -116 -83 -175q-68 -48 -208 -48h-326zM301 156h23q50 0 71 10q29 14 29 50q0 26 -19 37q-17 10 -62 10h-29zM456 779l127 137l117 -73l-157 -119z" />
    <glyph glyph-name="afii10047.var.accented" unicode="&#x42d;`" horiz-adv-x="670" 
d="M30 38l26 211q29 -31 72 -53q46 -23 103 -23q60 0 96 19q44 23 60 72h-219l18 146h217q-14 41 -51 62q-36 21 -93 21q-60 0 -108 -26q-40 -21 -75 -56l28 222q99 50 205 50q160 0 251 -89q88 -86 88 -235q0 -175 -110 -280q-100 -96 -271 -96q-131 0 -237 55zM238 779
l127 137l117 -73l-157 -119z" />
    <glyph glyph-name="afii10048.var.accented" unicode="&#x42e;`" horiz-adv-x="1143" 
d="M335 439h81q29 102 107 166q96 78 230 78q82 0 155.5 -29.5t123.5 -81.5q89 -93 89 -233q0 -149 -103 -252q-104 -104 -275 -104q-129 0 -220 62q-104 71 -123 198h-90l-29 -243h-242l82 667h242zM745 193q55 0 90 35q19 19 30.5 49t11.5 58q0 57 -37 94q-33 33 -81 33
q-54 0 -92 -40q-40 -40 -40 -100q0 -64 41 -100q32 -29 77 -29zM524 779l127 137l117 -73l-157 -119z" />
    <glyph glyph-name="afii10049.var.accented" unicode="&#x42f;`" horiz-adv-x="707" 
d="M25 0l181 251q-45 8 -79 43q-47 48 -47 124q0 52 18 98t48 76q75 75 240 75h308l-82 -667h-242l17 141q5 38 21 104l-7 1q-10 -54 -35 -99l-83 -147h-258zM417 376l14 117h-41q-39 0 -58 -18q-19 -19 -19 -51q0 -24 20 -37q18 -11 50 -11h34zM336 779l127 137l117 -73
l-157 -119z" />
    <glyph glyph-name="afii10023.var.accented" unicode="&#x401;`" horiz-adv-x="549" 
d="M121 667h438l-21 -174h-197l-9 -73h180l-20 -165h-180l-9 -76h204l-22 -179h-446zM345 911l107 -31l-120 -150l-88 26zM80 815q0 35 23 57.5t57 22.5q37 0 58.5 -25t21.5 -55q0 -32 -24 -56t-56 -24q-30 0 -55 21.5t-25 58.5zM451 815q0 30 21.5 55t58.5 25
q35 0 57.5 -22.5t22.5 -57.5q0 -37 -25 -58.5t-55 -21.5q-32 0 -56 24t-24 56z" />
    <glyph glyph-name="afii10065.var.accented" unicode="&#x430;`" horiz-adv-x="652" 
d="M403 467h230l-58 -467h-229q7 30 25 83l-7 3q-30 -53 -64 -76t-80 -23q-79 0 -137 65t-58 153q0 111 70.5 194.5t163.5 83.5q56 0 88.5 -23t52.5 -77l8 3q-5 41 -5 71v10zM316 164q28 0 46.5 21t18.5 53q0 26 -15.5 43.5t-39.5 17.5q-27 0 -47 -22.5t-20 -53.5
q0 -26 16 -42.5t41 -16.5zM307 596l116 146l117 -73l-146 -128z" />
    <glyph glyph-name="afii10070.var.accented" unicode="&#x435;`" horiz-adv-x="618" 
d="M587 202h-331q-1 -6 -1 -17q0 -29 14 -46t37 -17q34 0 50 40h222q-14 -40 -27 -61t-38 -43q-82 -71 -205 -71q-125 0 -202.5 67t-77.5 175q0 113 82.5 189t205.5 76q116 0 195.5 -70.5t79.5 -173.5q0 -6 -4 -48zM322 360q-47 0 -57 -62h108q-1 62 -51 62zM290 596
l116 146l117 -73l-146 -128z" />
    <glyph glyph-name="afii10074.var.accented" unicode="&#x438;`" horiz-adv-x="673" 
d="M77 467h228l-20 -146q-6 -49 -25 -91l11 -4q12 27 33 59l124 182h227l-57 -467h-228l19 140q6 48 19 92l-10 4q-15 -30 -42 -70l-109 -166h-227zM317 596l116 146l117 -73l-146 -128z" />
    <glyph glyph-name="afii10080.var.accented" unicode="&#x43e;`" horiz-adv-x="637" 
d="M329 493q135 0 213 -78q69 -67 69 -171q0 -102 -71 -174q-81 -83 -216 -83q-141 0 -223 80q-72 69 -72 169q0 101 69 172q40 40 101 62.5t130 22.5zM318 169q25 0 41 16q23 23 23 59q0 33 -20 51q-17 15 -38 15q-26 0 -43 -17q-23 -23 -23 -58q0 -30 21 -51
q17 -15 39 -15zM299 596l116 146l117 -73l-146 -128z" />
    <glyph glyph-name="afii10085.var.accented" unicode="&#x443;`" horiz-adv-x="591" 
d="M381 467h249l-363 -696h-248l88 169q35 61 65 96l-141 431h238l20 -130q7 -43 7 -75q0 -24 -2 -48l10 -1q15 78 34 131zM270 596l116 146l117 -73l-146 -128z" />
    <glyph glyph-name="afii10093.var.accented" unicode="&#x44b;`" horiz-adv-x="884" 
d="M579 0l57 467h228l-57 -467h-228zM289 311h99q92 0 134 -39q42 -38 42 -107q0 -67 -43 -112q-53 -53 -174 -53h-327l56 467h232zM265 116h36q29 0 43 11q16 12 16 37q0 18 -12 27q-12 8 -36 8h-37zM423 596l116 146l117 -73l-146 -128z" />
    <glyph glyph-name="afii10095.var.accented" unicode="&#x44d;`" horiz-adv-x="537" 
d="M30 29l19 158q26 -29 58 -44q34 -16 74 -16q45 0 73 17q26 16 34 43h-167l13 110h161q-14 27 -41 42q-26 13 -60 13q-40 0 -75 -17q-34 -16 -56 -38l20 165q83 30 160 30q134 0 203 -69q65 -65 65 -173q0 -120 -74 -192q-72 -70 -212 -70q-114 0 -195 41zM179 596
l116 146l117 -73l-146 -128z" />
    <glyph glyph-name="afii10096.var.accented" unicode="&#x44e;`" horiz-adv-x="912" 
d="M276 318h63q27 81 96 127q71 48 169 48q137 0 215 -78q67 -67 67 -163q0 -112 -73 -186q-78 -79 -227 -79q-111 0 -175 46q-64 48 -83 127h-70l-20 -160h-218l57 467h218zM593 169q25 0 41 16q23 21 23 58q0 32 -20 52q-17 15 -38 15q-26 0 -43 -17q-23 -23 -23 -58
q0 -30 21 -51q17 -15 39 -15zM437 596l116 146l117 -73l-146 -128z" />
    <glyph glyph-name="afii10097.var.accented" unicode="&#x44f;`" horiz-adv-x="627" 
d="M10 0l130 158q-36 7 -61 32q-33 34 -33 91q0 81 50 131q56 55 179 55h332l-57 -467h-230l17 138h-6l-92 -138h-229zM351 250l11 95h-31q-34 0 -50 -15q-15 -13 -15 -39q0 -19 13 -30q14 -11 38 -11h34zM294 596l116 146l117 -73l-146 -128z" />
    <glyph glyph-name="afii10071.var.accented" unicode="&#x451;`" horiz-adv-x="618" 
d="M587 202h-331q-1 -6 -1 -17q0 -29 14 -46t37 -17q34 0 50 40h222q-14 -40 -27 -61t-38 -43q-82 -71 -205 -71q-125 0 -202.5 67t-77.5 175q0 113 82.5 189t205.5 76q116 0 195.5 -70.5t79.5 -173.5q0 -6 -4 -48zM322 360q-47 0 -57 -62h108q-1 62 -51 62zM202 602
l116 146l96 -63l-146 -128zM49 667q0 32 23 55t55 23t54.5 -23t22.5 -55t-22.5 -55t-54.5 -23t-55 23t-23 55zM432 667q0 32 22.5 55t54.5 23t55 -23t23 -55t-23 -55t-55 -23t-54.5 23t-22.5 55z" />
    <glyph glyph-name="fi" unicode="fi" horiz-adv-x="701" 
d="M268 0h-226l36 293l-63 -6l22 180l62 -6l2 21q11 113 76 178q80 80 236 80q131 0 206 -58q71 -56 71 -146q0 -11 -2 -29h-226v4q0 20 -12 34q-16 19 -51 19q-32 0 -53 -21q-15 -16 -20 -48l-5 -36l78 8l-22 -180l-73 6zM626 0h-226l57 467h226z" />
    <glyph glyph-name="fl" unicode="fl" horiz-adv-x="701" 
d="M268 0h-226l36 293l-63 -6l22 180l62 -6l2 21q11 114 75 178q80 80 231 80q133 0 208 -64q71 -60 71 -160q0 -21 -11 -111l-49 -405h-226l55 440q6 51 6 57q0 39 -22 55q-17 12 -41 12q-32 0 -52 -21q-16 -18 -20 -48l-5 -36l78 8l-22 -180l-73 6z" />
    <glyph glyph-name=".notdef" horiz-adv-x="233" 
 />
    <glyph glyph-name=".null" horiz-adv-x="0" 
 />
    <glyph glyph-name="nonmarkingreturn" horiz-adv-x="333" 
 />
    <glyph glyph-name="space" unicode=" " horiz-adv-x="233" 
 />
    <glyph glyph-name="exclam" unicode="!" horiz-adv-x="404" 
d="M140 667h242l-49 -405h-242zM188 211q56 0 95 -32.5t39 -79.5q0 -46 -38.5 -78.5t-92.5 -32.5t-93.5 34t-39.5 81q0 46 37 77t93 31z" />
    <glyph glyph-name="quotedbl" unicode="&#x22;" horiz-adv-x="416" 
d="M241 667l-58 -268h-99l9 268h148zM428 667l-57 -268h-100l9 268h148z" />
    <glyph glyph-name="numbersign" unicode="#" horiz-adv-x="600" 
d="M484 299h101l-32 -117h-102l-51 -182h-134l52 182h-84l-52 -182h-132l52 182h-102l33 117h101l23 83h-100l32 116h101l48 169h131l-47 -169h84l48 169h133l-48 -169h100l-32 -116h-100zM350 299l24 83h-85l-23 -83h84z" />
    <glyph glyph-name="dollar" unicode="$" horiz-adv-x="707" 
d="M497 773l-12 -96q80 -8 173 -49l-77 -177q-72 63 -162 63q-82 0 -82 -45q0 -18 11 -24t63 -16q126 -22 172 -55q68 -50 68 -143q0 -113 -96 -182q-35 -25 -66.5 -36t-94.5 -21l-14 -107h-145l14 107q-64 9 -114 28t-99 48l79 181q44 -42 93 -63q58 -25 114 -25
q44 0 68.5 13t24.5 36q0 19 -15 29t-52 15q-116 15 -174 50q-34 22 -54.5 62t-20.5 85q0 90 63.5 150.5t174.5 75.5l12 96h148z" />
    <glyph glyph-name="percent" unicode="%" horiz-adv-x="1059" 
d="M267 683q95 0 156 -48.5t61 -125.5q0 -85 -62.5 -142t-155.5 -57t-151.5 51t-58.5 133q0 83 59 136t152 53zM312 507q0 17 -10.5 28.5t-24.5 11.5q-18 0 -31 -15.5t-13 -35.5q0 -17 10.5 -29t24.5 -12q19 0 31.5 15t12.5 37zM720 667h120l-470 -667h-121zM812 357
q95 0 156.5 -49t61.5 -126q0 -85 -63.5 -142t-155.5 -57q-93 0 -151.5 51.5t-58.5 132.5q0 83 59 136.5t152 53.5zM857 180q0 18 -10 29t-25 11q-18 0 -31 -15t-13 -36q0 -16 10.5 -28t24.5 -12q19 0 31.5 14.5t12.5 36.5z" />
    <glyph glyph-name="ampersand" unicode="&#x26;" horiz-adv-x="869" 
d="M805 220l-111 -75l143 -145h-293l-35 42q-67 -33 -130 -47q-51 -12 -93 -12q-108 0 -178.5 61.5t-70.5 154.5q0 99 79 149q39 22 104 37q-51 62 -51 122q0 84 71.5 137t184.5 53q108 0 177 -52t69 -133q0 -115 -156 -175l51 -61q36 26 54.5 43.5t58.5 65.5zM390 503
q0 -20 24 -53q51 25 51 58q0 16 -10 26.5t-25 10.5q-17 0 -28.5 -11.5t-11.5 -30.5zM389 179l-69 78q-48 -15 -48 -50q0 -19 16 -30.5t42 -11.5q25 0 59 14z" />
    <glyph glyph-name="quotesingle" unicode="'" horiz-adv-x="231" 
d="M243 667l-58 -268h-101l9 268h150z" />
    <glyph glyph-name="parenleft" unicode="(" horiz-adv-x="428" 
d="M318 -160l-191 -70q-46 135 -62 237q-12 80 -12 151q0 183 63 342q24 63 51 112.5t93 153.5l170 -116q-91 -145 -129 -262.5t-38 -249.5q0 -57 9 -123q12 -86 46 -175z" />
    <glyph glyph-name="parenright" unicode=")" horiz-adv-x="428" 
d="M120 696l191 70q46 -135 62 -237q12 -79 12 -154q0 -180 -62 -339q-25 -62 -51.5 -111t-93.5 -155l-170 116q90 144 128.5 261t38.5 247q0 61 -9 127q-12 86 -46 175z" />
    <glyph glyph-name="asterisk" unicode="*" horiz-adv-x="710" 
d="M253 663l96 -44l4 110h120l-24 -110l107 44l23 -114l-111 -25l63 -83l-105 -70l-46 94l-67 -94l-89 70l83 83l-105 25z" />
    <glyph glyph-name="plus" unicode="+" 
d="M47 280v120h152v153h130v-153h151v-120h-151v-153h-130v153h-152z" />
    <glyph glyph-name="comma" unicode="," horiz-adv-x="344" 
d="M75 183h233l-187 -343h-178z" />
    <glyph glyph-name="hyphen" unicode="-" horiz-adv-x="415" 
d="M356 175h-315l23 180h315z" />
    <glyph glyph-name="period" unicode="." horiz-adv-x="355" 
d="M164 211q54 0 91.5 -32.5t37.5 -78.5q0 -47 -39 -80t-96 -33q-55 0 -91.5 30.5t-36.5 75.5q0 48 40 83t94 35z" />
    <glyph glyph-name="slash" unicode="/" horiz-adv-x="639" 
d="M-104 -193l490 922h173l-491 -922h-172z" />
    <glyph glyph-name="zero" unicode="0" horiz-adv-x="707" 
d="M373 683q136 0 226 -93t90 -233q0 -159 -97 -266.5t-241 -107.5q-136 0 -222 91.5t-86 235.5q0 161 93.5 267t236.5 106zM350 183q41 0 70 56t29 136q0 47 -19 76t-50 29q-38 0 -67.5 -55t-29.5 -127q0 -53 18 -84t49 -31z" />
    <glyph glyph-name="one" unicode="1" horiz-adv-x="707" 
d="M215 667h355l-82 -667h-246l56 461l-109 -8z" />
    <glyph glyph-name="two" unicode="2" horiz-adv-x="707" 
d="M551 190h89l-23 -190h-614l331 299q29 26 44 41.5t30 40.5t15 48q0 30 -17 45q-15 13 -37 13q-33 0 -51 -30q-15 -27 -15 -57h-244q17 126 91 200q85 83 233 83q137 0 213 -71q69 -65 69 -165q0 -96 -72 -165q-33 -31 -83 -60q-39 -22 -95 -41l3 -11q34 12 61 16
q25 4 72 4z" />
    <glyph glyph-name="three" unicode="3" horiz-adv-x="707" 
d="M84 100q-20 29 -28.5 55t-14.5 76h246q-1 -7 -1 -16q0 -28 17.5 -45.5t45.5 -17.5q30 0 51 20t21 48q0 26 -18 43t-46 17q-13 0 -23 -2l17 137q13 -3 20 -3q25 0 41.5 15t16.5 38q0 22 -14.5 36.5t-34.5 14.5q-46 0 -52 -55h-232q10 62 33 99q27 43 67 69q79 54 193 54
q119 0 196 -56t77 -142q0 -52 -31.5 -88.5t-83.5 -44.5v-10q50 -9 79.5 -47.5t29.5 -93.5q0 -98 -83 -158t-217 -60q-91 0 -161.5 30.5t-110.5 86.5z" />
    <glyph glyph-name="four" unicode="4" horiz-adv-x="707" 
d="M595 309h92l-23 -182h-92l-15 -127h-223l16 127h-332l22 182l312 358h287zM337 309h41l7 56q7 59 40 132l-10 1q-23 -45 -57 -87l-46 -59q-22 -26 -62 -57l4 -7q36 21 83 21z" />
    <glyph glyph-name="five" unicode="5" horiz-adv-x="707" 
d="M226 667h447l-23 -188h-274l-18 -62q43 12 84 12q101 0 163 -60q55 -55 55 -134q0 -93 -67 -161q-90 -91 -285 -91q-81 0 -151 16q-54 12 -107 35l50 177q46 -21 89 -33q48 -13 107 -13q56 0 85 15q35 18 35 46q0 38 -48 55q-32 12 -92 12q-56 0 -105 -12
q-36 -10 -57 -17z" />
    <glyph glyph-name="six" unicode="6" horiz-adv-x="707" 
d="M341 667h339l-186 -148q-6 -4 -12 -9t-8.5 -7.5t-3.5 -2.5q-11 -8 -30 -18q-4 -2 -20 -8l3 -13q23 7 44 7q83 0 137.5 -59.5t54.5 -149.5q0 -119 -90 -197.5t-227 -78.5q-135 0 -222 77.5t-87 197.5q0 113 81 205q32 35 72 69zM343 171q35 0 58.5 25t23.5 63q0 33 -21 54
t-54 21q-34 0 -58.5 -25.5t-24.5 -60.5q0 -34 21 -55.5t55 -21.5z" />
    <glyph glyph-name="seven" unicode="7" horiz-adv-x="707" 
d="M131 667h637l-444 -667h-275l260 372q47 67 88 101l-3 7q-25 -7 -41 -7h-32h-214z" />
    <glyph glyph-name="eight" unicode="8" horiz-adv-x="707" 
d="M539 338l-1 -8q116 -26 116 -132q0 -92 -84.5 -153.5t-212.5 -61.5q-132 0 -221 64t-89 159q0 65 39 105t109 46l2 8q-93 27 -93 120q0 86 78.5 142t197.5 56q122 0 205.5 -58t83.5 -143q0 -65 -47 -106q-29 -26 -83 -38zM384 412q23 0 39 15.5t16 38.5q0 22 -15.5 38
t-38.5 16t-38.5 -16t-15.5 -38t15.5 -38t37.5 -16zM351 145q29 0 49 19.5t20 47.5q0 30 -19.5 50t-48.5 20t-49.5 -20t-20.5 -48t20 -48.5t49 -20.5z" />
    <glyph glyph-name="nine" unicode="9" horiz-adv-x="707" 
d="M387 0h-328l150 121q64 50 107 69l-5 11q-28 -7 -50 -7q-85 0 -142.5 61t-57.5 152q0 120 92 198t233 78q132 0 218 -77t86 -196q0 -48 -17 -98t-46 -87q-26 -32 -75 -77zM372 324q35 0 60.5 28t25.5 65q0 33 -21.5 54.5t-54.5 21.5q-36 0 -61 -25.5t-25 -62.5
q0 -35 21.5 -58t54.5 -23z" />
    <glyph glyph-name="colon" unicode=":" horiz-adv-x="355" 
d="M197 493q54 0 91.5 -32.5t37.5 -78.5q0 -48 -39 -81t-96 -33q-55 0 -91.5 30.5t-36.5 76.5q0 48 40 83t94 35zM164 211q54 0 91.5 -32.5t37.5 -78.5q0 -47 -39 -80t-96 -33q-55 0 -91.5 30.5t-36.5 75.5q0 48 40 83t94 35z" />
    <glyph glyph-name="semicolon" unicode=";" horiz-adv-x="344" 
d="M75 183h233l-187 -343h-178zM225 493q54 0 91.5 -32.5t37.5 -78.5q0 -48 -39.5 -81t-95.5 -33q-55 0 -91.5 30.5t-36.5 76.5q0 48 39.5 83t94.5 35z" />
    <glyph glyph-name="less" unicode="&#x3c;" 
d="M33 389l433 220v-128l-296 -147l295 -148l1 -128l-433 222v109z" />
    <glyph glyph-name="equal" unicode="=" 
d="M47 370v113h433v-113h-433zM47 197v113h433v-113h-433z" />
    <glyph glyph-name="greater" unicode="&#x3e;" 
d="M493 279l-433 -221v129l296 147l-295 147l-1 128l433 -221v-109z" />
    <glyph glyph-name="question" unicode="?" horiz-adv-x="618" 
d="M241 267l21 152q21 -8 44 -8q40 0 60 16q23 18 23 48q0 22 -13 34q-14 12 -32 12q-23 0 -35 -16q-12 -14 -12 -44h-224q11 87 70 146q74 75 206 75q133 0 206 -74q57 -58 57 -141q0 -86 -55 -141q-67 -68 -221 -68q-54 0 -95 9zM299 212q60 0 95 -36t35 -80
q0 -47 -39.5 -78t-93.5 -31q-59 0 -95 34t-36 77t36.5 78.5t97.5 35.5z" />
    <glyph glyph-name="at" unicode="@" horiz-adv-x="732" 
d="M446 352q0 26 -13 41q-14 16 -35 16q-30 0 -55 -23q-41 -36 -41 -93q0 -25 14 -41t34 -16q26 0 50 19q19 15 32.5 44t13.5 53zM488 454l11 38h89l-59 -190q-10 -30 -10 -44q0 -12 7 -18q5 -5 17 -5q15 0 30 12q32 26 47.5 72t15.5 85q0 81 -56 135q-58 55 -144 55
q-56 0 -112.5 -23t-97.5 -62q-40 -39 -65.5 -96t-25.5 -117q0 -100 62 -160q64 -62 177 -62q97 0 183 34l11 -86q-94 -34 -200 -34q-153 0 -238 81q-87 84 -87 221q0 158 119 273q120 115 281 115q133 0 213 -88q65 -71 65 -173q0 -62 -20 -119t-58 -93q-53 -51 -117 -51
q-40 0 -63 21q-14 14 -18 33q-24 -28 -52 -44q-34 -19 -74 -19q-51 0 -85 34q-37 37 -37 98q0 92 67 162q62 63 138 63q32 0 54 -13q21 -13 32 -35z" />
    <glyph glyph-name="A" unicode="A" horiz-adv-x="708" 
d="M428 89h-164l-32 -89h-260l308 667h276l124 -667h-247zM365 362l-45 -121h92l-10 121q-2 22 -2 47q0 20 3 53h-8q-13 -55 -30 -100z" />
    <glyph glyph-name="B" unicode="B" horiz-adv-x="681" 
d="M530 348l1 -6q52 -11 80.5 -48.5t28.5 -94.5q0 -88 -64 -143.5t-163 -55.5h-374l82 667h299q156 0 204 -98q17 -37 17 -72q0 -59 -29 -98t-82 -51zM367 507h-34l-12 -96h21q39 0 57 12t18 40q0 44 -50 44zM345 271h-41l-14 -115h16q54 0 78 15.5t24 53.5q0 46 -63 46z
" />
    <glyph glyph-name="C" unicode="C" horiz-adv-x="582" 
d="M415 683q87 0 173 -31l-20 -237q-65 52 -133 52q-60 0 -103.5 -44t-43.5 -104q0 -51 37 -85.5t92 -34.5q71 0 131 57l-29 -243q-89 -30 -152 -30q-139 0 -229.5 94t-90.5 237q0 159 105 264t263 105z" />
    <glyph glyph-name="D" unicode="D" horiz-adv-x="744" 
d="M39 0l82 667h226q176 0 275.5 -85.5t99.5 -237.5q0 -80 -32 -148.5t-90 -114.5q-55 -44 -122 -62.5t-172 -18.5h-267zM368 471h-30l-33 -273h34q60 0 102 44t42 108q0 52 -32.5 86.5t-82.5 34.5z" />
    <glyph glyph-name="E" unicode="E" horiz-adv-x="549" 
d="M121 667h438l-21 -174h-197l-9 -73h180l-20 -165h-180l-9 -76h204l-22 -179h-446z" />
    <glyph glyph-name="F" unicode="F" horiz-adv-x="523" 
d="M121 667h426l-22 -178h-184l-9 -73h172l-22 -176h-172l-29 -240h-242z" />
    <glyph glyph-name="G" unicode="G" horiz-adv-x="807" 
d="M418 388h365v-6q0 -192 -110 -301q-99 -98 -267 -98q-79 0 -142 20.5t-119 75.5q-98 96 -98 238q0 152 102 256q108 111 294 111q217 0 319 -169l-227 -89q-28 56 -89 56t-102 -38q-55 -52 -55 -137q0 -62 38 -102q35 -36 94 -36q83 0 107 73h-130z" />
    <glyph glyph-name="H" unicode="H" horiz-adv-x="760" 
d="M505 667h242l-82 -667h-242l30 243h-143l-29 -243h-242l82 667h242l-28 -228h142z" />
    <glyph glyph-name="I" unicode="I" horiz-adv-x="379" 
d="M121 667h245l-82 -667h-245z" />
    <glyph glyph-name="J" unicode="J" horiz-adv-x="456" 
d="M201 667h242l-55 -447q-5 -38 -9.5 -61.5t-19 -56t-37.5 -56.5q-62 -63 -177 -63q-109 0 -179 52l78 216q8 -20 25 -41q16 -19 39 -19q20 0 30 14q8 13 12 46z" />
    <glyph glyph-name="K" unicode="K" horiz-adv-x="732" 
d="M121 667h242l-22 -173q-8 -61 -21 -116l7 -2q20 51 42 85l23 37l106 169h282l-260 -338l170 -329h-255l-85 192q-23 52 -34 98l-7 -1v-20q0 -39 -5 -77l-23 -192h-242z" />
    <glyph glyph-name="L" unicode="L" horiz-adv-x="530" 
d="M121 667h245l-57 -466l205 6l-25 -207h-450z" />
    <glyph glyph-name="M" unicode="M" horiz-adv-x="948" 
d="M623 667h255l2 -667h-235l13 197q5 86 23 185l-9 2l-5 -19q-21 -85 -54 -163l-85 -202h-152l-26 211q-1 3 -5 50q-3 37 -3 60v13q0 27 2 50h-8l-2 -15q-10 -81 -28 -158l-49 -211h-245l194 667h256l26 -208q5 -40 5 -74q0 -38 -6 -73h10q16 84 59 190z" />
    <glyph glyph-name="N" unicode="N" horiz-adv-x="812" 
d="M554 667h245l-82 -667h-234l-116 230q-34 69 -53 135l-4 12h-8q4 -40 4 -80q0 -41 -3 -67l-21 -230h-243l82 667h243l118 -251q22 -47 42 -118l6 -22l10 1l-2 22q-5 62 -5 92q0 44 4 79z" />
    <glyph glyph-name="O" unicode="O" horiz-adv-x="808" 
d="M675 591q111 -91 111 -252q0 -152 -104.5 -254t-260.5 -102q-158 0 -265.5 98t-107.5 243q0 151 106.5 255t261.5 104q150 0 259 -92zM410 193q57 0 94.5 40.5t37.5 101.5q0 53 -34 90t-84 37q-55 0 -93.5 -41t-38.5 -99q0 -56 33.5 -92.5t84.5 -36.5z" />
    <glyph glyph-name="P" unicode="P" horiz-adv-x="665" 
d="M398 203h-92l-25 -203h-242l82 667h278q127 0 192 -51q84 -67 84 -177q0 -47 -19 -92.5t-51 -77.5q-37 -35 -85 -50.5t-122 -15.5zM366 493h-25l-15 -124h22q92 0 92 71q0 29 -16.5 41t-57.5 12z" />
    <glyph glyph-name="Q" unicode="Q" horiz-adv-x="811" 
d="M720 139q-7 -8 -26 -25l87 -131l-203 -65l-44 91q-68 -26 -131 -26q-129 0 -228 77q-126 96 -126 264q0 154 106.5 256.5t267.5 102.5q151 0 257 -93q58 -51 84.5 -112t26.5 -143q0 -125 -71 -196zM373 275l170 18q5 32 5 44q0 50 -36.5 87.5t-85.5 37.5q-56 0 -95 -44.5
t-39 -107.5q0 -55 34.5 -92.5t85.5 -37.5q10 0 30 3z" />
    <glyph glyph-name="R" unicode="R" horiz-adv-x="701" 
d="M607 300q-23 -18 -42.5 -26t-56.5 -13l145 -261h-262l-60 161q-19 52 -26 89l-7 -1q1 -22 1 -49q0 -46 -5 -88l-13 -112h-242l82 667h265q81 0 126.5 -12t83.5 -42q78 -65 78 -166q0 -93 -67 -147zM360 488h-19l-15 -120h20q42 0 66.5 18t24.5 48q0 54 -77 54z" />
    <glyph glyph-name="S" unicode="S" horiz-adv-x="607" 
d="M556 636q24 -12 42 -22l-89 -177q-66 60 -146 60q-20 0 -33 -10t-13 -25q0 -16 13.5 -24t59.5 -19q73 -19 108 -44q34 -22 53.5 -62.5t19.5 -86.5q0 -101 -85 -172t-206 -71q-98 0 -202 48q-44 22 -62 32l90 180q30 -37 75 -58t92 -21q26 0 41 10.5t15 28.5q0 33 -63 47
q-62 12 -95 30q-96 47 -96 164q0 100 80 169.5t194 69.5q105 0 207 -47z" />
    <glyph glyph-name="T" unicode="T" horiz-adv-x="489" 
d="M60 667h476l-26 -210l-115 7l-57 -464h-245l57 464l-115 -7z" />
    <glyph glyph-name="U" unicode="U" horiz-adv-x="758" 
d="M500 667h245l-45 -369q-14 -107 -31.5 -152t-61.5 -85q-87 -78 -226 -78q-147 0 -236 72q-75 61 -75 175q0 26 3 53l48 384h245l-45 -369q-5 -40 -5 -49q0 -62 60 -62q34 0 52 23.5t26 78.5z" />
    <glyph glyph-name="V" unicode="V" horiz-adv-x="694" 
d="M474 667h274l-334 -667h-210l-150 667h253l26 -210q6 -47 6 -99q0 -37 -4 -89l10 -1q14 119 52 211z" />
    <glyph glyph-name="W" unicode="W" horiz-adv-x="1040" 
d="M820 667h274l-320 -667h-204l-30 215q-8 54 -8 110q0 15 1 28l-9 1l-3 -11q-13 -65 -27 -100l-22 -60l-68 -183h-216l-134 667h250l22 -259q4 -58 4 -88q0 -3 -2 -53h10l3 19q9 72 42 164l81 217h199l28 -254q7 -64 7 -120q0 -13 -1 -27h10q7 69 14 101t27 88z" />
    <glyph glyph-name="X" unicode="X" horiz-adv-x="740" 
d="M765 667l-253 -321l200 -346h-261l-51 109q-16 33 -27 76h-8q-9 -31 -22 -52l-14 -24l-64 -109h-293l278 356l-181 311h273l32 -84q17 -43 20 -68h6q11 33 32 73l41 79h292z" />
    <glyph glyph-name="Y" unicode="Y" horiz-adv-x="684" 
d="M745 667l-281 -384l-35 -283h-240l36 289l-178 378h265l34 -109q10 -33 13 -76h9q8 30 24 63l62 122h291z" />
    <glyph glyph-name="Z" unicode="Z" horiz-adv-x="633" 
d="M435 194l181 4l-24 -198h-607l8 60l233 328q27 37 41 52.5t31 25.5l-3 8q-33 -10 -87 -13l-153 -4l26 210h582l-8 -59l-247 -348q-37 -51 -65 -71l4 -8q36 11 88 13z" />
    <glyph glyph-name="bracketleft" unicode="[" horiz-adv-x="430" 
d="M325 646l-93 -756h130l-10 -83h-132h-198l113 922h330l-10 -83h-130z" />
    <glyph glyph-name="backslash" unicode="\" horiz-adv-x="740" 
d="M-82 -193l631 922h173l-632 -922h-172z" />
    <glyph glyph-name="bracketright" unicode="]" horiz-adv-x="430" 
d="M115 -110l93 756h-130l10 83h330l-113 -922h-200h-130l10 83h130z" />
    <glyph glyph-name="asciicircum" unicode="^" 
d="M263 549l-101 -219h-144l160 337h170l161 -337h-144z" />
    <glyph glyph-name="underscore" unicode="_" 
d="M-30 -196v150h500v-150h-500z" />
    <glyph glyph-name="grave" unicode="`" 
d="M161 669l117 73l115 -146l-86 -55z" />
    <glyph glyph-name="a" unicode="a" horiz-adv-x="652" 
d="M403 467h230l-58 -467h-229q7 30 25 83l-7 3q-30 -53 -64 -76t-80 -23q-79 0 -137 65t-58 153q0 111 70.5 194.5t163.5 83.5q56 0 88.5 -23t52.5 -77l8 3q-5 41 -5 71v10zM316 164q28 0 46.5 21t18.5 53q0 26 -15.5 43.5t-39.5 17.5q-27 0 -47 -22.5t-20 -53.5
q0 -26 16 -42.5t41 -16.5z" />
    <glyph glyph-name="b" unicode="b" horiz-adv-x="639" 
d="M110 729h231l-28 -228q-7 -55 -28 -112l6 -4q44 98 137 98q79 0 132 -66.5t53 -166.5q0 -110 -64.5 -186.5t-158.5 -76.5q-97 0 -144 94l-7 -2q5 -31 5 -60v-19h-224zM324 164q26 0 43.5 21t17.5 53q0 28 -15.5 45.5t-39.5 17.5q-26 0 -44 -21t-18 -52q0 -27 16 -45.5
t40 -18.5z" />
    <glyph glyph-name="c" unicode="c" horiz-adv-x="437" 
d="M300 493q59 0 139 -26l-29 -196q-36 42 -82 42q-33 0 -53 -22t-20 -58q0 -32 18 -50.5t50 -18.5q41 0 78 33l-34 -192q-60 -18 -105 -18q-104 0 -169.5 65t-65.5 168q0 122 75.5 197.5t197.5 75.5z" />
    <glyph glyph-name="d" unicode="d" horiz-adv-x="643" 
d="M426 729h231l-90 -729h-231q10 40 23 78l-8 4q-42 -95 -140 -95q-80 0 -132.5 62.5t-52.5 157.5q0 114 65 195t157 81q105 0 140 -102l9 2q-4 24 -4 35q0 48 7 101zM311 169q25 0 42.5 19.5t19.5 50.5v5q0 27 -15 43.5t-40 16.5q-26 0 -44.5 -21t-18.5 -52
q0 -26 16.5 -44t39.5 -18z" />
    <glyph glyph-name="e" unicode="e" horiz-adv-x="618" 
d="M587 202h-331q-1 -6 -1 -17q0 -29 14 -46t37 -17q34 0 50 40h222q-14 -40 -27 -61t-38 -43q-82 -71 -205 -71q-125 0 -202.5 67t-77.5 175q0 113 82.5 189t205.5 76q116 0 195.5 -70.5t79.5 -173.5q0 -6 -4 -48zM322 360q-47 0 -57 -62h108q-1 62 -51 62z" />
    <glyph glyph-name="f" unicode="f" horiz-adv-x="382" 
d="M372 288l-66 6l-36 -294h-231l36 294l-60 -6l23 183l57 -10l10 81q11 90 61 140q58 58 165 58q53 0 101 -14l-22 -177q-18 8 -29 8q-18 0 -31 -13q-14 -14 -19 -55l-4 -28l67 6z" />
    <glyph glyph-name="g" unicode="g" horiz-adv-x="644" 
d="M397 467h228l-52 -421q-10 -82 -31.5 -128t-65.5 -79q-88 -68 -221 -68q-106 0 -213 41q-10 3 -30 12l62 152q82 -50 150 -50q37 0 67 15.5t44 41.5q13 26 28 100l-7 2q-22 -48 -53 -68t-83 -20q-83 0 -138 63t-55 158q0 111 66.5 188t162.5 77q103 0 138 -95l7 2l-2 27
l-1 34zM312 163q28 0 46.5 19.5t18.5 49.5q0 29 -15.5 47.5t-39.5 18.5q-28 0 -47.5 -21.5t-19.5 -51.5q0 -28 16 -45t41 -17z" />
    <glyph glyph-name="h" unicode="h" horiz-adv-x="632" 
d="M110 729h231l-26 -211q-9 -71 -25 -125l9 -3q53 93 148 93q62 0 104.5 -43t42.5 -106q0 -26 -4 -53l-34 -281h-232l28 226q3 20 3 31q0 35 -30 35q-22 0 -32.5 -15.5t-15.5 -58.5l-26 -218h-231z" />
    <glyph glyph-name="i" unicode="i" horiz-adv-x="332" 
d="M217 747q52 0 90.5 -32.5t38.5 -76.5q0 -47 -38.5 -80t-95.5 -33q-53 0 -90 31t-37 76q0 46 39.5 80.5t92.5 34.5zM81 467h231l-57 -467h-231z" />
    <glyph glyph-name="j" unicode="j" horiz-adv-x="341" 
d="M90 467h231l-89 -696h-231zM225 747q52 0 91 -32.5t39 -76.5q0 -47 -39 -80t-96 -33q-53 0 -90 31t-37 76q0 46 39.5 80.5t92.5 34.5z" />
    <glyph glyph-name="k" unicode="k" horiz-adv-x="650" 
d="M110 729h231l-34 -279q-9 -70 -29 -175l7 -1q17 44 61 109l57 84h275l-201 -241l134 -226h-256l-42 91q-29 63 -40 114l-9 -1q3 -39 3 -57q0 -17 -2 -39l-14 -108h-231z" />
    <glyph glyph-name="l" unicode="l" horiz-adv-x="327" 
d="M110 729h231l-90 -729h-231z" />
    <glyph glyph-name="m" unicode="m" horiz-adv-x="903" 
d="M77 467h225q-8 -37 -21 -77l11 -2q30 52 63.5 73.5t84.5 21.5q104 0 120 -98h8q38 98 144 98q70 0 111.5 -41t41.5 -110q0 -23 -5 -65l-33 -267h-225l29 236q3 22 3 29q0 15 -7.5 25t-19.5 10q-20 0 -29 -15.5t-14 -63.5l-28 -221h-225l28 230l4 25v11q0 33 -26 33
q-20 0 -29.5 -15t-14.5 -57l-28 -227h-225z" />
    <glyph glyph-name="n" unicode="n" horiz-adv-x="633" 
d="M77 467h232q-8 -45 -23 -83l8 -2q35 56 68.5 79t78.5 23q66 0 109.5 -43.5t43.5 -108.5q0 -24 -5 -71l-32 -261h-232l28 226q3 20 3 31q0 35 -30 35q-23 0 -33 -15t-15 -59l-27 -218h-231z" />
    <glyph glyph-name="o" unicode="o" horiz-adv-x="637" 
d="M320 493q131 0 211 -68.5t80 -180.5q0 -110 -83 -183.5t-207 -73.5q-127 0 -209.5 70.5t-82.5 178.5q0 111 83 184t208 73zM318 169q28 0 46 21.5t18 53.5q0 28 -16.5 47t-41.5 19q-27 0 -46.5 -22t-19.5 -53q0 -29 17 -47.5t43 -18.5z" />
    <glyph glyph-name="p" unicode="p" horiz-adv-x="645" 
d="M82 467h232q-8 -38 -19 -71l9 -4q28 51 57 71.5t74 20.5q77 0 131 -68t54 -165q0 -106 -64 -185t-150 -79q-113 0 -146 96l-8 -3q3 -41 3 -57q0 -30 -5 -77l-22 -175h-232zM331 163q27 0 44 21t17 54q0 28 -15.5 46t-38.5 18q-25 0 -43.5 -22.5t-18.5 -54.5q0 -28 15 -45
t40 -17z" />
    <glyph glyph-name="q" unicode="q" horiz-adv-x="637" 
d="M383 467h236l-86 -696h-231l24 195q8 61 32 119l-9 4q-42 -102 -142 -102q-78 0 -130 63.5t-52 158.5q0 111 66.5 192.5t156.5 81.5q98 0 137 -98l9 3q-9 33 -11 79zM308 169q26 0 44.5 20.5t18.5 50.5q0 28 -15 45.5t-39 17.5q-27 0 -45 -20.5t-18 -50.5
q0 -28 15.5 -45.5t38.5 -17.5z" />
    <glyph glyph-name="r" unicode="r" horiz-adv-x="430" 
d="M425 484q10 0 29 -4l-28 -230q-33 17 -54 17q-85 0 -102 -130l-17 -137h-233l57 467h234q-9 -41 -26 -83l10 -5q32 58 61.5 81.5t68.5 23.5z" />
    <glyph glyph-name="s" unicode="s" horiz-adv-x="476" 
d="M271 493q91 0 198 -42l-57 -141q-53 39 -108 39q-40 0 -40 -24q0 -20 27 -26l42 -10q52 -11 82 -45.5t30 -82.5q0 -77 -64.5 -125.5t-165.5 -48.5q-78 0 -167 34q-6 3 -22 9.5t-26 10.5l56 141q74 -49 137 -49q37 0 37 25q0 24 -52 36q-70 16 -98.5 43.5t-28.5 78.5
q0 77 62.5 127t157.5 50z" />
    <glyph glyph-name="t" unicode="t" horiz-adv-x="353" 
d="M362 288l-56 6l-36 -294h-231l36 294l-60 -6l23 183l57 -10l21 164h231l-20 -164l57 6z" />
    <glyph glyph-name="u" unicode="u" horiz-adv-x="633" 
d="M383 467h232l-32 -257q-8 -66 -24.5 -101.5t-52.5 -64.5q-73 -57 -191 -57q-128 0 -198.5 52t-70.5 147q0 24 3 54l28 227h232l-28 -227q-4 -31 -4 -41q0 -15 9.5 -25t24.5 -10q21 0 30 13.5t13 53.5z" />
    <glyph glyph-name="v" unicode="v" horiz-adv-x="565" 
d="M344 467h260l-271 -467h-195l-119 467h232l11 -138q2 -36 2 -51q0 -16 -3 -65h9q10 73 30 130z" />
    <glyph glyph-name="w" unicode="w" horiz-adv-x="826" 
d="M609 467h256l-247 -467h-188l-11 85q-9 69 -9 112q0 3 0.5 15t0.5 20l-8 2q-23 -89 -36 -121l-47 -113h-186l-115 467h235l11 -120q3 -27 3 -56q0 -17 -3 -77l10 -1q7 39 14 66q1 3 13 41l47 147h165l19 -135q6 -49 9 -116h9q5 60 23 124z" />
    <glyph glyph-name="x" unicode="x" horiz-adv-x="633" 
d="M374 467h282l-211 -234l162 -233h-255l-20 43q-15 32 -17 59l-7 1q-5 -15 -25 -48l-35 -55h-278l217 246l-155 221h263l16 -49q7 -20 9 -44l9 1q7 23 18 43z" />
    <glyph glyph-name="y" unicode="y" horiz-adv-x="591" 
d="M381 467h249l-363 -696h-248l88 169q35 61 65 96l-141 431h238l20 -130q7 -43 7 -75q0 -24 -2 -48l10 -1q15 78 34 131z" />
    <glyph glyph-name="z" unicode="z" horiz-adv-x="515" 
d="M62 467h461l-4 -30l-144 -204q-23 -32 -57 -56l4 -11q22 11 58 11h107l-22 -177h-472l4 35l139 207q33 42 58 57l-5 9q-27 -15 -64 -15h-84z" />
    <glyph glyph-name="braceleft" unicode="{" horiz-adv-x="503" 
d="M324 420q-8 -70 -23 -99t-55 -54q26 -20 36 -39t10 -52q0 -14 -2 -36l-15 -123l-4 -37q-1 -8 -1 -20q0 -22 15 -29.5t59 -7.5q10 0 20 1l-14 -115l-34 -1l-32 -1h-12q-73 0 -104.5 25.5t-31.5 84.5q0 21 4 59l19 155q2 16 2 28q0 48 -46 58l13 110q48 9 57 45l6 23l4 35
l19 154q10 78 49 111.5t121 33.5q2 0 6 -0.5t6 -0.5l32 -1l33 -1l-14 -114h-21q-50 0 -65.5 -10t-19.5 -47l-2 -12z" />
    <glyph glyph-name="bar" unicode="|" 
d="M185 -250v1000h130v-1000h-130z" />
    <glyph glyph-name="braceright" unicode="}" horiz-adv-x="503" 
d="M208 141q6 51 21 76t54 51q-27 19 -36.5 38t-9.5 53q0 15 2 35l18 149l1 12q2 16 2 21q0 22 -15 29t-59 7h-20l14 114l34 1l32 1q2 0 5.5 0.5t5.5 0.5q73 0 105 -25.5t32 -84.5q0 -9 -2 -35l-22 -180q-2 -16 -2 -28q0 -49 46 -58l-13 -110q-48 -11 -57 -46l-6 -23l-2 -7
l-22 -181q-10 -78 -48.5 -111t-120.5 -33h-12l-32 1l-33 1l14 115q10 -1 21 -1q49 0 64.5 10.5t20.5 46.5l2 12z" />
    <glyph glyph-name="asciitilde" unicode="~" 
d="M158 256q-25 0 -39.5 -12t-33.5 -49l-71 47l7 17q26 65 59.5 93.5t84.5 28.5q34 0 104 -26q62 -23 86 -23q25 0 39.5 10.5t32.5 40.5l73 -43q-25 -54 -44.5 -78t-49.5 -40q-34 -16 -65 -16q-23 0 -102 28q-64 22 -81 22z" />
    <glyph glyph-name="uni00A0" unicode="&#xa0;" horiz-adv-x="233" 
 />
    <glyph glyph-name="exclamdown" unicode="&#xa1;" horiz-adv-x="411" 
d="M277 -230h-242l50 405h242zM236 226q-56 0 -95 32.5t-39 79.5q0 46 38.5 78.5t92.5 32.5t93.5 -33.5t39.5 -80.5t-37.5 -78t-92.5 -31z" />
    <glyph glyph-name="cent" unicode="&#xa2;" horiz-adv-x="707" 
d="M504 670l-10 -84q38 -3 71 -19l-28 -193q-32 41 -79 41q-32 0 -53 -21q-21 -22 -21 -53q0 -29 19 -46q20 -18 52 -18q43 0 79 34l-34 -191q-34 -15 -66 -18l-12 -92h-104l12 92q-59 12 -103 53q-69 65 -69 174q0 117 77 192q63 61 160 70l9 79h100z" />
    <glyph glyph-name="sterling" unicode="&#xa3;" horiz-adv-x="707" 
d="M474 162h126q-4 -82 -53 -131q-44 -44 -131 -44q-58 0 -105 20l-39 16q-39 16 -54 16q-25 0 -40 -15q-9 -9 -14 -24h-113q5 62 40 111q32 45 84 65q4 13 7 67h-120l15 110h83q-20 53 -20 105q0 89 63 152q72 72 188 72q114 0 174 -59q51 -51 51 -136q0 -27 -6 -59h-154
q3 12 3 32q0 37 -18 56q-17 17 -43 17q-33 0 -53 -20q-22 -22 -22 -58q0 -18 7.5 -45.5t10.5 -56.5h133l-15 -110h-118q0 -51 -20 -81q8 -4 24 -11t21.5 -9.5t16.5 -7t16.5 -5.5t12.5 -2.5t14 -1.5q22 0 33 10q9 8 15 27z" />
    <glyph glyph-name="currency" unicode="&#xa4;" horiz-adv-x="667" 
d="M109 67l-70 70l103 103q-44 65 -44 138q0 72 44 137l-104 104l71 71l104 -104q67 44 140 44q70 0 137 -43l103 102l70 -70l-102 -102q45 -71 45 -140q0 -71 -43 -136l103 -103l-70 -71l-103 103q-67 -45 -142 -45q-70 0 -140 44zM488 377q0 57 -40 97t-96 40t-96 -40
t-40 -97q0 -56 40 -96t96 -40t96 40t40 96z" />
    <glyph glyph-name="yen" unicode="&#xa5;" horiz-adv-x="707" 
d="M456 247h206l-13 -108h-206l-17 -139h-240l17 139h-196l13 108h196l6 42l-24 50h-167l14 108h102l-103 220h265l34 -109q9 -33 13 -76h8q8 29 25 63l61 122h291l-160 -220h106l-14 -108h-171l-41 -56z" />
    <glyph glyph-name="brokenbar" unicode="&#xa6;" 
d="M185 337v413h130v-413h-130zM185 -250v413h130v-413h-130z" />
    <glyph glyph-name="section" unicode="&#xa7;" horiz-adv-x="707" 
d="M655 541q0 -15 -1 -28h-170v11q0 37 -21.5 58.5t-57.5 21.5q-28 0 -45 -13.5t-17 -36.5t16.5 -39t56.5 -30l47 -16q99 -35 138 -93q29 -44 29 -90q0 -49 -29 -90.5t-79 -61.5q27 -33 38 -62t11 -69q0 -93 -67 -144.5t-187 -51.5q-128 0 -198.5 54t-76.5 157h189v-7
q0 -32 23 -53.5t57 -21.5q29 0 46 15t17 42t-19.5 44t-66.5 32q-70 22 -94.5 33.5t-47.5 33.5q-52 40 -52 121q0 95 106 151q-53 59 -53 132q0 88 71.5 138.5t194.5 50.5q119 0 180 -53q29 -26 45.5 -62t16.5 -73zM432 271q0 29 -19.5 47.5t-50.5 18.5q-34 0 -55.5 -18.5
t-21.5 -47.5t20.5 -48.5t50.5 -19.5q32 0 54 20t22 48z" />
    <glyph glyph-name="dieresis" unicode="&#xa8;" 
d="M75 642q0 43 30 73t72 30q43 0 73 -30t30 -73q0 -42 -30 -72t-73 -30q-42 0 -72 30t-30 72zM322 642q0 43 30 73t72 30q43 0 73 -30t30 -73q0 -42 -30 -72t-73 -30q-42 0 -72 30t-30 72z" />
    <glyph glyph-name="copyright" unicode="&#xa9;" horiz-adv-x="760" 
d="M46 334q0 144 102 246t247 102q142 0 243.5 -102.5t101.5 -246.5t-101.5 -246t-244.5 -102q-144 0 -246 102t-102 247zM660 334q0 114 -78 194.5t-188 80.5q-111 0 -189.5 -80.5t-78.5 -195.5q0 -114 78.5 -195t189.5 -81q110 0 188 81t78 196zM526 303l-3 -158
q-44 -18 -112 -18q-89 0 -150.5 59t-61.5 144q0 88 62.5 148.5t152.5 60.5q54 0 105 -15l4 -2l3 -160l-10 8q-43 32 -79 32q-30 0 -51 -20t-21 -48q0 -29 21.5 -49t52.5 -20q40 0 77 29z" />
    <glyph glyph-name="ordfeminine" unicode="&#xaa;" horiz-adv-x="381" 
d="M249 427h-4q-15 -19 -33 -29q-21 -12 -56 -12q-44 0 -72 25q-36 32 -36 93q0 75 49 124q39 39 98 39q28 0 48 -12q17 -11 27 -27q-1 3 -1 14v5l2 12h141l-33 -266h-140l1 9q1 9 9 25zM364 267h-339l11 92h339zM192 520q0 -11 7 -18q8 -8 24 -8q18 0 27 11q10 10 10 26
q0 12 -9 21q-9 7 -22 7q-18 0 -29 -14q-8 -11 -8 -25z" />
    <glyph glyph-name="guillemotleft" unicode="&#xab;" horiz-adv-x="544" 
d="M276 67l-96 -62l-144 222l192 230l85 -71l-142 -161zM487 67l-96 -62l-144 222l192 230l85 -71l-142 -161z" />
    <glyph glyph-name="logicalnot" unicode="&#xac;" 
d="M455 0h-130v150h-303v117h433v-267z" />
    <glyph glyph-name="uni00AD" unicode="&#xad;" horiz-adv-x="415" 
d="M356 175h-315l23 180h315z" />
    <glyph glyph-name="registered" unicode="&#xae;" horiz-adv-x="772" 
d="M426 -22q-145 0 -248.5 103t-103.5 250q0 145 103 248t249 103t249.5 -102.5t103.5 -248.5q0 -147 -103.5 -250t-249.5 -103zM427 610q-111 0 -192 -83.5t-81 -196.5q0 -116 80.5 -198t192.5 -82q113 0 192.5 82t79.5 198q0 115 -80 197.5t-192 82.5zM396 158h-138v353
h170q72 0 113 -33.5t41 -91.5q0 -36 -16.5 -57t-52.5 -35l5 -6l10 -8l87 -122h-163l-56 102v-102zM395 409v-52h15q32 0 32 25q0 12 -7.5 19.5t-19.5 7.5h-20z" />
    <glyph glyph-name="macron" unicode="&#xaf;" 
d="M458 546h-340l12 100h340z" />
    <glyph glyph-name="degree" unicode="&#xb0;" horiz-adv-x="499" 
d="M286 363q-66 0 -111 45t-45 108q0 62 45 106q46 45 108 45q64 0 110 -44q45 -43 45 -107q0 -63 -45 -108t-107 -45zM214 515q0 -28 20.5 -48t49.5 -20t49.5 20t20.5 48t-20.5 48t-49.5 20t-49.5 -20t-20.5 -48z" />
    <glyph glyph-name="plusminus" unicode="&#xb1;" 
d="M38 357v120h151v153h130v-153h152v-120h-152v-154h-130v154h-151zM38 50v120h433v-120h-433z" />
    <glyph glyph-name="twosuperior" unicode="&#xb2;" horiz-adv-x="506" 
d="M436 399h38l-15 -128h-389l146 130q68 59 77 68q33 31 33 59q0 15 -8 25q-9 9 -24 9q-22 0 -33 -17q-8 -11 -10 -36h-143q5 75 59 123q55 51 142 51q75 0 124 -37q53 -41 53 -105q0 -49 -35 -84t-105 -63l4 -9q43 14 86 14z" />
    <glyph glyph-name="threesuperior" unicode="&#xb3;" horiz-adv-x="466" 
d="M383 484v-6q24 -9 39 -25q21 -22 21 -58q0 -52 -36 -87q-45 -45 -137 -45q-114 0 -160 43q-44 40 -45 107h148q0 -23 8 -31q9 -11 28 -11q18 0 28 11q10 10 10 24q0 15 -10 24t-28 9q-8 0 -11 -1l10 83q8 -2 11 -2q16 0 24 10t8 22q0 14 -9 23q-7 7 -21 7q-12 0 -20 -8
q-11 -11 -13 -31h-138q10 60 56 102q45 39 136 39q79 0 121 -33q43 -33 43 -87q0 -34 -23 -57q-16 -16 -40 -22z" />
    <glyph glyph-name="acute" unicode="&#xb4;" 
d="M231 596l116 146l117 -73l-146 -128z" />
    <glyph glyph-name="mu" unicode="&#xb5;" horiz-adv-x="661" 
d="M219 -230h-223l85 697h232l-34 -278q0 -2 -0.5 -6t-0.5 -7q0 -16 7 -27q11 -17 35 -17t40 16q13 13 17 43l34 276h232l-57 -467h-223l1 9q0 5 11 51h-6q-9 -32 -25 -49q-15 -17 -41 -17q-24 0 -37 18q-12 17 -16 48h-6q3 -21 3 -47q0 -16 -1 -23z" />
    <glyph glyph-name="mu" unicode="&#x3bc;" horiz-adv-x="661" 
d="M219 -230h-223l85 697h232l-34 -278q0 -2 -0.5 -6t-0.5 -7q0 -16 7 -27q11 -17 35 -17t40 16q13 13 17 43l34 276h232l-57 -467h-223l1 9q0 5 11 51h-6q-9 -32 -25 -49q-15 -17 -41 -17q-24 0 -37 18q-12 17 -16 48h-6q3 -21 3 -47q0 -16 -1 -23z" />
    <glyph glyph-name="paragraph" unicode="&#xb6;" horiz-adv-x="691" 
d="M302 -95h-122l51 409h-5q-85 0 -129 46q-39 39 -39 109q0 85 54 137q64 61 211 61h348l-14 -110h-70l-80 -652h-122l80 652h-83z" />
    <glyph glyph-name="periodcentered" unicode="&#xb7;" horiz-adv-x="275" 
d="M153 452q57 0 96.5 -34t39.5 -83q0 -50 -41.5 -84.5t-100.5 -34.5q-58 0 -96.5 32t-38.5 80q0 50 42 87t99 37z" />
    <glyph glyph-name="cedilla" unicode="&#xb8;" 
d="M118 -180l134 135l106 -76l-140 -129z" />
    <glyph glyph-name="onesuperior" unicode="&#xb9;" horiz-adv-x="320" 
d="M96 674h204l-49 -400h-144l34 276l-61 -4z" />
    <glyph glyph-name="ordmasculine" unicode="&#xba;" horiz-adv-x="396" 
d="M260 667q73 0 116 -35q42 -34 42 -91q0 -60 -42 -100q-53 -53 -154 -53q-77 0 -122 40q-38 35 -38 84q0 58 40 100q53 55 158 55zM41 359h360l-12 -92h-361zM206 522q0 -13 7 -20q8 -8 24 -8q18 0 27 11q10 10 10 26q0 12 -9 21q-9 7 -22 7q-14 0 -25 -9q-12 -10 -12 -28
z" />
    <glyph glyph-name="guillemotright" unicode="&#xbb;" horiz-adv-x="544" 
d="M65 395l96 62l141 -222l-192 -230l-84 71l141 159zM278 395l96 62l141 -222l-192 -230l-84 71l141 159z" />
    <glyph glyph-name="onequarter" unicode="&#xbc;" horiz-adv-x="917" 
d="M72 667h204l-49 -400h-144l34 276l-61 -4zM568 667h130l-470 -667h-131zM637 186h43l6 51q5 32 8 43l-5 3q-25 -31 -32 -38q-13 -13 -25.5 -27t-18.5 -20t-14 -12l1 -4q17 4 37 4zM799 81l-7 -81h-146l14 81l-206 -5l13 106l193 218h181l-26 -214l52 5l-14 -114z" />
    <glyph glyph-name="onehalf" unicode="&#xbd;" horiz-adv-x="920" 
d="M72 667h204l-49 -400h-144l34 276l-61 -4zM820 128h38l-15 -128h-389l146 130q68 59 77 68q33 31 33 59q0 15 -8 25q-9 9 -24 9q-22 0 -33 -17q-8 -11 -10 -36h-143q5 75 59 123q55 51 142 51q75 0 124 -37q53 -41 53 -105q0 -49 -35 -84t-105 -63l4 -9q43 14 86 14z
M568 667h130l-470 -667h-131z" />
    <glyph glyph-name="threequarters" unicode="&#xbe;" horiz-adv-x="1036" 
d="M374 483v-6q24 -9 39 -25q21 -22 21 -58q0 -52 -36 -87q-45 -45 -143 -45q-108 0 -154 43q-44 40 -45 107h148q0 -23 8 -31q9 -11 28 -11q18 0 28 11q10 10 10 24q0 15 -10 24q-11 9 -28 9q-8 0 -11 -1l10 83q8 -2 11 -2q16 0 24 10t8 22q0 14 -9 23q-7 7 -21 7
q-12 0 -20 -8q-11 -11 -13 -31h-138q10 60 56 102q46 39 130 39q83 0 127 -33q43 -33 43 -87q0 -34 -23 -57q-16 -16 -40 -22zM703 667h130l-470 -667h-131zM756 186h43l6 51q5 32 8 43l-5 3q-25 -31 -32 -38q-13 -13 -25.5 -27t-18.5 -20t-14 -12l1 -4q17 4 37 4zM918 81
l-7 -81h-146l14 81l-206 -5l13 106l193 218h181l-26 -214l52 5l-14 -114z" />
    <glyph glyph-name="questiondown" unicode="&#xbf;" horiz-adv-x="623" 
d="M391 179l-21 -151q-24 8 -48 8q-41 0 -64 -23q-20 -20 -20 -50q0 -20 12 -32t34 -12q23 0 35 16q11 15 11 41h229q-12 -101 -90 -163q-71 -55 -196 -55q-133 0 -201 66q-57 55 -57 146q0 111 92 171q68 45 198 45q53 0 86 -7zM334 226q-59 0 -95 34t-36 79q0 43 36 76.5
t96 33.5t96 -34t36 -77q0 -44 -37.5 -78t-95.5 -34z" />
    <glyph glyph-name="Agrave" unicode="&#xc0;" horiz-adv-x="708" 
d="M428 89h-164l-32 -89h-260l308 667h276l124 -667h-247zM365 362l-45 -121h92l-10 121q-2 22 -2 47q0 20 3 53h-8q-13 -55 -30 -100zM280 843l117 73l126 -137l-86 -55z" />
    <glyph glyph-name="Aacute" unicode="&#xc1;" horiz-adv-x="708" 
d="M428 89h-164l-32 -89h-260l308 667h276l124 -667h-247zM365 362l-45 -121h92l-10 121q-2 22 -2 47q0 20 3 53h-8q-13 -55 -30 -100zM326 779l127 137l117 -73l-157 -119z" />
    <glyph glyph-name="Acircumflex" unicode="&#xc2;" horiz-adv-x="708" 
d="M428 89h-164l-32 -89h-260l308 667h276l124 -667h-247zM365 362l-45 -121h92l-10 121q-2 22 -2 47q0 20 3 53h-8q-13 -55 -30 -100zM295 716l-55 101l187 101l161 -115l-66 -87l-98 70z" />
    <glyph glyph-name="Atilde" unicode="&#xc3;" horiz-adv-x="708" 
d="M428 89h-164l-32 -89h-260l308 667h276l124 -667h-247zM365 362l-45 -121h92l-10 121q-2 22 -2 47q0 20 3 53h-8q-13 -55 -30 -100zM463 829q12 0 19 5.5t15 22.5l83 -42q-34 -51 -57.5 -69.5t-54.5 -18.5q-19 0 -58 13l-34 12q-21 6 -28 6q-27 0 -39 -31l-90 28
q33 56 64.5 79t74.5 23q25 0 70 -18q26 -10 35 -10z" />
    <glyph glyph-name="Adieresis" unicode="&#xc4;" horiz-adv-x="708" 
d="M428 89h-164l-32 -89h-260l308 667h276l124 -667h-247zM365 362l-45 -121h92l-10 121q-2 22 -2 47q0 20 3 53h-8q-13 -55 -30 -100zM203 833q0 42 29 71t71 29t71 -29t29 -71t-29 -71t-71 -29t-71 29t-29 71zM450 833q0 42 29 71t71 29t71 -29t29 -71t-29 -71t-71 -29
t-71 29t-29 71z" />
    <glyph glyph-name="Aring" unicode="&#xc5;" horiz-adv-x="708" 
d="M428 89h-164l-32 -89h-260l308 667h276l124 -667h-247zM365 362l-45 -121h92l-10 121q-2 22 -2 47q0 20 3 53h-8q-13 -55 -30 -100zM564 826q0 -51 -40 -81q-36 -28 -104 -28t-103 27q-41 31 -41 82q0 49 40 80q36 28 104 28q69 0 104 -28q40 -32 40 -80zM420 860
q-22 0 -35 -8q-15 -10 -15 -28q0 -16 15 -25q13 -8 35 -8t36 8t14 27q0 16 -14 26q-13 8 -36 8z" />
    <glyph glyph-name="AE" unicode="&#xc6;" horiz-adv-x="920" 
d="M289 667h478l31 -175h-203l12 -71h204l29 -170h-203l13 -70h203l32 -181h-446l-4 88h-165l-32 -88h-259zM375 370l-48 -131h93l-12 131q-1 9 -1 32q0 25 4 57l-11 2q-8 -45 -25 -91z" />
    <glyph glyph-name="Ccedilla" unicode="&#xc7;" horiz-adv-x="582" 
d="M415 683q87 0 173 -31l-20 -237q-65 52 -133 52q-60 0 -103.5 -44t-43.5 -104q0 -51 37 -85.5t92 -34.5q71 0 131 57l-29 -243q-89 -30 -152 -30q-139 0 -229.5 94t-90.5 237q0 159 105 264t263 105zM198 -190l152 147l116 -82l-158 -143z" />
    <glyph glyph-name="Egrave" unicode="&#xc8;" horiz-adv-x="549" 
d="M121 667h438l-21 -174h-197l-9 -73h180l-20 -165h-180l-9 -76h204l-22 -179h-446zM200 843l117 73l126 -137l-86 -55z" />
    <glyph glyph-name="Eacute" unicode="&#xc9;" horiz-adv-x="549" 
d="M121 667h438l-21 -174h-197l-9 -73h180l-20 -165h-180l-9 -76h204l-22 -179h-446zM266 779l127 137l117 -73l-157 -119z" />
    <glyph glyph-name="Ecircumflex" unicode="&#xca;" horiz-adv-x="549" 
d="M121 667h438l-21 -174h-197l-9 -73h180l-20 -165h-180l-9 -76h204l-22 -179h-446zM225 716l-55 101l187 101l161 -115l-66 -87l-98 70z" />
    <glyph glyph-name="Edieresis" unicode="&#xcb;" horiz-adv-x="549" 
d="M121 667h438l-21 -174h-197l-9 -73h180l-20 -165h-180l-9 -76h204l-22 -179h-446zM138 833q0 42 29 71t71 29t71 -29t29 -71t-29 -71t-71 -29t-71 29t-29 71zM385 833q0 42 29 71t71 29t71 -29t29 -71t-29 -71t-71 -29t-71 29t-29 71z" />
    <glyph glyph-name="Igrave" unicode="&#xcc;" horiz-adv-x="379" 
d="M121 667h245l-82 -667h-245zM110 843l117 73l126 -137l-86 -55z" />
    <glyph glyph-name="Iacute" unicode="&#xcd;" horiz-adv-x="379" 
d="M121 667h245l-82 -667h-245zM166 779l127 137l117 -73l-157 -119z" />
    <glyph glyph-name="Icircumflex" unicode="&#xce;" horiz-adv-x="379" 
d="M121 667h245l-82 -667h-245zM130 716l-55 101l187 101l161 -115l-66 -87l-98 70z" />
    <glyph glyph-name="Idieresis" unicode="&#xcf;" horiz-adv-x="379" 
d="M121 667h245l-82 -667h-245zM38 833q0 42 29 71t71 29t71 -29t29 -71t-29 -71t-71 -29t-71 29t-29 71zM285 833q0 42 29 71t71 29t71 -29t29 -71t-29 -71t-71 -29t-71 29t-29 71z" />
    <glyph glyph-name="Eth" unicode="&#xd0;" horiz-adv-x="770" 
d="M65 0l34 280h-84l14 120h85l33 267h226q176 0 275.5 -85.5t99.5 -237.5q0 -80 -32 -148.5t-90 -114.5q-55 -44 -122 -62.5t-172 -18.5h-267zM394 471h-30l-10 -71h84l-14 -120h-83l-10 -82h34q60 0 102 44t42 108q0 52 -32.5 86.5t-82.5 34.5z" />
    <glyph glyph-name="Ntilde" unicode="&#xd1;" horiz-adv-x="812" 
d="M554 667h245l-82 -667h-234l-116 230q-34 69 -53 135l-4 12h-8q4 -40 4 -80q0 -41 -3 -67l-21 -230h-243l82 667h243l118 -251q22 -47 42 -118l6 -22l10 1l-2 22q-5 62 -5 92q0 44 4 79zM501 829q12 0 19 5.5t15 22.5l83 -42q-34 -51 -57.5 -69.5t-54.5 -18.5
q-19 0 -58 13l-34 12q-21 6 -28 6q-27 0 -39 -31l-90 28q33 56 64.5 79t74.5 23q25 0 70 -18q26 -10 35 -10z" />
    <glyph glyph-name="Ograve" unicode="&#xd2;" horiz-adv-x="808" 
d="M675 591q111 -91 111 -252q0 -152 -104.5 -254t-260.5 -102q-158 0 -265.5 98t-107.5 243q0 151 106.5 255t261.5 104q150 0 259 -92zM410 193q57 0 94.5 40.5t37.5 101.5q0 53 -34 90t-84 37q-55 0 -93.5 -41t-38.5 -99q0 -56 33.5 -92.5t84.5 -36.5zM280 843l117 73
l126 -137l-86 -55z" />
    <glyph glyph-name="Oacute" unicode="&#xd3;" horiz-adv-x="808" 
d="M675 591q111 -91 111 -252q0 -152 -104.5 -254t-260.5 -102q-158 0 -265.5 98t-107.5 243q0 151 106.5 255t261.5 104q150 0 259 -92zM410 193q57 0 94.5 40.5t37.5 101.5q0 53 -34 90t-84 37q-55 0 -93.5 -41t-38.5 -99q0 -56 33.5 -92.5t84.5 -36.5zM346 779l127 137
l117 -73l-157 -119z" />
    <glyph glyph-name="Ocircumflex" unicode="&#xd4;" horiz-adv-x="808" 
d="M675 591q111 -91 111 -252q0 -152 -104.5 -254t-260.5 -102q-158 0 -265.5 98t-107.5 243q0 151 106.5 255t261.5 104q150 0 259 -92zM410 193q57 0 94.5 40.5t37.5 101.5q0 53 -34 90t-84 37q-55 0 -93.5 -41t-38.5 -99q0 -56 33.5 -92.5t84.5 -36.5zM305 716l-55 101
l187 101l161 -115l-66 -87l-98 70z" />
    <glyph glyph-name="Otilde" unicode="&#xd5;" horiz-adv-x="808" 
d="M675 591q111 -91 111 -252q0 -152 -104.5 -254t-260.5 -102q-158 0 -265.5 98t-107.5 243q0 151 106.5 255t261.5 104q150 0 259 -92zM410 193q57 0 94.5 40.5t37.5 101.5q0 53 -34 90t-84 37q-55 0 -93.5 -41t-38.5 -99q0 -56 33.5 -92.5t84.5 -36.5zM473 829
q12 0 19 5.5t15 22.5l83 -42q-34 -51 -57.5 -69.5t-54.5 -18.5q-19 0 -58 13l-34 12q-21 6 -28 6q-27 0 -39 -31l-90 28q33 56 64.5 79t74.5 23q25 0 70 -18q26 -10 35 -10z" />
    <glyph glyph-name="Odieresis" unicode="&#xd6;" horiz-adv-x="808" 
d="M675 591q111 -91 111 -252q0 -152 -104.5 -254t-260.5 -102q-158 0 -265.5 98t-107.5 243q0 151 106.5 255t261.5 104q150 0 259 -92zM410 193q57 0 94.5 40.5t37.5 101.5q0 53 -34 90t-84 37q-55 0 -93.5 -41t-38.5 -99q0 -56 33.5 -92.5t84.5 -36.5zM208 833
q0 42 29 71t71 29t71 -29t29 -71t-29 -71t-71 -29t-71 29t-29 71zM455 833q0 42 29 71t71 29t71 -29t29 -71t-29 -71t-71 -29t-71 29t-29 71z" />
    <glyph glyph-name="multiply" unicode="&#xd7;" 
d="M132 173l-85 85l125 124l-125 125l92 92l125 -125l124 124l84 -85l-123 -124l126 -126l-92 -92l-126 126z" />
    <glyph glyph-name="Oslash" unicode="&#xd8;" horiz-adv-x="848" 
d="M3 34l120 107q-55 78 -55 183q0 149 105 253q108 106 263 106q126 0 223 -64l124 107l88 -95l-118 -104q53 -83 53 -188q0 -149 -103 -252q-104 -104 -262 -104q-132 0 -227 67l-119 -111zM430 193q55 0 90 35q19 19 30.5 49t11.5 58q0 57 -37 94q-33 33 -81 33
q-54 0 -92 -40q-40 -40 -40 -100q0 -64 41 -100q32 -29 77 -29z" />
    <glyph glyph-name="Ugrave" unicode="&#xd9;" horiz-adv-x="758" 
d="M500 667h245l-45 -369q-14 -107 -31.5 -152t-61.5 -85q-87 -78 -226 -78q-147 0 -236 72q-75 61 -75 175q0 26 3 53l48 384h245l-45 -369q-5 -40 -5 -49q0 -62 60 -62q34 0 52 23.5t26 78.5zM270 843l117 73l126 -137l-86 -55z" />
    <glyph glyph-name="Uacute" unicode="&#xda;" horiz-adv-x="758" 
d="M500 667h245l-45 -369q-14 -107 -31.5 -152t-61.5 -85q-87 -78 -226 -78q-147 0 -236 72q-75 61 -75 175q0 26 3 53l48 384h245l-45 -369q-5 -40 -5 -49q0 -62 60 -62q34 0 52 23.5t26 78.5zM366 779l127 137l117 -73l-157 -119z" />
    <glyph glyph-name="Ucircumflex" unicode="&#xdb;" horiz-adv-x="758" 
d="M500 667h245l-45 -369q-14 -107 -31.5 -152t-61.5 -85q-87 -78 -226 -78q-147 0 -236 72q-75 61 -75 175q0 26 3 53l48 384h245l-45 -369q-5 -40 -5 -49q0 -62 60 -62q34 0 52 23.5t26 78.5zM320 716l-55 101l187 101l161 -115l-66 -87l-98 70z" />
    <glyph glyph-name="Udieresis" unicode="&#xdc;" horiz-adv-x="758" 
d="M500 667h245l-45 -369q-14 -107 -31.5 -152t-61.5 -85q-87 -78 -226 -78q-147 0 -236 72q-75 61 -75 175q0 26 3 53l48 384h245l-45 -369q-5 -40 -5 -49q0 -62 60 -62q34 0 52 23.5t26 78.5zM213 833q0 42 29 71t71 29t71 -29t29 -71t-29 -71t-71 -29t-71 29t-29 71z
M460 833q0 42 29 71t71 29t71 -29t29 -71t-29 -71t-71 -29t-71 29t-29 71z" />
    <glyph glyph-name="Yacute" unicode="&#xdd;" horiz-adv-x="684" 
d="M745 667l-281 -384l-35 -283h-240l36 289l-178 378h265l34 -109q10 -33 13 -76h9q8 30 24 63l62 122h291zM326 779l127 137l117 -73l-157 -119z" />
    <glyph glyph-name="Thorn" unicode="&#xde;" horiz-adv-x="655" 
d="M388 116h-92l-15 -116h-242l82 667h242l-11 -87h37q144 0 214 -70q62 -62 62 -156q0 -51 -19.5 -96.5t-50.5 -75.5q-68 -66 -207 -66zM355 406h-25l-15 -124h22q52 0 75 23q17 17 17 50q0 24 -14 37q-16 14 -60 14z" />
    <glyph glyph-name="germandbls" unicode="&#xdf;" horiz-adv-x="648" 
d="M612 541q0 -100 -99 -150q108 -41 108 -159q0 -74 -29.5 -128t-83.5 -78q-62 -27 -167 -27q-5 0 -24 0.5t-32 0.5l15 122q9 -1 24 -1q39 0 56 34t17 111q0 35 -15 49.5t-56 20.5l16 127q20 -3 29 -3q22 0 36 12t14 32q0 22 -14 35.5t-35 13.5q-31 0 -44.5 -21.5
t-21.5 -84.5l-55 -447h-231l59 480q10 79 25.5 121t47.5 71q74 68 207 68q116 0 184.5 -53.5t68.5 -145.5z" />
    <glyph glyph-name="agrave" unicode="&#xe0;" horiz-adv-x="652" 
d="M403 467h230l-58 -467h-229q7 30 25 83l-7 3q-30 -53 -64 -76t-80 -23q-79 0 -137 65t-58 153q0 111 70.5 194.5t163.5 83.5q56 0 88.5 -23t52.5 -77l8 3q-5 41 -5 71v10zM316 164q28 0 46.5 21t18.5 53q0 26 -15.5 43.5t-39.5 17.5q-27 0 -47 -22.5t-20 -53.5
q0 -26 16 -42.5t41 -16.5zM251 669l117 73l115 -146l-86 -55z" />
    <glyph glyph-name="aacute" unicode="&#xe1;" horiz-adv-x="652" 
d="M403 467h230l-58 -467h-229q7 30 25 83l-7 3q-30 -53 -64 -76t-80 -23q-79 0 -137 65t-58 153q0 111 70.5 194.5t163.5 83.5q56 0 88.5 -23t52.5 -77l8 3q-5 41 -5 71v10zM316 164q28 0 46.5 21t18.5 53q0 26 -15.5 43.5t-39.5 17.5q-27 0 -47 -22.5t-20 -53.5
q0 -26 16 -42.5t41 -16.5zM281 596l116 146l117 -73l-146 -128z" />
    <glyph glyph-name="acircumflex" unicode="&#xe2;" horiz-adv-x="652" 
d="M403 467h230l-58 -467h-229q7 30 25 83l-7 3q-30 -53 -64 -76t-80 -23q-79 0 -137 65t-58 153q0 111 70.5 194.5t163.5 83.5q56 0 88.5 -23t52.5 -77l8 3q-5 41 -5 71v10zM316 164q28 0 46.5 21t18.5 53q0 26 -15.5 43.5t-39.5 17.5q-27 0 -47 -22.5t-20 -53.5
q0 -26 16 -42.5t41 -16.5zM261 533l-55 101l187 101l161 -115l-66 -87l-98 70z" />
    <glyph glyph-name="atilde" unicode="&#xe3;" horiz-adv-x="652" 
d="M403 467h230l-58 -467h-229q7 30 25 83l-7 3q-30 -53 -64 -76t-80 -23q-79 0 -137 65t-58 153q0 111 70.5 194.5t163.5 83.5q56 0 88.5 -23t52.5 -77l8 3q-5 41 -5 71v10zM316 164q28 0 46.5 21t18.5 53q0 26 -15.5 43.5t-39.5 17.5q-27 0 -47 -22.5t-20 -53.5
q0 -26 16 -42.5t41 -16.5zM458 673l74 -38q-48 -91 -109 -91q-22 0 -57 17q-22 11 -37 11q-27 0 -46 -32l-77 40q38 50 63.5 68.5t53.5 18.5q22 0 52 -13l23 -10q13 -5 20 -5q17 0 34 25z" />
    <glyph glyph-name="adieresis" unicode="&#xe4;" horiz-adv-x="652" 
d="M403 467h230l-58 -467h-229q7 30 25 83l-7 3q-30 -53 -64 -76t-80 -23q-79 0 -137 65t-58 153q0 111 70.5 194.5t163.5 83.5q56 0 88.5 -23t52.5 -77l8 3q-5 41 -5 71v10zM316 164q28 0 46.5 21t18.5 53q0 26 -15.5 43.5t-39.5 17.5q-27 0 -47 -22.5t-20 -53.5
q0 -26 16 -42.5t41 -16.5zM145 642q0 43 30 73t72 30q43 0 73 -30t30 -73q0 -42 -30 -72t-73 -30q-42 0 -72 30t-30 72zM392 642q0 43 30 73t72 30q43 0 73 -30t30 -73q0 -42 -30 -72t-73 -30q-42 0 -72 30t-30 72z" />
    <glyph glyph-name="aring" unicode="&#xe5;" horiz-adv-x="652" 
d="M403 467h230l-58 -467h-229q7 30 25 83l-7 3q-30 -53 -64 -76t-80 -23q-79 0 -137 65t-58 153q0 111 70.5 194.5t163.5 83.5q56 0 88.5 -23t52.5 -77l8 3q-5 41 -5 71v10zM316 164q28 0 46.5 21t18.5 53q0 26 -15.5 43.5t-39.5 17.5q-27 0 -47 -22.5t-20 -53.5
q0 -26 16 -42.5t41 -16.5zM510 645q0 -51 -40 -81q-36 -28 -104 -28t-103 27q-41 31 -41 82q0 49 40 80q36 28 104 28q69 0 104 -28q40 -32 40 -80zM366 679q-22 0 -35 -8q-15 -10 -15 -28q0 -16 15 -25q13 -8 35 -8t36 8t14 27q0 16 -14 26q-13 8 -36 8z" />
    <glyph glyph-name="ae" unicode="&#xe6;" horiz-adv-x="945" 
d="M913 203h-331q-1 -5 -1 -16q0 -28 14.5 -45t37.5 -17q21 0 34 11q9 9 16 27h222q-25 -80 -95 -127q-72 -49 -172 -49q-132 0 -208 73q-39 -41 -83 -57q-43 -16 -110 -16q-102 0 -158 43q-60 46 -60 124q0 62 44 104q53 51 153 51q49 0 85 -14q39 -16 63 -41q3 15 3 31
q0 43 -38 66q-31 19 -89 19q-88 0 -178 -46l17 133q84 36 180 36q130 0 191 -67q70 67 194 67q127 0 203 -78q70 -73 70 -171q0 -22 -4 -41zM295 97q34 0 55 14q23 15 23 40q0 24 -20 38t-60 14q-38 0 -56 -13q-20 -15 -20 -40q0 -24 21 -39q19 -14 57 -14zM592 299h108
q0 25 -13 43.5t-37 18.5t-40 -17.5t-18 -44.5z" />
    <glyph glyph-name="ccedilla" unicode="&#xe7;" horiz-adv-x="437" 
d="M300 493q59 0 139 -26l-29 -196q-36 42 -82 42q-33 0 -53 -22t-20 -58q0 -32 18 -50.5t50 -18.5q41 0 78 33l-34 -192q-60 -18 -105 -18q-104 0 -169.5 65t-65.5 168q0 122 75.5 197.5t197.5 75.5zM118 -180l134 135l106 -76l-140 -129z" />
    <glyph glyph-name="egrave" unicode="&#xe8;" horiz-adv-x="618" 
d="M587 202h-331q-1 -6 -1 -17q0 -29 14 -46t37 -17q34 0 50 40h222q-14 -40 -27 -61t-38 -43q-82 -71 -205 -71q-125 0 -202.5 67t-77.5 175q0 113 82.5 189t205.5 76q116 0 195.5 -70.5t79.5 -173.5q0 -6 -4 -48zM322 360q-47 0 -57 -62h108q-1 62 -51 62zM191 669l117 73
l115 -146l-86 -55z" />
    <glyph glyph-name="eacute" unicode="&#xe9;" horiz-adv-x="618" 
d="M587 202h-331q-1 -6 -1 -17q0 -29 14 -46t37 -17q34 0 50 40h222q-14 -40 -27 -61t-38 -43q-82 -71 -205 -71q-125 0 -202.5 67t-77.5 175q0 113 82.5 189t205.5 76q116 0 195.5 -70.5t79.5 -173.5q0 -6 -4 -48zM322 360q-47 0 -57 -62h108q-1 62 -51 62zM241 596
l116 146l117 -73l-146 -128z" />
    <glyph glyph-name="ecircumflex" unicode="&#xea;" horiz-adv-x="618" 
d="M587 202h-331q-1 -6 -1 -17q0 -29 14 -46t37 -17q34 0 50 40h222q-14 -40 -27 -61t-38 -43q-82 -71 -205 -71q-125 0 -202.5 67t-77.5 175q0 113 82.5 189t205.5 76q116 0 195.5 -70.5t79.5 -173.5q0 -6 -4 -48zM322 360q-47 0 -57 -62h108q-1 62 -51 62zM200 533
l-55 101l187 101l161 -115l-66 -87l-98 70z" />
    <glyph glyph-name="edieresis" unicode="&#xeb;" horiz-adv-x="618" 
d="M587 202h-331q-1 -6 -1 -17q0 -29 14 -46t37 -17q34 0 50 40h222q-14 -40 -27 -61t-38 -43q-82 -71 -205 -71q-125 0 -202.5 67t-77.5 175q0 113 82.5 189t205.5 76q116 0 195.5 -70.5t79.5 -173.5q0 -6 -4 -48zM322 360q-47 0 -57 -62h108q-1 62 -51 62zM95 642
q0 43 30 73t72 30q43 0 73 -30t30 -73q0 -42 -30 -72t-73 -30q-42 0 -72 30t-30 72zM342 642q0 43 30 73t72 30q43 0 73 -30t30 -73q0 -42 -30 -72t-73 -30q-42 0 -72 30t-30 72z" />
    <glyph glyph-name="igrave" unicode="&#xec;" horiz-adv-x="332" 
d="M81 467h231l-57 -467h-231zM91 669l117 73l115 -146l-86 -55z" />
    <glyph glyph-name="iacute" unicode="&#xed;" horiz-adv-x="332" 
d="M81 467h231l-57 -467h-231zM111 596l116 146l117 -73l-146 -128z" />
    <glyph glyph-name="icircumflex" unicode="&#xee;" horiz-adv-x="332" 
d="M81 467h231l-57 -467h-231zM86 533l-55 101l187 101l161 -115l-66 -87l-98 70z" />
    <glyph glyph-name="idieresis" unicode="&#xef;" horiz-adv-x="332" 
d="M81 467h231l-57 -467h-231zM-9 642q0 43 30 73t72 30q43 0 73 -30t30 -73q0 -42 -30 -72t-73 -30q-42 0 -72 30t-30 72zM238 642q0 43 30 73t72 30q43 0 73 -30t30 -73q0 -42 -30 -72t-73 -30q-42 0 -72 30t-30 72z" />
    <glyph glyph-name="eth" unicode="&#xf0;" horiz-adv-x="647" 
d="M163 633l29 111q143 -11 244 -67l131 56l33 -94l-86 -36q50 -40 77 -103q30 -70 30 -160q0 -179 -88 -272q-76 -81 -214 -81q-125 0 -200 55q-90 65 -90 178q0 94 70 161q77 73 204 73q88 0 155 -46q-13 87 -85 134l-199 -78l-30 96l137 52q-53 21 -118 21zM315 163
q25 0 42 15q22 20 22 51t-20 51q-15 15 -39 15q-25 0 -42 -17q-23 -23 -23 -55q0 -29 20 -46q17 -14 40 -14z" />
    <glyph glyph-name="ntilde" unicode="&#xf1;" horiz-adv-x="633" 
d="M77 467h232q-8 -45 -23 -83l8 -2q35 56 68.5 79t78.5 23q66 0 109.5 -43.5t43.5 -108.5q0 -24 -5 -71l-32 -261h-232l28 226q3 20 3 31q0 35 -30 35q-23 0 -33 -15t-15 -59l-27 -218h-231zM439 673l74 -38q-48 -91 -109 -91q-22 0 -57 17q-22 11 -37 11q-27 0 -46 -32
l-77 40q38 50 63.5 68.5t53.5 18.5q22 0 52 -13l23 -10q13 -5 20 -5q17 0 34 25z" />
    <glyph glyph-name="ograve" unicode="&#xf2;" horiz-adv-x="637" 
d="M320 493q131 0 211 -68.5t80 -180.5q0 -110 -83 -183.5t-207 -73.5q-127 0 -209.5 70.5t-82.5 178.5q0 111 83 184t208 73zM318 169q28 0 46 21.5t18 53.5q0 28 -16.5 47t-41.5 19q-27 0 -46.5 -22t-19.5 -53q0 -29 17 -47.5t43 -18.5zM230 669l117 73l115 -146l-86 -55z
" />
    <glyph glyph-name="oacute" unicode="&#xf3;" horiz-adv-x="637" 
d="M320 493q131 0 211 -68.5t80 -180.5q0 -110 -83 -183.5t-207 -73.5q-127 0 -209.5 70.5t-82.5 178.5q0 111 83 184t208 73zM318 169q28 0 46 21.5t18 53.5q0 28 -16.5 47t-41.5 19q-27 0 -46.5 -22t-19.5 -53q0 -29 17 -47.5t43 -18.5zM231 596l116 146l117 -73
l-146 -128z" />
    <glyph glyph-name="ocircumflex" unicode="&#xf4;" horiz-adv-x="637" 
d="M320 493q131 0 211 -68.5t80 -180.5q0 -110 -83 -183.5t-207 -73.5q-127 0 -209.5 70.5t-82.5 178.5q0 111 83 184t208 73zM318 169q28 0 46 21.5t18 53.5q0 28 -16.5 47t-41.5 19q-27 0 -46.5 -22t-19.5 -53q0 -29 17 -47.5t43 -18.5zM210 533l-55 101l187 101l161 -115
l-66 -87l-98 70z" />
    <glyph glyph-name="otilde" unicode="&#xf5;" horiz-adv-x="637" 
d="M320 493q131 0 211 -68.5t80 -180.5q0 -110 -83 -183.5t-207 -73.5q-127 0 -209.5 70.5t-82.5 178.5q0 111 83 184t208 73zM318 169q28 0 46 21.5t18 53.5q0 28 -16.5 47t-41.5 19q-27 0 -46.5 -22t-19.5 -53q0 -29 17 -47.5t43 -18.5zM419 673l74 -38q-48 -91 -109 -91
q-22 0 -57 17q-22 11 -37 11q-27 0 -46 -32l-77 40q38 50 63.5 68.5t53.5 18.5q22 0 52 -13l23 -10q13 -5 20 -5q17 0 34 25z" />
    <glyph glyph-name="odieresis" unicode="&#xf6;" horiz-adv-x="637" 
d="M320 493q131 0 211 -68.5t80 -180.5q0 -110 -83 -183.5t-207 -73.5q-127 0 -209.5 70.5t-82.5 178.5q0 111 83 184t208 73zM318 169q28 0 46 21.5t18 53.5q0 28 -16.5 47t-41.5 19q-27 0 -46.5 -22t-19.5 -53q0 -29 17 -47.5t43 -18.5zM110 642q0 43 30 73t72 30
q43 0 73 -30t30 -73q0 -42 -30 -72t-73 -30q-42 0 -72 30t-30 72zM357 642q0 43 30 73t72 30q43 0 73 -30t30 -73q0 -42 -30 -72t-73 -30q-42 0 -72 30t-30 72z" />
    <glyph glyph-name="divide" unicode="&#xf7;" 
d="M189 510q0 31 21.5 52.5t52.5 21.5t53 -21.5t22 -52.5t-22 -53t-53 -21q-30 0 -52 21.5t-22 52.5zM189 170q0 31 21.5 52.5t52.5 21.5t53 -21.5t22 -52.5t-22 -53t-53 -21q-30 0 -52 21.5t-22 52.5zM47 280v120h433v-120h-433z" />
    <glyph glyph-name="oslash" unicode="&#xf8;" horiz-adv-x="643" 
d="M649 459l-80 -71q45 -60 45 -144q0 -101 -71 -172q-85 -85 -223 -85q-87 0 -157 37l-93 -82l-72 79l82 74q-48 60 -48 140q0 105 73 176q84 82 224 82q84 0 156 -36l92 82zM321 169q25 0 42 17q22 22 22 58q0 31 -18 49q-16 17 -39 17q-26 0 -44 -18q-23 -21 -23 -56
q0 -29 19 -50q16 -17 41 -17z" />
    <glyph glyph-name="ugrave" unicode="&#xf9;" horiz-adv-x="633" 
d="M383 467h232l-32 -257q-8 -66 -24.5 -101.5t-52.5 -64.5q-73 -57 -191 -57q-128 0 -198.5 52t-70.5 147q0 24 3 54l28 227h232l-28 -227q-4 -31 -4 -41q0 -15 9.5 -25t24.5 -10q21 0 30 13.5t13 53.5zM221 669l117 73l115 -146l-86 -55z" />
    <glyph glyph-name="uacute" unicode="&#xfa;" horiz-adv-x="633" 
d="M383 467h232l-32 -257q-8 -66 -24.5 -101.5t-52.5 -64.5q-73 -57 -191 -57q-128 0 -198.5 52t-70.5 147q0 24 3 54l28 227h232l-28 -227q-4 -31 -4 -41q0 -15 9.5 -25t24.5 -10q21 0 30 13.5t13 53.5zM271 596l116 146l117 -73l-146 -128z" />
    <glyph glyph-name="ucircumflex" unicode="&#xfb;" horiz-adv-x="633" 
d="M383 467h232l-32 -257q-8 -66 -24.5 -101.5t-52.5 -64.5q-73 -57 -191 -57q-128 0 -198.5 52t-70.5 147q0 24 3 54l28 227h232l-28 -227q-4 -31 -4 -41q0 -15 9.5 -25t24.5 -10q21 0 30 13.5t13 53.5zM240 533l-55 101l187 101l161 -115l-66 -87l-98 70z" />
    <glyph glyph-name="udieresis" unicode="&#xfc;" horiz-adv-x="633" 
d="M383 467h232l-32 -257q-8 -66 -24.5 -101.5t-52.5 -64.5q-73 -57 -191 -57q-128 0 -198.5 52t-70.5 147q0 24 3 54l28 227h232l-28 -227q-4 -31 -4 -41q0 -15 9.5 -25t24.5 -10q21 0 30 13.5t13 53.5zM130 642q0 43 30 73t72 30q43 0 73 -30t30 -73q0 -42 -30 -72
t-73 -30q-42 0 -72 30t-30 72zM377 642q0 43 30 73t72 30q43 0 73 -30t30 -73q0 -42 -30 -72t-73 -30q-42 0 -72 30t-30 72z" />
    <glyph glyph-name="yacute" unicode="&#xfd;" horiz-adv-x="591" 
d="M381 467h249l-363 -696h-248l88 169q35 61 65 96l-141 431h238l20 -130q7 -43 7 -75q0 -24 -2 -48l10 -1q15 78 34 131zM241 596l116 146l117 -73l-146 -128z" />
    <glyph glyph-name="thorn" unicode="&#xfe;" horiz-adv-x="645" 
d="M115 729h232l-30 -236q-10 -62 -22 -97l9 -4q28 51 57 71.5t74 20.5q77 0 131 -68t54 -165q0 -106 -64 -185t-150 -79q-113 0 -146 96l-8 -3q3 -41 3 -57q0 -30 -5 -77l-22 -175h-232zM331 163q27 0 44 21t17 54q0 28 -15.5 46t-38.5 18q-25 0 -43.5 -22.5t-18.5 -54.5
q0 -28 15 -45t40 -17z" />
    <glyph glyph-name="ydieresis" unicode="&#xff;" horiz-adv-x="591" 
d="M381 467h249l-363 -696h-248l88 169q35 61 65 96l-141 431h238l20 -130q7 -43 7 -75q0 -24 -2 -48l10 -1q15 78 34 131zM100 642q0 43 30 73t72 30q43 0 73 -30t30 -73q0 -42 -30 -72t-73 -30q-42 0 -72 30t-30 72zM347 642q0 43 30 73t72 30q43 0 73 -30t30 -73
q0 -42 -30 -72t-73 -30q-42 0 -72 30t-30 72z" />
    <glyph glyph-name="Amacron" unicode="&#x100;" horiz-adv-x="708" 
d="M428 89h-164l-32 -89h-260l308 667h276l124 -667h-247zM365 362l-45 -121h92l-10 121q-2 22 -2 47q0 20 3 53h-8q-13 -55 -30 -100zM600 746h-364l12 104h364z" />
    <glyph glyph-name="amacron" unicode="&#x101;" horiz-adv-x="652" 
d="M403 467h230l-58 -467h-229q7 30 25 83l-7 3q-30 -53 -64 -76t-80 -23q-79 0 -137 65t-58 153q0 111 70.5 194.5t163.5 83.5q56 0 88.5 -23t52.5 -77l8 3q-5 41 -5 71v10zM316 164q28 0 46.5 21t18.5 53q0 26 -15.5 43.5t-39.5 17.5q-27 0 -47 -22.5t-20 -53.5
q0 -26 16 -42.5t41 -16.5zM563 546h-340l12 100h340z" />
    <glyph glyph-name="Abreve" unicode="&#x102;" horiz-adv-x="708" 
d="M428 89h-164l-32 -89h-260l308 667h276l124 -667h-247zM365 362l-45 -121h92l-10 121q-2 22 -2 47q0 20 3 53h-8q-13 -55 -30 -100zM502 875h102q-11 -61 -53 -103q-50 -49 -133 -49q-70 0 -112 31q-54 39 -56 121h102q4 -26 19 -40q16 -16 52 -16q31 0 51 15t28 41z" />
    <glyph glyph-name="abreve" unicode="&#x103;" horiz-adv-x="652" 
d="M403 467h230l-58 -467h-229q7 30 25 83l-7 3q-30 -53 -64 -76t-80 -23q-79 0 -137 65t-58 153q0 111 70.5 194.5t163.5 83.5q56 0 88.5 -23t52.5 -77l8 3q-5 41 -5 71v10zM316 164q28 0 46.5 21t18.5 53q0 26 -15.5 43.5t-39.5 17.5q-27 0 -47 -22.5t-20 -53.5
q0 -26 16 -42.5t41 -16.5zM458 691h102q-11 -61 -53 -103q-49 -49 -134 -49q-69 0 -111 31q-54 39 -56 121h102q4 -26 19 -40q16 -16 52 -16q31 0 51 15t28 41z" />
    <glyph glyph-name="Aogonek" unicode="&#x104;" horiz-adv-x="708" 
d="M428 89h-164l-32 -89h-260l308 667h276l124 -667h-157q-20 -14 -40 -34q-20 -22 -20 -43q0 -13 10 -23q9 -9 28 -9q36 0 63 25l-33 -95q-42 -23 -95 -23q-49 0 -73 22q-24 21 -24 59q0 43 39 80q23 22 55 41zM402 362q-2 30 -2 52q0 18 2 40l1 8h-8q-6 -37 -30 -100
l-45 -121h92z" />
    <glyph glyph-name="aogonek" unicode="&#x105;" horiz-adv-x="652" 
d="M403 467h230l-58 -467h-60q-29 -23 -36 -31q-18 -20 -18 -40q0 -12 9 -20t27 -8q29 0 55 23l-29 -87q-37 -21 -87 -21q-46 0 -69 23q-19 17 -19 49q0 42 35 75q20 18 50 37h-87q6 31 22 75l3 8l-7 3q-21 -44 -51 -68q-37 -31 -90 -31q-75 0 -132 57q-66 66 -66 164
q0 58 24 115.5t63 95.5q66 64 155 64q57 0 93 -34q27 -24 40 -66l8 3q-5 36 -5 71v10zM316 164q27 0 44 19q21 23 21 55q0 30 -20 48q-15 13 -35 13q-24 0 -42 -18q-25 -24 -25 -58q0 -24 16 -42q15 -17 41 -17z" />
    <glyph glyph-name="Cacute" unicode="&#x106;" horiz-adv-x="582" 
d="M415 683q87 0 173 -31l-20 -237q-65 52 -133 52q-60 0 -103.5 -44t-43.5 -104q0 -51 37 -85.5t92 -34.5q71 0 131 57l-29 -243q-89 -30 -152 -30q-139 0 -229.5 94t-90.5 237q0 159 105 264t263 105zM326 779l127 137l117 -73l-157 -119z" />
    <glyph glyph-name="cacute" unicode="&#x107;" horiz-adv-x="437" 
d="M300 493q59 0 139 -26l-29 -196q-36 42 -82 42q-33 0 -53 -22t-20 -58q0 -32 18 -50.5t50 -18.5q41 0 78 33l-34 -192q-60 -18 -105 -18q-104 0 -169.5 65t-65.5 168q0 122 75.5 197.5t197.5 75.5zM231 596l116 146l117 -73l-146 -128z" />
    <glyph glyph-name="Ccircumflex" unicode="&#x108;" horiz-adv-x="582" 
d="M415 683q87 0 173 -31l-20 -237q-65 52 -133 52q-60 0 -103.5 -44t-43.5 -104q0 -51 37 -85.5t92 -34.5q71 0 131 57l-29 -243q-89 -30 -152 -30q-139 0 -229.5 94t-90.5 237q0 159 105 264t263 105zM320 716l-55 101l187 101l161 -115l-66 -87l-98 70z" />
    <glyph glyph-name="ccircumflex" unicode="&#x109;" horiz-adv-x="437" 
d="M300 493q59 0 139 -26l-29 -196q-36 42 -82 42q-33 0 -53 -22t-20 -58q0 -32 18 -50.5t50 -18.5q41 0 78 33l-34 -192q-60 -18 -105 -18q-104 0 -169.5 65t-65.5 168q0 122 75.5 197.5t197.5 75.5zM200 533l-55 101l187 101l161 -115l-66 -87l-98 70z" />
    <glyph glyph-name="Cdotaccent" unicode="&#x10a;" horiz-adv-x="582" 
d="M415 683q87 0 173 -31l-20 -237q-65 52 -133 52q-60 0 -103.5 -44t-43.5 -104q0 -51 37 -85.5t92 -34.5q71 0 131 57l-29 -243q-89 -30 -152 -30q-139 0 -229.5 94t-90.5 237q0 159 105 264t263 105zM335 825q0 43 30 73t73 30q42 0 72 -30t30 -73q0 -42 -30 -72t-72 -30
q-43 0 -73 30t-30 72z" />
    <glyph glyph-name="cdotaccent" unicode="&#x10b;" horiz-adv-x="437" 
d="M300 493q59 0 139 -26l-29 -196q-36 42 -82 42q-33 0 -53 -22t-20 -58q0 -32 18 -50.5t50 -18.5q41 0 78 33l-34 -192q-60 -18 -105 -18q-104 0 -169.5 65t-65.5 168q0 122 75.5 197.5t197.5 75.5zM218 642q0 43 30 73t73 30q42 0 72 -30t30 -73q0 -42 -30 -72t-72 -30
q-43 0 -73 30t-30 72z" />
    <glyph glyph-name="Ccaron" unicode="&#x10c;" horiz-adv-x="582" 
d="M415 683q87 0 173 -31l-20 -237q-65 52 -133 52q-60 0 -103.5 -44t-43.5 -104q0 -51 37 -85.5t92 -34.5q71 0 131 57l-29 -243q-89 -30 -152 -30q-139 0 -229.5 94t-90.5 237q0 159 105 264t263 105zM548 918l55 -101l-187 -101l-161 115l67 87l97 -70z" />
    <glyph glyph-name="ccaron" unicode="&#x10d;" horiz-adv-x="437" 
d="M300 493q59 0 139 -26l-29 -196q-36 42 -82 42q-33 0 -53 -22t-20 -58q0 -32 18 -50.5t50 -18.5q41 0 78 33l-34 -192q-60 -18 -105 -18q-104 0 -169.5 65t-65.5 168q0 122 75.5 197.5t197.5 75.5zM438 735l55 -101l-187 -101l-161 115l67 87l97 -70z" />
    <glyph glyph-name="Dcaron" unicode="&#x10e;" horiz-adv-x="744" 
d="M39 0l82 667h226q176 0 275.5 -85.5t99.5 -237.5q0 -80 -32 -148.5t-90 -114.5q-55 -44 -122 -62.5t-172 -18.5h-267zM368 471h-30l-33 -273h34q60 0 102 44t42 108q0 52 -32.5 86.5t-82.5 34.5zM498 918l55 -101l-187 -101l-161 115l67 87l97 -70z" />
    <glyph glyph-name="dcaron" unicode="&#x10f;" horiz-adv-x="876" 
d="M426 729h231l-90 -729h-231q10 40 23 78l-8 4q-42 -95 -140 -95q-80 0 -132.5 62.5t-52.5 157.5q0 114 65 195t157 81q105 0 140 -102l9 2q-4 24 -4 35q0 48 7 101zM311 169q25 0 42.5 19.5t19.5 50.5v5q0 27 -15 43.5t-40 16.5q-26 0 -44.5 -21t-18.5 -52
q0 -26 16.5 -44t39.5 -18zM946 667l-126 -218h-152l85 218h193z" />
    <glyph glyph-name="Dcroat" unicode="&#x110;" horiz-adv-x="770" 
d="M65 0l34 280h-84l14 120h85l33 267h226q176 0 275.5 -85.5t99.5 -237.5q0 -80 -32 -148.5t-90 -114.5q-55 -44 -122 -62.5t-172 -18.5h-267zM394 471h-30l-10 -71h84l-14 -120h-83l-10 -82h34q60 0 102 44t42 108q0 52 -32.5 86.5t-82.5 34.5z" />
    <glyph glyph-name="dcroat" unicode="&#x111;" horiz-adv-x="660" 
d="M426 729h231l-11 -87h84l-14 -120h-85l-64 -522h-231q10 40 23 78l-8 4q-42 -95 -140 -95q-80 0 -132.5 62.5t-52.5 157.5q0 114 65 195t157 81q105 0 140 -102l9 2q-4 24 -4 35q0 48 7 101v3h-166l15 120h166zM311 169q25 0 42.5 19.5t19.5 50.5v5q0 27 -15 43.5
t-40 16.5q-26 0 -44.5 -21t-18.5 -52q0 -26 16.5 -44t39.5 -18z" />
    <glyph glyph-name="Emacron" unicode="&#x112;" horiz-adv-x="549" 
d="M121 667h438l-21 -174h-197l-9 -73h180l-20 -165h-180l-9 -76h204l-22 -179h-446zM520 746h-364l12 104h364z" />
    <glyph glyph-name="emacron" unicode="&#x113;" horiz-adv-x="618" 
d="M587 202h-331q-1 -6 -1 -17q0 -29 14 -46t37 -17q34 0 50 40h222q-14 -40 -27 -61t-38 -43q-82 -71 -205 -71q-125 0 -202.5 67t-77.5 175q0 113 82.5 189t205.5 76q116 0 195.5 -70.5t79.5 -173.5q0 -6 -4 -48zM322 360q-47 0 -57 -62h108q-1 62 -51 62zM498 546h-340
l12 100h340z" />
    <glyph glyph-name="Edotaccent" unicode="&#x116;" horiz-adv-x="549" 
d="M121 667h438l-21 -174h-197l-9 -73h180l-20 -165h-180l-9 -76h204l-22 -179h-446zM248 825q0 43 30 73t73 30q42 0 72 -30t30 -73q0 -42 -30 -72t-72 -30q-43 0 -73 30t-30 72z" />
    <glyph glyph-name="edotaccent" unicode="&#x117;" horiz-adv-x="618" 
d="M587 202h-331q-1 -6 -1 -17q0 -29 14 -46t37 -17q34 0 50 40h222q-14 -40 -27 -61t-38 -43q-82 -71 -205 -71q-125 0 -202.5 67t-77.5 175q0 113 82.5 189t205.5 76q116 0 195.5 -70.5t79.5 -173.5q0 -6 -4 -48zM322 360q-47 0 -57 -62h108q-1 62 -51 62zM218 642
q0 43 30 73t73 30q42 0 72 -30t30 -73q0 -42 -30 -72t-72 -30q-43 0 -73 30t-30 72z" />
    <glyph glyph-name="Eogonek" unicode="&#x118;" horiz-adv-x="549" 
d="M121 667h438l-21 -174h-197l-9 -73h180l-20 -165h-180l-9 -76h204l-22 -179h-60q-19 -14 -40 -34q-20 -23 -20 -43q0 -13 10 -23q9 -9 28 -9q36 0 63 25l-33 -95q-42 -23 -95 -23q-49 0 -73 22q-24 21 -24 59q0 43 39 80q23 22 55 41h-296z" />
    <glyph glyph-name="eogonek" unicode="&#x119;" horiz-adv-x="618" 
d="M587 202h-331q-1 -5 -1 -16q0 -36 18 -52q12 -12 33 -12q23 0 35 14q4 4 15 26h222q-13 -54 -53 -96q-28 -29 -77 -57q-51 -29 -68 -45q-22 -20 -22 -41q0 -14 9 -20q9 -8 27 -8q29 0 55 23l-29 -87q-37 -21 -87 -21q-46 0 -69 23q-19 17 -19 49q0 42 35 75q16 15 40 30
q-149 0 -225 76q-67 65 -67 164q0 107 74 183q82 84 214 84q125 0 208 -83q67 -68 67 -152q0 -8 -1.5 -25.5t-2.5 -31.5zM265 298h108q0 35 -16 50q-13 12 -35 12q-23 0 -37 -14q-16 -16 -20 -48z" />
    <glyph glyph-name="Ecaron" unicode="&#x11a;" horiz-adv-x="549" 
d="M121 667h438l-21 -174h-197l-9 -73h180l-20 -165h-180l-9 -76h204l-22 -179h-446zM473 918l55 -101l-187 -101l-161 115l67 87l97 -70z" />
    <glyph glyph-name="ecaron" unicode="&#x11b;" horiz-adv-x="618" 
d="M587 202h-331q-1 -6 -1 -17q0 -29 14 -46t37 -17q34 0 50 40h222q-14 -40 -27 -61t-38 -43q-82 -71 -205 -71q-125 0 -202.5 67t-77.5 175q0 113 82.5 189t205.5 76q116 0 195.5 -70.5t79.5 -173.5q0 -6 -4 -48zM322 360q-47 0 -57 -62h108q-1 62 -51 62zM458 735
l55 -101l-187 -101l-161 115l67 87l97 -70z" />
    <glyph glyph-name="Gcircumflex" unicode="&#x11c;" horiz-adv-x="807" 
d="M418 388h365v-6q0 -192 -110 -301q-99 -98 -267 -98q-79 0 -142 20.5t-119 75.5q-98 96 -98 238q0 152 102 256q108 111 294 111q217 0 319 -169l-227 -89q-28 56 -89 56t-102 -38q-55 -52 -55 -137q0 -62 38 -102q35 -36 94 -36q83 0 107 73h-130zM320 716l-55 101
l187 101l161 -115l-66 -87l-98 70z" />
    <glyph glyph-name="gcircumflex" unicode="&#x11d;" horiz-adv-x="644" 
d="M397 467h228l-52 -421q-10 -82 -31.5 -128t-65.5 -79q-88 -68 -221 -68q-106 0 -213 41q-10 3 -30 12l62 152q82 -50 150 -50q37 0 67 15.5t44 41.5q13 26 28 100l-7 2q-22 -48 -53 -68t-83 -20q-83 0 -138 63t-55 158q0 111 66.5 188t162.5 77q103 0 138 -95l7 2l-2 27
l-1 34zM312 163q28 0 46.5 19.5t18.5 49.5q0 29 -15.5 47.5t-39.5 18.5q-28 0 -47.5 -21.5t-19.5 -51.5q0 -28 16 -45t41 -17zM252 533l-55 101l187 101l161 -115l-66 -87l-98 70z" />
    <glyph glyph-name="Gbreve" unicode="&#x11e;" horiz-adv-x="807" 
d="M418 388h365v-6q0 -192 -110 -301q-99 -98 -267 -98q-79 0 -142 20.5t-119 75.5q-98 96 -98 238q0 152 102 256q108 111 294 111q217 0 319 -169l-227 -89q-28 56 -89 56t-102 -38q-55 -52 -55 -137q0 -62 38 -102q35 -36 94 -36q83 0 107 73h-130zM527 875h102
q-11 -61 -53 -103q-50 -49 -133 -49q-70 0 -112 31q-54 39 -56 121h102q4 -26 19 -40q16 -16 52 -16q31 0 51 15t28 41z" />
    <glyph glyph-name="gbreve" unicode="&#x11f;" horiz-adv-x="644" 
d="M397 467h228l-52 -421q-10 -82 -31.5 -128t-65.5 -79q-88 -68 -221 -68q-106 0 -213 41q-10 3 -30 12l62 152q82 -50 150 -50q37 0 67 15.5t44 41.5q13 26 28 100l-7 2q-22 -48 -53 -68t-83 -20q-83 0 -138 63t-55 158q0 111 66.5 188t162.5 77q103 0 138 -95l7 2l-2 27
l-1 34zM312 163q28 0 46.5 19.5t18.5 49.5q0 29 -15.5 47.5t-39.5 18.5q-28 0 -47.5 -21.5t-19.5 -51.5q0 -28 16 -45t41 -17zM442 691h102q-11 -61 -53 -103q-49 -49 -134 -49q-69 0 -111 31q-54 39 -56 121h102q4 -26 19 -40q16 -16 52 -16q31 0 51 15t28 41z" />
    <glyph glyph-name="Gdotaccent" unicode="&#x120;" horiz-adv-x="807" 
d="M418 388h365v-6q0 -192 -110 -301q-99 -98 -267 -98q-79 0 -142 20.5t-119 75.5q-98 96 -98 238q0 152 102 256q108 111 294 111q217 0 319 -169l-227 -89q-28 56 -89 56t-102 -38q-55 -52 -55 -137q0 -62 38 -102q35 -36 94 -36q83 0 107 73h-130zM378 825q0 43 30 73
t73 30q42 0 72 -30t30 -73q0 -42 -30 -72t-72 -30q-43 0 -73 30t-30 72z" />
    <glyph glyph-name="gdotaccent" unicode="&#x121;" horiz-adv-x="644" 
d="M397 467h228l-52 -421q-10 -82 -31.5 -128t-65.5 -79q-88 -68 -221 -68q-106 0 -213 41q-10 3 -30 12l62 152q82 -50 150 -50q37 0 67 15.5t44 41.5q13 26 28 100l-7 2q-22 -48 -53 -68t-83 -20q-83 0 -138 63t-55 158q0 111 66.5 188t162.5 77q103 0 138 -95l7 2l-2 27
l-1 34zM312 163q28 0 46.5 19.5t18.5 49.5q0 29 -15.5 47.5t-39.5 18.5q-28 0 -47.5 -21.5t-19.5 -51.5q0 -28 16 -45t41 -17zM267 642q0 43 30 73t73 30q42 0 72 -30t30 -73q0 -42 -30 -72t-72 -30q-43 0 -73 30t-30 72z" />
    <glyph glyph-name="Gcommaaccent" unicode="&#x122;" horiz-adv-x="807" 
d="M418 388h365v-6q0 -192 -110 -301q-99 -98 -267 -98q-79 0 -142 20.5t-119 75.5q-98 96 -98 238q0 152 102 256q108 111 294 111q217 0 319 -169l-227 -89q-28 56 -89 56t-102 -38q-55 -52 -55 -137q0 -62 38 -102q35 -36 94 -36q83 0 107 73h-130zM527 -62l-125 -212
h-155l84 212h196z" />
    <glyph glyph-name="gcommaaccent" unicode="&#x123;" horiz-adv-x="644" 
d="M397 467h228l-52 -421q-10 -82 -31.5 -128t-65.5 -79q-88 -68 -221 -68q-106 0 -213 41q-10 3 -30 12l62 152q82 -50 150 -50q37 0 67 15.5t44 41.5q13 26 28 100l-7 2q-22 -48 -53 -68t-83 -20q-83 0 -138 63t-55 158q0 111 66.5 188t162.5 77q103 0 138 -95l7 2l-2 27
l-1 34zM312 163q28 0 46.5 19.5t18.5 49.5q0 29 -15.5 47.5t-39.5 18.5q-28 0 -47.5 -21.5t-19.5 -51.5q0 -28 16 -45t41 -17zM232 531l125 212h155l-84 -212h-196z" />
    <glyph glyph-name="Hcircumflex" unicode="&#x124;" horiz-adv-x="760" 
d="M505 667h242l-82 -667h-242l30 243h-143l-29 -243h-242l82 667h242l-28 -228h142zM350 716l-55 101l187 101l161 -115l-66 -87l-98 70z" />
    <glyph glyph-name="hcircumflex" unicode="&#x125;" horiz-adv-x="632" 
d="M110 729h231l-26 -211q-9 -71 -25 -125l9 -3q53 93 148 93q62 0 104.5 -43t42.5 -106q0 -26 -4 -53l-34 -281h-232l28 226q3 20 3 31q0 35 -30 35q-22 0 -32.5 -15.5t-15.5 -58.5l-26 -218h-231zM115 763l-55 101l187 101l161 -115l-66 -87l-98 70z" />
    <glyph glyph-name="Hbar" unicode="&#x126;" horiz-adv-x="760" 
d="M281 0h-242l59 482h-60l18 142h60l5 43h242l-5 -43h142l5 43h242l-5 -43h60l-18 -142h-60l-59 -482h-242l30 242h-143zM484 482h-144l-9 -74h144z" />
    <glyph glyph-name="hbar" unicode="&#x127;" horiz-adv-x="657" 
d="M125 642l10 87h231l-10 -87h165l-14 -120h-166l-1 -4q-9 -71 -25 -125l9 -3q53 93 148 93q62 0 104.5 -43t42.5 -106q0 -26 -4 -53l-34 -281h-232l28 226q3 20 3 31q0 35 -30 35q-22 0 -32.5 -15.5t-15.5 -58.5l-26 -218h-231l65 522h-85l15 120h85z" />
    <glyph glyph-name="Imacron" unicode="&#x12a;" horiz-adv-x="379" 
d="M121 667h245l-82 -667h-245zM425 746h-364l12 104h364z" />
    <glyph glyph-name="imacron" unicode="&#x12b;" horiz-adv-x="332" 
d="M81 467h231l-57 -467h-231zM368 546h-340l12 100h340z" />
    <glyph glyph-name="Iogonek" unicode="&#x12e;" horiz-adv-x="379" 
d="M121 667h245l-82 -667q-20 -14 -40 -34q-20 -23 -20 -43q0 -13 10 -23q9 -9 28 -9q36 0 63 25l-33 -95q-42 -23 -95 -23q-49 0 -73 22q-24 21 -24 59q0 43 39 80q23 22 55 41h-155z" />
    <glyph glyph-name="iogonek" unicode="&#x12f;" horiz-adv-x="332" 
d="M217 747q52 0 90.5 -32.5t38.5 -76.5q0 -42 -37.5 -77.5t-96.5 -35.5q-56 0 -91.5 32t-35.5 75q0 47 39.5 81t92.5 34zM81 467h231l-57 -467q-29 -23 -36 -31q-18 -20 -18 -40q0 -12 9 -20t27 -8q29 0 55 23l-29 -87q-37 -21 -87 -21q-46 0 -69 23q-19 17 -19 49
q0 42 35 75q20 18 50 37h-149z" />
    <glyph glyph-name="Idotaccent" unicode="&#x130;" horiz-adv-x="379" 
d="M121 667h245l-82 -667h-245zM143 825q0 43 30 73t73 30q42 0 72 -30t30 -73q0 -42 -30 -72t-72 -30q-43 0 -73 30t-30 72z" />
    <glyph glyph-name="dotlessi" unicode="&#x131;" horiz-adv-x="332" 
d="M81 467h231l-57 -467h-231z" />
    <glyph glyph-name="Jcircumflex" unicode="&#x134;" horiz-adv-x="456" 
d="M201 667h242l-55 -447q-5 -38 -9.5 -61.5t-19 -56t-37.5 -56.5q-62 -63 -177 -63q-109 0 -179 52l78 216q8 -20 25 -41q16 -19 39 -19q20 0 30 14q8 13 12 46zM210 716l-55 101l187 101l161 -115l-66 -87l-98 70z" />
    <glyph glyph-name="jcircumflex" unicode="&#x135;" horiz-adv-x="337" 
d="M86 467h231l-85 -696h-231zM90 533l-55 101l187 101l161 -115l-66 -87l-98 70z" />
    <glyph glyph-name="Kcommaaccent" unicode="&#x136;" horiz-adv-x="732" 
d="M121 667h242l-22 -173q-8 -61 -21 -116l7 -2q20 51 42 85l23 37l106 169h282l-260 -338l170 -329h-255l-85 192q-23 52 -34 98l-7 -1v-20q0 -39 -5 -77l-23 -192h-242zM447 -62l-125 -212h-155l84 212h196z" />
    <glyph glyph-name="kcommaaccent" unicode="&#x137;" horiz-adv-x="650" 
d="M110 729h231l-34 -279q-9 -70 -29 -175l7 -1q17 44 61 109l57 84h275l-201 -241l134 -226h-256l-42 91q-29 63 -40 114l-9 -1q3 -39 3 -57q0 -17 -2 -39l-14 -108h-231zM407 -62l-125 -212h-155l84 212h196z" />
    <glyph glyph-name="Lacute" unicode="&#x139;" horiz-adv-x="530" 
d="M121 667h245l-57 -466l205 6l-25 -207h-450zM186 779l127 137l117 -73l-157 -119z" />
    <glyph glyph-name="lacute" unicode="&#x13a;" horiz-adv-x="327" 
d="M110 729h231l-90 -729h-231zM141 836l116 146l117 -73l-146 -128z" />
    <glyph glyph-name="Lcommaaccent" unicode="&#x13b;" horiz-adv-x="530" 
d="M121 667h245l-57 -466l205 6l-25 -207h-450zM387 -62l-125 -212h-155l84 212h196z" />
    <glyph glyph-name="lcommaaccent" unicode="&#x13c;" horiz-adv-x="327" 
d="M110 729h231l-90 -729h-231zM235 -62l-125 -212h-155l84 212h196z" />
    <glyph glyph-name="Lcaron" unicode="&#x13d;" horiz-adv-x="596" 
d="M121 667h245l-57 -466l205 6l-25 -207h-450zM666 667l-126 -218h-152l85 218h193z" />
    <glyph glyph-name="lcaron" unicode="&#x13e;" horiz-adv-x="566" 
d="M110 729h231l-90 -729h-231zM636 667l-126 -218h-152l85 218h193z" />
    <glyph glyph-name="Ldot" unicode="&#x13f;" horiz-adv-x="560" 
d="M121 667h245l-57 -466l205 6l-25 -207h-450zM389 370q0 43 30 73t73 30q42 0 72 -30t30 -73q0 -42 -30 -72t-72 -30q-43 0 -73 30t-30 72z" />
    <glyph glyph-name="ldot" unicode="&#x140;" horiz-adv-x="540" 
d="M110 729h231l-90 -729h-231zM349 354q0 43 30 73t73 30q42 0 72 -30t30 -73q0 -42 -30 -72t-72 -30q-43 0 -73 30t-30 72z" />
    <glyph glyph-name="Lslash" unicode="&#x141;" horiz-adv-x="563" 
d="M521 0h-446l28 230l-93 -55l20 162l93 55l34 275h242l-23 -184l123 73l-20 -162l-123 -73l-13 -106h204z" />
    <glyph glyph-name="lslash" unicode="&#x142;" horiz-adv-x="460" 
d="M406 729l-27 -213l111 68l-18 -142l-110 -68l-46 -374h-231l35 279l-110 -68l16 142l111 68l38 308h231z" />
    <glyph glyph-name="Nacute" unicode="&#x143;" horiz-adv-x="812" 
d="M554 667h245l-82 -667h-234l-116 230q-34 69 -53 135l-4 12h-8q4 -40 4 -80q0 -41 -3 -67l-21 -230h-243l82 667h243l118 -251q22 -47 42 -118l6 -22l10 1l-2 22q-5 62 -5 92q0 44 4 79zM386 779l127 137l117 -73l-157 -119z" />
    <glyph glyph-name="nacute" unicode="&#x144;" horiz-adv-x="633" 
d="M77 467h232q-8 -45 -23 -83l8 -2q35 56 68.5 79t78.5 23q66 0 109.5 -43.5t43.5 -108.5q0 -24 -5 -71l-32 -261h-232l28 226q3 20 3 31q0 35 -30 35q-23 0 -33 -15t-15 -59l-27 -218h-231zM281 596l116 146l117 -73l-146 -128z" />
    <glyph glyph-name="Ncommaaccent" unicode="&#x145;" horiz-adv-x="812" 
d="M554 667h245l-82 -667h-234l-116 230q-34 69 -53 135l-4 12h-8q4 -40 4 -80q0 -41 -3 -67l-21 -230h-243l82 667h243l118 -251q22 -47 42 -118l6 -22l10 1l-2 22q-5 62 -5 92q0 44 4 79zM487 -62l-125 -212h-155l84 212h196z" />
    <glyph glyph-name="ncommaaccent" unicode="&#x146;" horiz-adv-x="633" 
d="M77 467h232q-8 -45 -23 -83l8 -2q35 56 68.5 79t78.5 23q66 0 109.5 -43.5t43.5 -108.5q0 -24 -5 -71l-32 -261h-232l28 226q3 20 3 31q0 35 -30 35q-23 0 -33 -15t-15 -59l-27 -218h-231zM397 -62l-125 -212h-155l84 212h196z" />
    <glyph glyph-name="Ncaron" unicode="&#x147;" horiz-adv-x="812" 
d="M554 667h245l-82 -667h-234l-116 230q-34 69 -53 135l-4 12h-8q4 -40 4 -80q0 -41 -3 -67l-21 -230h-243l82 667h243l118 -251q22 -47 42 -118l6 -22l10 1l-2 22q-5 62 -5 92q0 44 4 79zM583 918l55 -101l-187 -101l-161 115l67 87l97 -70z" />
    <glyph glyph-name="ncaron" unicode="&#x148;" horiz-adv-x="633" 
d="M77 467h232q-8 -45 -23 -83l8 -2q35 56 68.5 79t78.5 23q66 0 109.5 -43.5t43.5 -108.5q0 -24 -5 -71l-32 -261h-232l28 226q3 20 3 31q0 35 -30 35q-23 0 -33 -15t-15 -59l-27 -218h-231zM478 735l55 -101l-187 -101l-161 115l67 87l97 -70z" />
    <glyph glyph-name="Omacron" unicode="&#x14c;" horiz-adv-x="808" 
d="M675 591q111 -91 111 -252q0 -152 -104.5 -254t-260.5 -102q-158 0 -265.5 98t-107.5 243q0 151 106.5 255t261.5 104q150 0 259 -92zM410 193q57 0 94.5 40.5t37.5 101.5q0 53 -34 90t-84 37q-55 0 -93.5 -41t-38.5 -99q0 -56 33.5 -92.5t84.5 -36.5zM600 746h-364
l12 104h364z" />
    <glyph glyph-name="omacron" unicode="&#x14d;" horiz-adv-x="637" 
d="M320 493q131 0 211 -68.5t80 -180.5q0 -110 -83 -183.5t-207 -73.5q-127 0 -209.5 70.5t-82.5 178.5q0 111 83 184t208 73zM318 169q28 0 46 21.5t18 53.5q0 28 -16.5 47t-41.5 19q-27 0 -46.5 -22t-19.5 -53q0 -29 17 -47.5t43 -18.5zM503 546h-340l12 100h340z" />
    <glyph glyph-name="Obreve" unicode="&#x14e;" horiz-adv-x="808" 
d="M675 591q111 -91 111 -252q0 -152 -104.5 -254t-260.5 -102q-158 0 -265.5 98t-107.5 243q0 151 106.5 255t261.5 104q150 0 259 -92zM410 193q57 0 94.5 40.5t37.5 101.5q0 53 -34 90t-84 37q-55 0 -93.5 -41t-38.5 -99q0 -56 33.5 -92.5t84.5 -36.5zM512 875h102
q-11 -61 -53 -103q-50 -49 -133 -49q-70 0 -112 31q-54 39 -56 121h102q4 -26 19 -40q16 -16 52 -16q31 0 51 15t28 41z" />
    <glyph glyph-name="obreve" unicode="&#x14f;" horiz-adv-x="637" 
d="M320 493q131 0 211 -68.5t80 -180.5q0 -110 -83 -183.5t-207 -73.5q-127 0 -209.5 70.5t-82.5 178.5q0 111 83 184t208 73zM318 169q28 0 46 21.5t18 53.5q0 28 -16.5 47t-41.5 19q-27 0 -46.5 -22t-19.5 -53q0 -29 17 -47.5t43 -18.5zM422 691h102q-11 -61 -53 -103
q-49 -49 -134 -49q-69 0 -111 31q-54 39 -56 121h102q4 -26 19 -40q16 -16 52 -16q31 0 51 15t28 41z" />
    <glyph glyph-name="Ohungarumlaut" unicode="&#x150;" horiz-adv-x="808" 
d="M675 591q111 -91 111 -252q0 -152 -104.5 -254t-260.5 -102q-158 0 -265.5 98t-107.5 243q0 151 106.5 255t261.5 104q150 0 259 -92zM410 193q57 0 94.5 40.5t37.5 101.5q0 53 -34 90t-84 37q-55 0 -93.5 -41t-38.5 -99q0 -56 33.5 -92.5t84.5 -36.5zM460 779l111 137
l111 -73l-143 -119zM242 779l111 137l111 -73l-143 -119z" />
    <glyph glyph-name="ohungarumlaut" unicode="&#x151;" horiz-adv-x="637" 
d="M320 493q131 0 211 -68.5t80 -180.5q0 -110 -83 -183.5t-207 -73.5q-127 0 -209.5 70.5t-82.5 178.5q0 111 83 184t208 73zM318 169q28 0 46 21.5t18 53.5q0 28 -16.5 47t-41.5 19q-27 0 -46.5 -22t-19.5 -53q0 -29 17 -47.5t43 -18.5zM145 596l100 146l112 -73
l-133 -128zM349 596l100 146l111 -73l-132 -128z" />
    <glyph glyph-name="OE" unicode="&#x152;" horiz-adv-x="984" 
d="M561 667h433l-21 -174h-195l-9 -73h178l-20 -165h-179l-9 -76h203l-22 -179h-441l10 83q-31 -35 -51.5 -52t-51.5 -30q-42 -18 -83 -18q-104 0 -179.5 100t-75.5 238q0 149 92 255.5t221 106.5q89 0 152 -69q9 -10 36 -43zM412 201q52 0 86 40.5t34 102.5q0 58 -32 94.5
t-82 36.5q-54 0 -90 -40.5t-36 -100.5q0 -58 34 -95.5t86 -37.5z" />
    <glyph glyph-name="oe" unicode="&#x153;" horiz-adv-x="945" 
d="M913 199h-330q0 -42 17 -59q13 -13 34 -13q18 0 29 11q10 10 12 23h229q-20 -85 -95 -133q-63 -41 -156 -41q-74 0 -123 24q-45 22 -74 67q-37 -47 -81 -68q-46 -23 -109 -23q-99 0 -164 65q-73 73 -73 178q0 110 79 189q74 74 188 74q61 0 108 -28q41 -24 71 -68
q29 42 73 67q50 29 117 29q113 0 182 -73q69 -74 69 -181q0 -21 -3 -40zM309 171q21 0 39 18q23 25 23 59q0 29 -15 44t-37 15q-21 0 -38 -15q-24 -21 -24 -61q0 -27 16 -44q16 -16 36 -16zM593 300h109q-4 30 -20 46q-13 13 -34 13q-22 0 -38 -18q-15 -18 -17 -41z" />
    <glyph glyph-name="Racute" unicode="&#x154;" horiz-adv-x="701" 
d="M607 300q-23 -18 -42.5 -26t-56.5 -13l145 -261h-262l-60 161q-19 52 -26 89l-7 -1q1 -22 1 -49q0 -46 -5 -88l-13 -112h-242l82 667h265q81 0 126.5 -12t83.5 -42q78 -65 78 -166q0 -93 -67 -147zM360 488h-19l-15 -120h20q42 0 66.5 18t24.5 48q0 54 -77 54zM276 779
l127 137l117 -73l-157 -119z" />
    <glyph glyph-name="racute" unicode="&#x155;" horiz-adv-x="430" 
d="M425 484q10 0 29 -4l-28 -230q-33 17 -54 17q-85 0 -102 -130l-17 -137h-233l57 467h234q-9 -41 -26 -83l10 -5q32 58 61.5 81.5t68.5 23.5zM176 596l116 146l117 -73l-146 -128z" />
    <glyph glyph-name="Rcommaaccent" unicode="&#x156;" horiz-adv-x="701" 
d="M607 300q-23 -18 -42.5 -26t-56.5 -13l145 -261h-262l-60 161q-19 52 -26 89l-7 -1q1 -22 1 -49q0 -46 -5 -88l-13 -112h-242l82 667h265q81 0 126.5 -12t83.5 -42q78 -65 78 -166q0 -93 -67 -147zM360 488h-19l-15 -120h20q42 0 66.5 18t24.5 48q0 54 -77 54zM447 -62
l-125 -212h-155l84 212h196z" />
    <glyph glyph-name="rcommaaccent" unicode="&#x157;" horiz-adv-x="430" 
d="M425 484q10 0 29 -4l-28 -230q-33 17 -54 17q-85 0 -102 -130l-17 -137h-233l57 467h234q-9 -41 -26 -83l10 -5q32 58 61.5 81.5t68.5 23.5zM327 -62l-125 -212h-155l84 212h196z" />
    <glyph glyph-name="Rcaron" unicode="&#x158;" horiz-adv-x="701" 
d="M607 300q-23 -18 -42.5 -26t-56.5 -13l145 -261h-262l-60 161q-19 52 -26 89l-7 -1q1 -22 1 -49q0 -46 -5 -88l-13 -112h-242l82 667h265q81 0 126.5 -12t83.5 -42q78 -65 78 -166q0 -93 -67 -147zM360 488h-19l-15 -120h20q42 0 66.5 18t24.5 48q0 54 -77 54zM518 918
l55 -101l-187 -101l-161 115l67 87l97 -70z" />
    <glyph glyph-name="rcaron" unicode="&#x159;" horiz-adv-x="430" 
d="M425 484q10 0 29 -4l-28 -230q-33 17 -54 17q-85 0 -102 -130l-17 -137h-233l57 467h234q-9 -41 -26 -83l10 -5q32 58 61.5 81.5t68.5 23.5zM398 735l55 -101l-187 -101l-161 115l67 87l97 -70z" />
    <glyph glyph-name="Sacute" unicode="&#x15a;" horiz-adv-x="607" 
d="M556 636q24 -12 42 -22l-89 -177q-66 60 -146 60q-20 0 -33 -10t-13 -25q0 -16 13.5 -24t59.5 -19q73 -19 108 -44q34 -22 53.5 -62.5t19.5 -86.5q0 -101 -85 -172t-206 -71q-98 0 -202 48q-44 22 -62 32l90 180q30 -37 75 -58t92 -21q26 0 41 10.5t15 28.5q0 33 -63 47
q-62 12 -95 30q-96 47 -96 164q0 100 80 169.5t194 69.5q105 0 207 -47zM256 779l127 137l117 -73l-157 -119z" />
    <glyph glyph-name="sacute" unicode="&#x15b;" horiz-adv-x="476" 
d="M271 493q91 0 198 -42l-57 -141q-53 39 -108 39q-40 0 -40 -24q0 -20 27 -26l42 -10q52 -11 82 -45.5t30 -82.5q0 -77 -64.5 -125.5t-165.5 -48.5q-78 0 -167 34q-6 3 -22 9.5t-26 10.5l56 141q74 -49 137 -49q37 0 37 25q0 24 -52 36q-70 16 -98.5 43.5t-28.5 78.5
q0 77 62.5 127t157.5 50zM191 596l116 146l117 -73l-146 -128z" />
    <glyph glyph-name="Scircumflex" unicode="&#x15c;" horiz-adv-x="607" 
d="M556 636q24 -12 42 -22l-89 -177q-66 60 -146 60q-20 0 -33 -10t-13 -25q0 -16 13.5 -24t59.5 -19q73 -19 108 -44q34 -22 53.5 -62.5t19.5 -86.5q0 -101 -85 -172t-206 -71q-98 0 -202 48q-44 22 -62 32l90 180q30 -37 75 -58t92 -21q26 0 41 10.5t15 28.5q0 33 -63 47
q-62 12 -95 30q-96 47 -96 164q0 100 80 169.5t194 69.5q105 0 207 -47zM250 716l-55 101l187 101l161 -115l-66 -87l-98 70z" />
    <glyph glyph-name="scircumflex" unicode="&#x15d;" horiz-adv-x="476" 
d="M271 493q91 0 198 -42l-57 -141q-53 39 -108 39q-40 0 -40 -24q0 -20 27 -26l42 -10q52 -11 82 -45.5t30 -82.5q0 -77 -64.5 -125.5t-165.5 -48.5q-78 0 -167 34q-6 3 -22 9.5t-26 10.5l56 141q74 -49 137 -49q37 0 37 25q0 24 -52 36q-70 16 -98.5 43.5t-28.5 78.5
q0 77 62.5 127t157.5 50zM174 533l-55 101l187 101l161 -115l-66 -87l-98 70z" />
    <glyph glyph-name="Scedilla" unicode="&#x15e;" horiz-adv-x="607" 
d="M556 636q24 -12 42 -22l-89 -177q-66 60 -146 60q-20 0 -33 -10t-13 -25q0 -16 13.5 -24t59.5 -19q73 -19 108 -44q34 -22 53.5 -62.5t19.5 -86.5q0 -101 -85 -172t-206 -71q-98 0 -202 48q-44 22 -62 32l90 180q30 -37 75 -58t92 -21q26 0 41 10.5t15 28.5q0 33 -63 47
q-62 12 -95 30q-96 47 -96 164q0 100 80 169.5t194 69.5q105 0 207 -47zM118 -190l152 147l116 -82l-158 -143z" />
    <glyph glyph-name="scedilla" unicode="&#x15f;" horiz-adv-x="476" 
d="M271 493q91 0 198 -42l-57 -141q-53 39 -108 39q-40 0 -40 -24q0 -20 27 -26l42 -10q52 -11 82 -45.5t30 -82.5q0 -77 -64.5 -125.5t-165.5 -48.5q-78 0 -167 34q-6 3 -22 9.5t-26 10.5l56 141q74 -49 137 -49q37 0 37 25q0 24 -52 36q-70 16 -98.5 43.5t-28.5 78.5
q0 77 62.5 127t157.5 50zM78 -180l134 135l106 -76l-140 -129z" />
    <glyph glyph-name="Scaron" unicode="&#x160;" horiz-adv-x="607" 
d="M556 636q24 -12 42 -22l-89 -177q-66 60 -146 60q-20 0 -33 -10t-13 -25q0 -16 13.5 -24t59.5 -19q73 -19 108 -44q34 -22 53.5 -62.5t19.5 -86.5q0 -101 -85 -172t-206 -71q-98 0 -202 48q-44 22 -62 32l90 180q30 -37 75 -58t92 -21q26 0 41 10.5t15 28.5q0 33 -63 47
q-62 12 -95 30q-96 47 -96 164q0 100 80 169.5t194 69.5q105 0 207 -47zM488 918l55 -101l-187 -101l-161 115l67 87l97 -70z" />
    <glyph glyph-name="scaron" unicode="&#x161;" horiz-adv-x="476" 
d="M271 493q91 0 198 -42l-57 -141q-53 39 -108 39q-40 0 -40 -24q0 -20 27 -26l42 -10q52 -11 82 -45.5t30 -82.5q0 -77 -64.5 -125.5t-165.5 -48.5q-78 0 -167 34q-6 3 -22 9.5t-26 10.5l56 141q74 -49 137 -49q37 0 37 25q0 24 -52 36q-70 16 -98.5 43.5t-28.5 78.5
q0 77 62.5 127t157.5 50zM416 735l55 -101l-187 -101l-161 115l67 87l97 -70z" />
    <glyph glyph-name="Tcedilla" unicode="&#x162;" horiz-adv-x="489" 
d="M60 667h476l-26 -210l-115 7l-57 -464h-245l57 464l-115 -7zM38 -190l152 147l116 -82l-158 -143z" />
    <glyph glyph-name="tcedilla" unicode="&#x163;" horiz-adv-x="353" 
d="M362 288l-56 6l-36 -294h-231l36 294l-60 -6l23 183l57 -10l21 164h231l-20 -164l57 6zM38 -180l134 135l106 -76l-140 -129z" />
    <glyph glyph-name="Tcaron" unicode="&#x164;" horiz-adv-x="489" 
d="M536 667h-476l-25 -210l115 7l-57 -464h245l57 464l115 -7zM428 918l55 -101l-187 -101l-161 115l67 87l97 -70z" />
    <glyph glyph-name="tcaron" unicode="&#x165;" horiz-adv-x="586" 
d="M362 288l-56 6l-36 -294h-231l36 294l-60 -6l23 183l57 -10l21 164h231l-20 -164l57 6zM656 727l-126 -218h-152l85 218h193z" />
    <glyph glyph-name="Utilde" unicode="&#x168;" horiz-adv-x="758" 
d="M500 667h245l-45 -369q-14 -107 -31.5 -152t-61.5 -85q-87 -78 -226 -78q-147 0 -236 72q-75 61 -75 175q0 26 3 53l48 384h245l-45 -369q-5 -40 -5 -49q0 -62 60 -62q34 0 52 23.5t26 78.5zM509 829q12 0 19 5.5t15 22.5l83 -42q-34 -51 -57.5 -69.5t-54.5 -18.5
q-19 0 -58 13l-34 12q-21 6 -28 6q-27 0 -39 -31l-90 28q33 56 64.5 79t74.5 23q25 0 70 -18q26 -10 35 -10z" />
    <glyph glyph-name="utilde" unicode="&#x169;" horiz-adv-x="633" 
d="M383 467h232l-32 -257q-8 -66 -24.5 -101.5t-52.5 -64.5q-73 -57 -191 -57q-128 0 -198.5 52t-70.5 147q0 24 3 54l28 227h232l-28 -227q-4 -31 -4 -41q0 -15 9.5 -25t24.5 -10q21 0 30 13.5t13 53.5zM455 673l74 -38q-48 -91 -109 -91q-22 0 -57 17q-22 11 -37 11
q-27 0 -46 -32l-77 40q38 50 63.5 68.5t53.5 18.5q22 0 52 -13l23 -10q13 -5 20 -5q17 0 34 25z" />
    <glyph glyph-name="Umacron" unicode="&#x16a;" horiz-adv-x="758" 
d="M500 667h245l-45 -369q-14 -107 -31.5 -152t-61.5 -85q-87 -78 -226 -78q-147 0 -236 72q-75 61 -75 175q0 26 3 53l48 384h245l-45 -369q-5 -40 -5 -49q0 -62 60 -62q34 0 52 23.5t26 78.5zM615 746h-364l12 104h364z" />
    <glyph glyph-name="umacron" unicode="&#x16b;" horiz-adv-x="633" 
d="M383 467h232l-32 -257q-8 -66 -24.5 -101.5t-52.5 -64.5q-73 -57 -191 -57q-128 0 -198.5 52t-70.5 147q0 24 3 54l28 227h232l-28 -227q-4 -31 -4 -41q0 -15 9.5 -25t24.5 -10q21 0 30 13.5t13 53.5zM518 546h-340l12 100h340z" />
    <glyph glyph-name="Ubreve" unicode="&#x16c;" horiz-adv-x="758" 
d="M500 667h245l-45 -369q-14 -107 -31.5 -152t-61.5 -85q-87 -78 -226 -78q-147 0 -236 72q-75 61 -75 175q0 26 3 53l48 384h245l-45 -369q-5 -40 -5 -49q0 -62 60 -62q34 0 52 23.5t26 78.5zM522 875h102q-11 -61 -53 -103q-50 -49 -133 -49q-70 0 -112 31
q-54 39 -56 121h102q4 -26 19 -40q16 -16 52 -16q31 0 51 15t28 41z" />
    <glyph glyph-name="ubreve" unicode="&#x16d;" horiz-adv-x="633" 
d="M383 467h232l-32 -257q-8 -66 -24.5 -101.5t-52.5 -64.5q-73 -57 -191 -57q-128 0 -198.5 52t-70.5 147q0 24 3 54l28 227h232l-28 -227q-4 -31 -4 -41q0 -15 9.5 -25t24.5 -10q21 0 30 13.5t13 53.5zM442 691h102q-11 -61 -53 -103q-49 -49 -134 -49q-69 0 -111 31
q-54 39 -56 121h102q4 -26 19 -40q16 -16 52 -16q31 0 51 15t28 41z" />
    <glyph glyph-name="Uring" unicode="&#x16e;" horiz-adv-x="758" 
d="M500 667h245l-45 -369q-14 -107 -31.5 -152t-61.5 -85q-87 -78 -226 -78q-147 0 -236 72q-75 61 -75 175q0 26 3 53l48 384h245l-45 -369q-5 -40 -5 -49q0 -62 60 -62q34 0 52 23.5t26 78.5zM579 826q0 -51 -40 -81q-36 -28 -104 -28t-103 27q-41 31 -41 82q0 49 40 80
q36 28 104 28q69 0 104 -28q40 -32 40 -80zM435 860q-22 0 -35 -8q-15 -10 -15 -28q0 -16 15 -25q13 -8 35 -8t36 8t14 27q0 16 -14 26q-13 8 -36 8z" />
    <glyph glyph-name="uring" unicode="&#x16f;" horiz-adv-x="633" 
d="M383 467h232l-32 -257q-8 -66 -24.5 -101.5t-52.5 -64.5q-73 -57 -191 -57q-128 0 -198.5 52t-70.5 147q0 24 3 54l28 227h232l-28 -227q-4 -31 -4 -41q0 -15 9.5 -25t24.5 -10q21 0 30 13.5t13 53.5zM494 645q0 -51 -40 -81q-36 -28 -104 -28t-103 27q-41 31 -41 82
q0 49 40 80q36 28 104 28q69 0 104 -28q40 -32 40 -80zM350 679q-22 0 -35 -8q-15 -10 -15 -28q0 -16 15 -25q13 -8 35 -8t36 8t14 27q0 16 -14 26q-13 8 -36 8z" />
    <glyph glyph-name="Uhungarumlaut" unicode="&#x170;" horiz-adv-x="758" 
d="M500 667h245l-45 -369q-14 -107 -31.5 -152t-61.5 -85q-87 -78 -226 -78q-147 0 -236 72q-75 61 -75 175q0 26 3 53l48 384h245l-45 -369q-5 -40 -5 -49q0 -62 60 -62q34 0 52 23.5t26 78.5zM464 779l111 137l111 -73l-143 -119zM246 779l111 137l111 -73l-143 -119z" />
    <glyph glyph-name="uhungarumlaut" unicode="&#x171;" horiz-adv-x="633" 
d="M383 467h232l-32 -257q-8 -66 -24.5 -101.5t-52.5 -64.5q-73 -57 -191 -57q-128 0 -198.5 52t-70.5 147q0 24 3 54l28 227h232l-28 -227q-4 -31 -4 -41q0 -15 9.5 -25t24.5 -10q21 0 30 13.5t13 53.5zM160 596l100 146l112 -73l-133 -128zM364 596l100 146l111 -73
l-132 -128z" />
    <glyph glyph-name="Uogonek" unicode="&#x172;" horiz-adv-x="758" 
d="M500 667h245l-48 -392q-6 -48 -9.5 -71.5t-18.5 -61.5t-39 -65q-31 -34 -86 -64q-67 -36 -76 -42q-34 -23 -34 -48q0 -14 10 -23q9 -9 28 -9q36 0 63 25l-33 -95q-42 -23 -95 -23q-49 0 -73 22q-24 21 -24 59q0 41 39 80q15 15 29 24q-166 0 -250 87q-59 63 -59 158
q0 15 5 63l47 376h245l-45 -369q-5 -45 -5 -49q0 -30 17 -47q15 -15 43 -15q30 0 48 18q23 23 30 84z" />
    <glyph glyph-name="uogonek" unicode="&#x173;" horiz-adv-x="633" 
d="M383 467h232l-32 -257q-10 -90 -49 -138q-28 -34 -85 -66q-52 -29 -66 -42q-22 -18 -22 -41q0 -14 9 -20q9 -8 27 -8q29 0 55 23l-29 -87q-37 -21 -87 -21q-46 0 -69 23q-19 17 -19 49q0 42 35 75q16 15 40 30q-161 0 -228 71q-49 53 -49 132q0 14 5 61l26 216h232
l-27 -216q-1 -7 -2 -17.5t-2 -17.5t-1 -11q0 -23 11 -33q10 -8 23 -8q16 0 26 8q11 10 17 59z" />
    <glyph glyph-name="Ydieresis" unicode="&#x178;" horiz-adv-x="684" 
d="M745 667l-281 -384l-35 -283h-240l36 289l-178 378h265l34 -109q10 -33 13 -76h9q8 30 24 63l62 122h291zM184 833q0 42 29 71t71 29t71 -29t29 -71t-29 -71t-71 -29t-71 29t-29 71zM431 833q0 42 29 71t71 29t71 -29t29 -71t-29 -71t-71 -29t-71 29t-29 71z" />
    <glyph glyph-name="Zacute" unicode="&#x179;" horiz-adv-x="633" 
d="M435 194l181 4l-24 -198h-607l8 60l233 328q27 37 41 52.5t31 25.5l-3 8q-33 -10 -87 -13l-153 -4l26 210h582l-8 -59l-247 -348q-37 -51 -65 -71l4 -8q36 11 88 13zM286 779l127 137l117 -73l-157 -119z" />
    <glyph glyph-name="zacute" unicode="&#x17a;" horiz-adv-x="515" 
d="M62 467h461l-4 -30l-144 -204q-23 -32 -57 -56l4 -11q22 11 58 11h107l-22 -177h-472l4 35l139 207q33 42 58 57l-5 9q-27 -15 -64 -15h-84zM201 596l116 146l117 -73l-146 -128z" />
    <glyph glyph-name="Zdotaccent" unicode="&#x17b;" horiz-adv-x="633" 
d="M435 194l181 4l-24 -198h-607l8 60l233 328q27 37 41 52.5t31 25.5l-3 8q-33 -10 -87 -13l-153 -4l26 210h582l-8 -59l-247 -348q-37 -51 -65 -71l4 -8q36 11 88 13zM264 825q0 43 30 73t73 30q42 0 72 -30t30 -73q0 -42 -30 -72t-72 -30q-43 0 -73 30t-30 72z" />
    <glyph glyph-name="zdotaccent" unicode="&#x17c;" horiz-adv-x="515" 
d="M62 467h461l-4 -30l-144 -204q-23 -32 -57 -56l4 -11q22 11 58 11h107l-22 -177h-472l4 35l139 207q33 42 58 57l-5 9q-27 -15 -64 -15h-84zM193 642q0 43 30 73t73 30q42 0 72 -30t30 -73q0 -42 -30 -72t-72 -30q-43 0 -73 30t-30 72z" />
    <glyph glyph-name="Zcaron" unicode="&#x17d;" horiz-adv-x="633" 
d="M435 194l181 4l-24 -198h-607l8 60l233 328q27 37 41 52.5t31 25.5l-3 8q-33 -10 -87 -13l-153 -4l26 210h582l-8 -59l-247 -348q-37 -51 -65 -71l4 -8q36 11 88 13zM494 918l55 -101l-187 -101l-161 115l67 87l97 -70z" />
    <glyph glyph-name="zcaron" unicode="&#x17e;" horiz-adv-x="515" 
d="M62 467h461l-4 -30l-144 -204q-23 -32 -57 -56l4 -11q22 11 58 11h107l-22 -177h-472l4 35l139 207q33 42 58 57l-5 9q-27 -15 -64 -15h-84zM425 735l55 -101l-187 -101l-161 115l67 87l97 -70z" />
    <glyph glyph-name="uni018F" unicode="&#x18f;" horiz-adv-x="782" 
d="M287 431l-220 37q49 105 141 161q88 54 209 54q161 0 252 -93t91 -238q0 -168 -103 -273q-95 -96 -266 -96q-162 0 -250 92q-111 115 -90 311h466q-2 55 -35 88q-29 29 -80 29q-45 0 -74 -21q-27 -18 -41 -51zM502 258h-245q3 -43 31 -69q29 -26 81 -26q53 0 85 23
q36 25 48 72z" />
    <glyph glyph-name="florin" unicode="&#x192;" horiz-adv-x="707" 
d="M465 321l-69 -292q-25 -110 -77 -160q-65 -62 -204 -62q-41 0 -69 6l40 169h12q46 0 66 14q23 16 32 57l66 268h-60l31 124h60l27 110q8 30 14 48t20 42.5t34 42.5q56 52 147 52q53 0 107 -22l-40 -167q-20 12 -39 12q-21 0 -33 -12q-10 -8 -16 -32l-18 -74h69l-31 -124
h-69z" />
    <glyph glyph-name="uni01CF" unicode="&#x1cf;" horiz-adv-x="379" 
d="M121 667h245l-82 -667h-245zM378 918l55 -101l-187 -101l-161 115l67 87l97 -70z" />
    <glyph glyph-name="uni01D0" unicode="&#x1d0;" horiz-adv-x="332" 
d="M81 467h231l-57 -467h-231zM334 735l55 -101l-187 -101l-161 115l67 87l97 -70z" />
    <glyph glyph-name="uni01DD" unicode="&#x1dd;" horiz-adv-x="612" 
d="M31 275h331q10 53 -12 77q-12 14 -38 14q-24 0 -39 -14q-15 -15 -21 -32l-196 38q37 63 101 99q66 37 159 37q126 0 201 -73q69 -67 69 -171q0 -117 -78 -193q-72 -71 -201 -71q-137 0 -208 69q-38 36 -57 94t-11 126zM348 174h-107q-2 -30 15 -47q13 -13 34 -13
q24 0 37 13q17 16 21 47z" />
    <glyph glyph-name="Gcaron" unicode="&#x1e6;" horiz-adv-x="807" 
d="M418 388h365v-6q0 -192 -110 -301q-99 -98 -267 -98q-79 0 -142 20.5t-119 75.5q-98 96 -98 238q0 152 102 256q108 111 294 111q217 0 319 -169l-227 -89q-28 56 -89 56t-102 -38q-55 -52 -55 -137q0 -62 38 -102q35 -36 94 -36q83 0 107 73h-130zM572 918l55 -101
l-187 -101l-161 115l67 87l97 -70z" />
    <glyph glyph-name="gcaron" unicode="&#x1e7;" horiz-adv-x="644" 
d="M397 467h228l-52 -421q-10 -82 -31.5 -128t-65.5 -79q-88 -68 -221 -68q-106 0 -213 41q-10 3 -30 12l62 152q82 -50 150 -50q37 0 67 15.5t44 41.5q13 26 28 100l-7 2q-22 -48 -53 -68t-83 -20q-83 0 -138 63t-55 158q0 111 66.5 188t162.5 77q103 0 138 -95l7 2l-2 27
l-1 34zM312 163q28 0 46.5 19.5t18.5 49.5q0 29 -15.5 47.5t-39.5 18.5q-28 0 -47.5 -21.5t-19.5 -51.5q0 -28 16 -45t41 -17zM483 735l55 -101l-187 -101l-161 115l67 87l97 -70z" />
    <glyph glyph-name="AEacute" unicode="&#x1fc;" horiz-adv-x="920" 
d="M289 667h478l31 -175h-203l12 -71h204l29 -170h-203l13 -70h203l32 -181h-446l-4 88h-165l-32 -88h-259zM375 370l-48 -131h93l-12 131q-1 9 -1 32q0 25 4 57l-11 2q-8 -45 -25 -91zM436 779l127 137l117 -73l-157 -119z" />
    <glyph glyph-name="aeacute" unicode="&#x1fd;" horiz-adv-x="945" 
d="M913 203h-331q-1 -5 -1 -16q0 -28 14.5 -45t37.5 -17q21 0 34 11q9 9 16 27h222q-25 -80 -95 -127q-72 -49 -172 -49q-132 0 -208 73q-39 -41 -83 -57q-43 -16 -110 -16q-102 0 -158 43q-60 46 -60 124q0 62 44 104q53 51 153 51q49 0 85 -14q39 -16 63 -41q3 15 3 31
q0 43 -38 66q-31 19 -89 19q-88 0 -178 -46l17 133q84 36 180 36q130 0 191 -67q70 67 194 67q127 0 203 -78q70 -73 70 -171q0 -22 -4 -41zM295 97q34 0 55 14q23 15 23 40q0 24 -20 38t-60 14q-38 0 -56 -13q-20 -15 -20 -40q0 -24 21 -39q19 -14 57 -14zM592 299h108
q0 25 -13 43.5t-37 18.5t-40 -17.5t-18 -44.5zM403 596l116 146l117 -73l-146 -128z" />
    <glyph glyph-name="Scommaaccent" unicode="&#x218;" horiz-adv-x="607" 
d="M556 636q24 -12 42 -22l-89 -177q-66 60 -146 60q-20 0 -33 -10t-13 -25q0 -16 13.5 -24t59.5 -19q73 -19 108 -44q34 -22 53.5 -62.5t19.5 -86.5q0 -101 -85 -172t-206 -71q-98 0 -202 48q-44 22 -62 32l90 180q30 -37 75 -58t92 -21q26 0 41 10.5t15 28.5q0 33 -63 47
q-62 12 -95 30q-96 47 -96 164q0 100 80 169.5t194 69.5q105 0 207 -47zM397 -62l-125 -212h-155l84 212h196z" />
    <glyph glyph-name="scommaaccent" unicode="&#x219;" horiz-adv-x="476" 
d="M271 493q91 0 198 -42l-57 -141q-53 39 -108 39q-40 0 -40 -24q0 -20 27 -26l42 -10q52 -11 82 -45.5t30 -82.5q0 -77 -64.5 -125.5t-165.5 -48.5q-78 0 -167 34q-6 3 -22 9.5t-26 10.5l56 141q74 -49 137 -49q37 0 37 25q0 24 -52 36q-70 16 -98.5 43.5t-28.5 78.5
q0 77 62.5 127t157.5 50zM327 -62l-125 -212h-155l84 212h196z" />
    <glyph glyph-name="Tcommaaccent" unicode="&#x21a;" horiz-adv-x="489" 
d="M60 667h476l-26 -210l-115 7l-57 -464h-245l57 464l-115 -7zM319 -62l-125 -212h-155l84 212h196z" />
    <glyph glyph-name="tcommaaccent" unicode="&#x21b;" horiz-adv-x="353" 
d="M362 288l-56 6l-36 -294h-231l36 294l-60 -6l23 183l57 -10l21 164h231l-20 -164l57 6zM247 -62l-125 -212h-155l84 212h196z" />
    <glyph glyph-name="uni0228" unicode="&#x228;" horiz-adv-x="549" 
d="M121 667h438l-21 -174h-197l-9 -73h180l-20 -165h-180l-9 -76h204l-22 -179h-446zM103 -190l152 147l116 -82l-158 -143z" />
    <glyph glyph-name="uni0229" unicode="&#x229;" horiz-adv-x="618" 
d="M587 202h-331q-1 -6 -1 -17q0 -29 14 -46t37 -17q34 0 50 40h222q-14 -40 -27 -61t-38 -43q-82 -71 -205 -71q-125 0 -202.5 67t-77.5 175q0 113 82.5 189t205.5 76q116 0 195.5 -70.5t79.5 -173.5q0 -6 -4 -48zM322 360q-47 0 -57 -62h108q-1 62 -51 62zM165 -180
l134 135l106 -76l-140 -129z" />
    <glyph glyph-name="uni0237" unicode="&#x237;" horiz-adv-x="337" 
d="M86 467h231l-85 -696h-231z" />
    <glyph glyph-name="uni0259" unicode="&#x259;" horiz-adv-x="612" 
d="M31 275h331q10 53 -12 77q-12 14 -38 14q-24 0 -39 -14q-15 -15 -21 -32l-196 38q37 63 101 99q66 37 159 37q126 0 201 -73q69 -67 69 -171q0 -117 -78 -193q-72 -71 -201 -71q-137 0 -208 69q-38 36 -57 94t-11 126zM348 174h-107q-2 -30 15 -47q13 -13 34 -13
q24 0 37 13q17 16 21 47z" />
    <glyph glyph-name="afii57929" unicode="&#x2bc;" 
d="M426 667l-126 -218h-152l85 218h193z" />
    <glyph glyph-name="circumflex" unicode="&#x2c6;" 
d="M180 533l-55 101l187 101l161 -115l-66 -87l-98 70z" />
    <glyph glyph-name="caron" unicode="&#x2c7;" 
d="M418 735l55 -101l-187 -101l-161 115l67 87l97 -70z" />
    <glyph glyph-name="uni02C9" unicode="&#x2c9;" 
d="M458 546h-340l12 100h340z" />
    <glyph glyph-name="breve" unicode="&#x2d8;" 
d="M382 691h102q-11 -61 -53 -103q-49 -49 -134 -49q-69 0 -111 31q-54 39 -56 121h102q4 -26 19 -40q16 -16 52 -16q31 0 51 15t28 41z" />
    <glyph glyph-name="dotaccent" unicode="&#x2d9;" 
d="M198 642q0 43 30 73t73 30q42 0 72 -30t30 -73q0 -42 -30 -72t-72 -30q-43 0 -73 30t-30 72z" />
    <glyph glyph-name="ring" unicode="&#x2da;" 
d="M434 645q0 -51 -40 -81q-36 -28 -104 -28t-103 27q-41 31 -41 82q0 49 40 80q36 28 104 28q69 0 104 -28q40 -32 40 -80zM290 679q-22 0 -35 -8q-15 -10 -15 -28q0 -16 15 -25q13 -8 35 -8t36 8t14 27q0 16 -14 26q-13 8 -36 8z" />
    <glyph glyph-name="ogonek" unicode="&#x2db;" 
d="M318 0q-29 -23 -36 -31q-18 -20 -18 -40q0 -12 9 -20t27 -8q29 0 55 23l-29 -87q-37 -21 -87 -21q-46 0 -69 23q-19 17 -19 49q0 42 35 75q20 18 50 37h82z" />
    <glyph glyph-name="tilde" unicode="&#x2dc;" 
d="M389 673l74 -38q-48 -91 -109 -91q-22 0 -57 17q-22 11 -37 11q-27 0 -46 -32l-77 40q38 50 63.5 68.5t53.5 18.5q22 0 52 -13l23 -10q13 -5 20 -5q17 0 34 25z" />
    <glyph glyph-name="hungarumlaut" unicode="&#x2dd;" 
d="M110 596l100 146l112 -73l-133 -128zM314 596l100 146l111 -73l-132 -128z" />
    <glyph glyph-name="acutecomb" unicode="&#x301;" horiz-adv-x="2" 
d="M-141 641l-149 -108l-75 70l127 120z" />
    <glyph glyph-name="uni0394" unicode="&#x394;" horiz-adv-x="667" 
d="M622 0h-634l245 667h141zM304 508l-130 -390h260z" />
    <glyph glyph-name="uni0394" unicode="&#x2206;" horiz-adv-x="667" 
d="M622 0h-634l245 667h141zM304 508l-130 -390h260z" />
    <glyph glyph-name="uni03A9" unicode="&#x3a9;" horiz-adv-x="667" 
d="M294 0h-271v117h136q-68 43 -99 94q-37 65 -37 155q0 137 86.5 227t218.5 90t218.5 -90t86.5 -227q0 -122 -68 -196q-22 -24 -68 -53h136v-117h-270v104q37 21 59 42t39 50q36 63 36 156q0 94 -47.5 154t-121.5 60q-73 0 -121 -60.5t-48 -153.5q0 -130 69 -200
q28 -28 66 -48v-104z" />
    <glyph glyph-name="uni03A9" unicode="&#x2126;" horiz-adv-x="667" 
d="M294 0h-271v117h136q-68 43 -99 94q-37 65 -37 155q0 137 86.5 227t218.5 90t218.5 -90t86.5 -227q0 -122 -68 -196q-22 -24 -68 -53h136v-117h-270v104q37 21 59 42t39 50q36 63 36 156q0 94 -47.5 154t-121.5 60q-73 0 -121 -60.5t-48 -153.5q0 -130 69 -200
q28 -28 66 -48v-104z" />
    <glyph glyph-name="pi" unicode="&#x3c0;" horiz-adv-x="766" 
d="M352 -1h-226v313h-78v154h690v-154h-78v-313h-226v313h-82v-313z" />
    <glyph glyph-name="afii10023" unicode="&#x401;" horiz-adv-x="549" 
d="M121 667h438l-21 -174h-197l-9 -73h180l-20 -165h-180l-9 -76h204l-22 -179h-446zM138 833q0 42 29 71t71 29t71 -29t29 -71t-29 -71t-71 -29t-71 29t-29 71zM385 833q0 42 29 71t71 29t71 -29t29 -71t-29 -71t-71 -29t-71 29t-29 71z" />
    <glyph glyph-name="afii10051" unicode="&#x402;" horiz-adv-x="785" 
d="M104 0l56 464l-120 -6l25 209h586l-25 -209l-224 6l-10 -88q63 23 130 23q115 0 176 -56q57 -51 57 -142q0 -99 -61 -158t-185 -59q-65 0 -115 16l49 143q12 -12 30 -12q23 0 35 13q13 14 13 43q0 23 -15 36q-18 16 -53 16q-40 0 -80 -15l-27 -224h-242z" />
    <glyph glyph-name="afii10052" unicode="&#x403;" horiz-adv-x="535" 
d="M121 667h438l-22 -178h-196l-60 -489h-242zM266 779l127 137l117 -73l-157 -119z" />
    <glyph glyph-name="afii10053" unicode="&#x404;" horiz-adv-x="681" 
d="M625 247l-26 -217q-91 -47 -206 -47q-164 0 -257 93q-89 89 -89 234q0 86 29 156.5t78 117.5q103 99 279 99q139 0 238 -56l-27 -221q-33 41 -76 64q-46 23 -101 23q-51 0 -90 -23q-38 -24 -56 -60h217l-18 -146h-217q10 -44 48 -67q39 -24 98 -24q56 0 101 21
q38 17 75 53z" />
    <glyph glyph-name="afii10054" unicode="&#x405;" horiz-adv-x="607" 
d="M556 636q24 -12 42 -22l-89 -177q-66 60 -146 60q-20 0 -33 -10t-13 -25q0 -16 13.5 -24t59.5 -19q73 -19 108 -44q34 -22 53.5 -62.5t19.5 -86.5q0 -101 -85 -172t-206 -71q-98 0 -202 48q-44 22 -62 32l90 180q30 -37 75 -58t92 -21q26 0 41 10.5t15 28.5q0 33 -63 47
q-62 12 -95 30q-96 47 -96 164q0 100 80 169.5t194 69.5q105 0 207 -47z" />
    <glyph glyph-name="afii10055" unicode="&#x406;" horiz-adv-x="379" 
d="M121 667h245l-82 -667h-245z" />
    <glyph glyph-name="afii10056" unicode="&#x407;" horiz-adv-x="400" 
d="M293 0h-242l82 667h242zM382 902q35 0 57 -22q22 -24 22 -60q0 -49 -30 -77q-25 -23 -61 -23q-35 0 -57 22q-22 24 -22 60q0 49 30 77q25 23 61 23zM176 902q35 0 57 -22q22 -24 22 -60q0 -49 -30 -77q-25 -23 -61 -23q-35 0 -57 22q-22 24 -22 60q0 49 30 77
q25 23 61 23z" />
    <glyph glyph-name="afii10057" unicode="&#x408;" horiz-adv-x="456" 
d="M201 667h242l-57 -467q-8 -64 -22 -96t-46 -59q-72 -62 -173 -62q-87 0 -179 52l78 216q28 -60 67 -60q19 0 26.5 12.5t12.5 47.5z" />
    <glyph glyph-name="afii10058" unicode="&#x409;" horiz-adv-x="1118" 
d="M759 413h84q138 0 195 -56q50 -50 50 -132q0 -116 -83 -176q-70 -49 -208 -49h-328l59 471h-136l-27 -215q-16 -126 -85 -195q-72 -72 -206 -72q-51 0 -94 8l22 194q16 -6 39 -6q48 0 74 26q28 28 37 97l44 359h594zM727 156h23q50 0 71 10q29 14 29 50q0 26 -19 37
q-17 10 -62 10h-29z" />
    <glyph glyph-name="afii10059" unicode="&#x40a;" horiz-adv-x="1072" 
d="M744 667l-31 -254h84q138 0 195 -56q50 -50 50 -132q0 -116 -83 -176q-70 -49 -208 -49h-328l32 257h-144l-30 -257h-242l82 667h242l-31 -254h142l32 254h238zM681 156h23q50 0 71 10q28 13 28 44q0 26 -19 37q-17 10 -62 10h-28z" />
    <glyph glyph-name="afii10060" unicode="&#x40b;" horiz-adv-x="783" 
d="M723 0h-240l15 131q4 26 4 40q0 25 -17 37q-18 13 -53 13q-33 0 -61 -6l-26 -215h-242l57 464l-120 -6l25 209h586l-25 -209l-224 6l-10 -78q49 12 116 12q111 0 169 -36q71 -44 71 -137q0 -23 -7 -79z" />
    <glyph glyph-name="afii10061" unicode="&#x40c;" horiz-adv-x="732" 
d="M121 667h242l-22 -173q-8 -61 -21 -116l7 -2q20 51 42 85l23 37l106 169h282l-260 -338l170 -329h-255l-85 192q-23 52 -34 98l-7 -1v-20q0 -39 -5 -77l-23 -192h-242zM376 779l127 137l117 -73l-157 -119z" />
    <glyph glyph-name="afii10062" unicode="&#x40e;" horiz-adv-x="714" 
d="M40 667h259l72 -188q15 -39 17 -73h8q11 43 26 75l90 186h263l-389 -667h-266l87 153q25 44 53 73zM506 904l138 -50q-27 -67 -83 -99q-53 -30 -142 -30q-84 0 -137 30q-57 35 -80 99l144 50q4 -32 23 -48q18 -15 51 -15t53 13q25 16 33 50z" />
    <glyph glyph-name="afii10145" unicode="&#x40f;" horiz-adv-x="761" 
d="M39 0l82 667h242l-58 -471h142l58 471h243l-82 -667h-212l-19 -149h-206l20 149h-210z" />
    <glyph glyph-name="afii10017" unicode="&#x410;" horiz-adv-x="708" 
d="M428 89h-164l-32 -89h-260l308 667h276l124 -667h-247zM365 362l-45 -121h92l-10 121q-2 22 -2 47q0 20 3 53h-8q-13 -55 -30 -100z" />
    <glyph glyph-name="afii10018" unicode="&#x411;" horiz-adv-x="677" 
d="M121 667h518l-20 -178h-287l-10 -76h80q136 0 195 -56q50 -48 50 -134q0 -117 -83 -174q-70 -49 -208 -49h-317zM291 156h23q50 0 71 10q29 14 29 51q0 24 -19 36q-17 10 -62 10h-29z" />
    <glyph glyph-name="afii10019" unicode="&#x412;" horiz-adv-x="681" 
d="M530 348l1 -6q52 -11 80.5 -48.5t28.5 -94.5q0 -88 -64 -143.5t-163 -55.5h-374l82 667h299q156 0 204 -98q17 -37 17 -72q0 -59 -29 -98t-82 -51zM367 507h-34l-12 -96h21q39 0 57 12t18 40q0 44 -50 44zM345 271h-41l-14 -115h16q54 0 78 15.5t24 53.5q0 46 -63 46z
" />
    <glyph glyph-name="afii10020" unicode="&#x413;" horiz-adv-x="535" 
d="M121 667h438l-22 -178h-196l-60 -489h-242z" />
    <glyph glyph-name="afii10021" unicode="&#x414;" horiz-adv-x="825" 
d="M201 667h577l-58 -471h80l-40 -329h-204l16 133h-382l-16 -133h-204l40 329q62 -1 101 36q42 41 58 173zM396 474l-16 -126q-7 -61 -27 -97q-21 -37 -56 -56v-3h185l34 282h-120z" />
    <glyph glyph-name="afii10022" unicode="&#x415;" horiz-adv-x="549" 
d="M121 667h438l-21 -174h-197l-9 -73h180l-20 -165h-180l-9 -76h204l-22 -179h-446z" />
    <glyph glyph-name="afii10024" unicode="&#x416;" horiz-adv-x="1063" 
d="M388 0l23 192q0 7 17 97l-8 1q-24 -52 -55 -98l-133 -192h-247l248 356l-150 311h250l75 -197q7 -17 12 -40.5t7 -37t2 -16.5l10 2q2 28 2.5 41.5t0.5 15.5q1 18 6 59l22 173h230l-23 -173q-9 -71 -21 -116l10 -2q14 44 39 85l129 206h259l-242 -320l163 -347h-243
l-85 192q-23 54 -31 98l-10 -1q0 -45 -5 -97l-22 -192h-230z" />
    <glyph glyph-name="afii10025" unicode="&#x417;" horiz-adv-x="653" 
d="M144 437l-56 178q141 68 265 68q114 0 183 -49q77 -53 77 -144q0 -63 -42 -105q-24 -23 -64 -37l-1 -6q39 -10 66 -37q37 -37 37 -95q0 -116 -97 -178q-77 -49 -199 -49q-96 0 -177 27q-60 21 -120 55l85 180q34 -38 76 -58q46 -22 93 -22q38 0 57 9q28 12 28 39
q0 22 -25 32q-18 7 -56 7h-85l20 162h67q44 0 67 9q27 11 27 35q0 19 -22 30q-19 9 -49 9q-40 0 -87 -20q-31 -13 -68 -40z" />
    <glyph glyph-name="afii10026" unicode="&#x418;" horiz-adv-x="784" 
d="M121 667h238l-26 -204q-10 -78 -32 -140l10 -5q33 64 73 120l166 229h221l-82 -667h-238l21 172q8 68 32 153l-10 2q-26 -51 -75 -117l-159 -210h-221z" />
    <glyph glyph-name="afii10027" unicode="&#x419;" horiz-adv-x="784" 
d="M121 667h238l-26 -204q-10 -78 -32 -140l10 -5q33 64 73 120l166 229h221l-82 -667h-238l21 172q8 68 32 153l-10 2q-26 -51 -75 -117l-159 -210h-221zM554 904l138 -50q-27 -67 -83 -99q-53 -30 -142 -30q-84 0 -137 30q-57 35 -80 99l144 50q4 -32 23 -48
q18 -15 51 -15t53 13q25 16 33 50z" />
    <glyph glyph-name="afii10028" unicode="&#x41a;" horiz-adv-x="732" 
d="M121 667h242l-22 -173q-8 -61 -21 -116l7 -2q20 51 42 85l23 37l106 169h282l-260 -338l170 -329h-255l-85 192q-23 52 -34 98l-7 -1v-20q0 -39 -5 -77l-23 -192h-242z" />
    <glyph glyph-name="afii10029" unicode="&#x41b;" horiz-adv-x="797" 
d="M186 667h598l-82 -667h-242l58 471h-136l-27 -215q-16 -126 -85 -195q-72 -72 -206 -72q-51 0 -94 8l22 194q16 -6 39 -6q48 0 74 26q28 28 37 97z" />
    <glyph glyph-name="afii10030" unicode="&#x41c;" horiz-adv-x="948" 
d="M623 667h255l2 -667h-235l13 197q5 86 23 185l-9 2l-5 -19q-21 -85 -54 -163l-85 -202h-152l-26 211q-1 3 -5 50q-3 37 -3 60v13q0 27 2 50h-8l-2 -15q-10 -81 -28 -158l-49 -211h-245l194 667h256l26 -208q5 -40 5 -74q0 -38 -6 -73h10q16 84 59 190z" />
    <glyph glyph-name="afii10031" unicode="&#x41d;" horiz-adv-x="760" 
d="M505 667h242l-82 -667h-242l30 243h-143l-29 -243h-242l82 667h242l-28 -228h142z" />
    <glyph glyph-name="afii10032" unicode="&#x41e;" horiz-adv-x="808" 
d="M675 591q111 -91 111 -252q0 -152 -104.5 -254t-260.5 -102q-158 0 -265.5 98t-107.5 243q0 151 106.5 255t261.5 104q150 0 259 -92zM410 193q57 0 94.5 40.5t37.5 101.5q0 53 -34 90t-84 37q-55 0 -93.5 -41t-38.5 -99q0 -56 33.5 -92.5t84.5 -36.5z" />
    <glyph glyph-name="afii10033" unicode="&#x41f;" horiz-adv-x="760" 
d="M665 0h-242l58 471h-143l-57 -471h-242l82 667h626z" />
    <glyph glyph-name="afii10034" unicode="&#x420;" horiz-adv-x="665" 
d="M398 203h-92l-25 -203h-242l82 667h278q127 0 192 -51q84 -67 84 -177q0 -47 -19 -92.5t-51 -77.5q-37 -35 -85 -50.5t-122 -15.5zM366 493h-25l-15 -124h22q92 0 92 71q0 29 -16.5 41t-57.5 12z" />
    <glyph glyph-name="afii10035" unicode="&#x421;" horiz-adv-x="582" 
d="M415 683q87 0 173 -31l-20 -237q-65 52 -133 52q-60 0 -103.5 -44t-43.5 -104q0 -51 37 -85.5t92 -34.5q71 0 131 57l-29 -243q-89 -30 -152 -30q-139 0 -229.5 94t-90.5 237q0 159 105 264t263 105z" />
    <glyph glyph-name="afii10036" unicode="&#x422;" horiz-adv-x="489" 
d="M60 667h476l-26 -210l-115 7l-57 -464h-245l57 464l-115 -7z" />
    <glyph glyph-name="afii10037" unicode="&#x423;" horiz-adv-x="714" 
d="M40 667h259l72 -188q15 -39 17 -73h8q11 43 26 75l90 186h263l-389 -667h-266l87 153q25 44 53 73z" />
    <glyph glyph-name="afii10038" unicode="&#x424;" horiz-adv-x="938" 
d="M316 0l13 98q-142 0 -220 73q-69 64 -69 169q0 122 73 205q90 101 282 101l12 98h240l-12 -98q138 0 216 -72q73 -65 73 -187q0 -59 -19.5 -114t-54.5 -90q-85 -85 -282 -85l-12 -98h-240zM592 464l-23 -184h5q57 0 90 25q34 27 34 78q0 40 -28 62q-25 19 -73 19h-5z
M394 464h-6q-57 0 -87 -22q-36 -27 -36 -78q0 -41 27 -64q23 -20 73 -20h6z" />
    <glyph glyph-name="afii10039" unicode="&#x425;" horiz-adv-x="740" 
d="M765 667l-253 -321l200 -346h-261l-51 109q-16 33 -27 76h-8q-9 -31 -22 -52l-14 -24l-64 -109h-293l278 356l-181 311h273l32 -84q17 -43 20 -68h6q11 33 32 73l41 79h292z" />
    <glyph glyph-name="afii10040" unicode="&#x426;" horiz-adv-x="808" 
d="M39 0l82 667h242l-58 -471h142l58 471h243l-58 -471h105l-39 -329h-206l16 133h-527z" />
    <glyph glyph-name="afii10041" unicode="&#x427;" horiz-adv-x="724" 
d="M387 0l29 233q-49 -12 -116 -12q-115 0 -170 36q-70 46 -70 137q0 3 4 51l27 222h240l-21 -172q-5 -15 -3.5 -36t17.5 -33q17 -13 53 -13q30 0 62 6l30 248h242l-82 -667h-242z" />
    <glyph glyph-name="afii10042" unicode="&#x428;" horiz-adv-x="1088" 
d="M39 0l82 667h238l-58 -471h120l58 471h238l-58 -471h120l58 471h238l-82 -667h-954z" />
    <glyph glyph-name="afii10043" unicode="&#x429;" horiz-adv-x="1144" 
d="M121 667h238l-58 -471h120l58 471h238l-58 -471h120l58 471h238l-59 -471h115l-39 -329h-206l16 133h-863z" />
    <glyph glyph-name="afii10044" unicode="&#x42a;" horiz-adv-x="762" 
d="M109 0l57 464l-121 -7l26 210h363l-31 -254h84q138 0 195 -56q50 -50 50 -132q0 -116 -83 -176q-70 -49 -208 -49h-332zM371 156h23q50 0 71 10q29 14 29 50q0 26 -19 37q-17 10 -62 10h-29z" />
    <glyph glyph-name="afii10045" unicode="&#x42b;" horiz-adv-x="1007" 
d="M912 0h-242l82 667h242zM39 0l83 667h242l-31 -254h78q138 0 195 -56q50 -48 50 -134q0 -116 -83 -175q-68 -48 -208 -48h-326zM301 156h23q50 0 71 10q29 14 29 50q0 26 -19 37q-17 10 -62 10h-29z" />
    <glyph glyph-name="afii10046" unicode="&#x42c;" horiz-adv-x="692" 
d="M39 0l83 667h242l-31 -254h84q138 0 195 -56q50 -50 50 -132q0 -116 -83 -176q-70 -49 -208 -49h-332zM301 156h23q50 0 71 10q29 14 29 50q0 26 -19 37q-17 10 -62 10h-29z" />
    <glyph glyph-name="afii10047" unicode="&#x42d;" horiz-adv-x="670" 
d="M30 38l26 211q29 -31 72 -53q46 -23 103 -23q60 0 96 19q44 23 60 72h-219l18 146h217q-14 41 -51 62q-36 21 -93 21q-60 0 -108 -26q-40 -21 -75 -56l28 222q99 50 205 50q160 0 251 -89q88 -86 88 -235q0 -175 -110 -280q-100 -96 -271 -96q-131 0 -237 55z" />
    <glyph glyph-name="afii10048" unicode="&#x42e;" horiz-adv-x="1143" 
d="M335 439h81q29 102 107 166q96 78 230 78q82 0 155.5 -29.5t123.5 -81.5q89 -93 89 -233q0 -149 -103 -252q-104 -104 -275 -104q-129 0 -220 62q-104 71 -123 198h-90l-29 -243h-242l82 667h242zM745 193q55 0 90 35q19 19 30.5 49t11.5 58q0 57 -37 94q-33 33 -81 33
q-54 0 -92 -40q-40 -40 -40 -100q0 -64 41 -100q32 -29 77 -29z" />
    <glyph glyph-name="afii10049" unicode="&#x42f;" horiz-adv-x="707" 
d="M25 0l181 251q-45 8 -79 43q-47 48 -47 124q0 52 18 98t48 76q75 75 240 75h308l-82 -667h-242l17 141q5 38 21 104l-7 1q-10 -54 -35 -99l-83 -147h-258zM417 376l14 117h-41q-39 0 -58 -18q-19 -19 -19 -51q0 -24 20 -37q18 -11 50 -11h34z" />
    <glyph glyph-name="afii10065" unicode="&#x430;" horiz-adv-x="652" 
d="M403 467h230l-58 -467h-229q7 30 25 83l-7 3q-30 -53 -64 -76t-80 -23q-79 0 -137 65t-58 153q0 111 70.5 194.5t163.5 83.5q56 0 88.5 -23t52.5 -77l8 3q-5 41 -5 71v10zM316 164q28 0 46.5 21t18.5 53q0 26 -15.5 43.5t-39.5 17.5q-27 0 -47 -22.5t-20 -53.5
q0 -26 16 -42.5t41 -16.5z" />
    <glyph glyph-name="afii10066" unicode="&#x431;" horiz-adv-x="650" 
d="M208 375l8 -1q25 45 62 65q44 26 108 26q117 0 181 -66q59 -59 59 -155q0 -105 -69 -176q-80 -81 -226 -81q-138 0 -212 75q-79 81 -79 227q0 78 26 161.5t78 135.5q38 39 89.5 59.5t131.5 35.5q34 6 47.5 9t29 9t24.5 14q13 11 14 27h180q-11 -72 -60 -121
q-47 -47 -142 -73l-67 -18q-2 0 -18.5 -4.5t-21.5 -6t-19.5 -6t-22.5 -8t-19.5 -9t-20 -12t-16.5 -13.5q-36 -34 -45 -94zM332 169q25 0 41 16q23 23 23 59q0 33 -20 51q-17 15 -38 15q-26 0 -43 -17q-23 -23 -23 -58q0 -30 21 -51q17 -15 39 -15z" />
    <glyph glyph-name="afii10067" unicode="&#x432;" horiz-adv-x="597" 
d="M77 467h329q85 0 123 -35q35 -31 35 -86q0 -46 -26 -74q-25 -27 -62 -32v-4q38 -6 63 -30q28 -27 28 -72q0 -66 -49 -103q-42 -31 -126 -31h-372zM276 279h33q26 0 39 11t13 32t-14 29q-10 6 -32 6h-30zM255 110h37q27 0 40 10q16 11 16 35q0 19 -12 28q-11 8 -34 8h-37z
" />
    <glyph glyph-name="afii10068" unicode="&#x433;" horiz-adv-x="470" 
d="M20 0l57 467h393l-21 -174h-161l-36 -293h-232z" />
    <glyph glyph-name="afii10069" unicode="&#x434;" horiz-adv-x="700" 
d="M152 467h495l-39 -317h67l-34 -281h-174l16 131h-322l-17 -131h-174l35 281h5q39 0 68 22q19 14 31 39.5t16 45t8 52.5zM392 150l21 167h-78l-8 -70q-4 -36 -17 -59q-15 -27 -44 -38h126z" />
    <glyph glyph-name="afii10070" unicode="&#x435;" horiz-adv-x="618" 
d="M587 202h-331q-1 -6 -1 -17q0 -29 14 -46t37 -17q34 0 50 40h222q-14 -40 -27 -61t-38 -43q-82 -71 -205 -71q-125 0 -202.5 67t-77.5 175q0 113 82.5 189t205.5 76q116 0 195.5 -70.5t79.5 -173.5q0 -6 -4 -48zM322 360q-47 0 -57 -62h108q-1 62 -51 62z" />
    <glyph glyph-name="afii10072" unicode="&#x436;" horiz-adv-x="970" 
d="M336 0l13 108q7 60 25 96l-9 1q-28 -57 -68 -114l-64 -91h-248l191 247l-130 220h253l37 -84q2 -4 6.5 -13.5t6.5 -14.5t5.5 -16t7.5 -26.5t9 -38.5l7 1q5 115 8 136l7 56h220l-6 -56q-8 -69 -24 -136l7 -1q18 46 61 109l57 84h267l-201 -241l134 -226h-248l-42 91
q-30 65 -40 114l-9 -1q7 -43 1 -96l-14 -108h-220z" />
    <glyph glyph-name="afii10073" unicode="&#x437;" horiz-adv-x="543" 
d="M94 303l-40 142q102 48 216 48q110 0 166 -34q67 -40 67 -115q0 -41 -26 -68q-21 -22 -53 -31l1 -9q31 -6 52 -27q24 -24 24 -62q0 -58 -43 -100q-61 -60 -208 -60q-131 0 -240 55l56 144q25 -23 60 -37q38 -16 78 -16q41 0 58 12q11 8 11 22q0 18 -20 24q-12 4 -53 4
h-46l14 100h50q35 0 51 4q23 6 23 26q0 14 -18 22q-16 6 -48 6q-37 0 -72 -14q-31 -13 -60 -36z" />
    <glyph glyph-name="afii10074" unicode="&#x438;" horiz-adv-x="673" 
d="M77 467h228l-20 -146q-6 -49 -25 -91l11 -4q12 27 33 59l124 182h227l-57 -467h-228l19 140q6 48 19 92l-10 4q-15 -30 -42 -70l-109 -166h-227z" />
    <glyph glyph-name="afii10075" unicode="&#x439;" horiz-adv-x="673" 
d="M77 467h228l-20 -146q-6 -49 -25 -91l11 -4q12 27 33 59l124 182h227l-57 -467h-228l19 140q6 48 19 92l-10 4q-15 -30 -42 -70l-109 -166h-227zM462 695l134 -51q-24 -61 -80 -93q-49 -28 -128 -28q-88 0 -139 29q-54 31 -73 92l145 51q5 -31 19 -46q16 -16 46 -16
q33 0 50 16q19 17 26 46z" />
    <glyph glyph-name="afii10076" unicode="&#x43a;" horiz-adv-x="650" 
d="M78 467h231l-7 -56q-7 -65 -24 -136l7 -1q18 46 61 109l57 84h267l-201 -241l134 -226h-248l-42 91q-30 65 -40 114l-9 -1q7 -43 1 -96l-14 -108h-231z" />
    <glyph glyph-name="afii10077" unicode="&#x43b;" horiz-adv-x="663" 
d="M643 467l-57 -467h-232l37 299h-74l-18 -130q-9 -71 -62 -118q-63 -57 -175 -57q-38 0 -82 6l21 170q49 -10 77 15q26 22 33 90l22 192h510z" />
    <glyph glyph-name="afii10078" unicode="&#x43c;" horiz-adv-x="857" 
d="M10 0l132 467h255l32 -186q7 -33 3 -74h10q6 30 22 73l75 187h255l18 -467h-218l-6 175q-1 26 6 66h-10q-21 -78 -30 -96l-66 -145h-150l-29 143q-6 30 -6 99h-10q-5 -33 -17 -76l-48 -166h-218z" />
    <glyph glyph-name="afii10079" unicode="&#x43d;" horiz-adv-x="633" 
d="M20 0l57 467h232l-18 -144h74l18 144h232l-57 -467h-232l19 155h-74l-19 -155h-232z" />
    <glyph glyph-name="afii10080" unicode="&#x43e;" horiz-adv-x="637" 
d="M329 493q135 0 213 -78q69 -67 69 -171q0 -102 -71 -174q-81 -83 -216 -83q-141 0 -223 80q-72 69 -72 169q0 101 69 172q40 40 101 62.5t130 22.5zM318 169q25 0 41 16q23 23 23 59q0 33 -20 51q-17 15 -38 15q-26 0 -43 -17q-23 -23 -23 -58q0 -30 21 -51
q17 -15 39 -15z" />
    <glyph glyph-name="afii10081" unicode="&#x43f;" horiz-adv-x="633" 
d="M20 0l57 467h538l-57 -467h-232l37 299h-74l-37 -299h-232z" />
    <glyph glyph-name="afii10082" unicode="&#x440;" horiz-adv-x="645" 
d="M82 467h232q-8 -38 -19 -71l9 -4q28 51 57 71.5t74 20.5q77 0 131 -68t54 -165q0 -106 -64 -185t-150 -79q-113 0 -146 96l-8 -3q3 -41 3 -57q0 -30 -5 -77l-22 -175h-232zM331 163q27 0 44 21t17 54q0 28 -15.5 46t-38.5 18q-25 0 -43.5 -22.5t-18.5 -54.5q0 -28 15 -45
t40 -17z" />
    <glyph glyph-name="afii10083" unicode="&#x441;" horiz-adv-x="437" 
d="M300 493q59 0 139 -26l-29 -196q-36 42 -82 42q-33 0 -53 -22t-20 -58q0 -32 18 -50.5t50 -18.5q41 0 78 33l-34 -192q-60 -18 -105 -18q-104 0 -169.5 65t-65.5 168q0 122 75.5 197.5t197.5 75.5z" />
    <glyph glyph-name="afii10084" unicode="&#x442;" horiz-adv-x="469" 
d="M95 0l36 293l-106 -6l22 180h442l-22 -180l-104 6l-36 -293h-232z" />
    <glyph glyph-name="afii10085" unicode="&#x443;" horiz-adv-x="591" 
d="M381 467h249l-363 -696h-248l88 169q35 61 65 96l-141 431h238l20 -130q7 -43 7 -75q0 -24 -2 -48l10 -1q15 78 34 131z" />
    <glyph glyph-name="afii10086" unicode="&#x444;" horiz-adv-x="808" 
d="M238 -229l27 222h-4q-102 0 -166 52q-71 58 -71 163q0 122 75 192q38 35 97 54.5t126 19.5h2l25 203h221l-25 -203q111 -2 179 -67q62 -58 62 -154q0 -117 -67 -184q-76 -76 -229 -76h-4l-27 -222h-221zM504 310l-19 -153h3q43 0 68 20q27 22 27 66q0 30 -21 49
q-21 18 -55 18h-3zM325 310h-3q-41 0 -65 -19q-30 -25 -30 -67q0 -33 19 -50q18 -17 57 -17h3z" />
    <glyph glyph-name="afii10087" unicode="&#x445;" horiz-adv-x="633" 
d="M374 467h282l-211 -234l162 -233h-255l-20 43q-15 32 -17 59l-7 1q-5 -15 -25 -48l-35 -55h-278l217 246l-155 221h263l16 -49q7 -20 9 -44l9 1q7 23 18 43z" />
    <glyph glyph-name="afii10088" unicode="&#x446;" horiz-adv-x="675" 
d="M20 0l57 467h232l-37 -299h72l37 299h232l-37 -299h79l-36 -299h-174l16 131h-441z" />
    <glyph glyph-name="afii10089" unicode="&#x447;" horiz-adv-x="616" 
d="M307 0l17 141q-46 -10 -94 -10q-92 0 -138 32q-60 42 -50 134l21 170h227l-15 -126q-4 -32 9 -42q9 -8 30 -8q15 0 29 6l21 170h232l-57 -467h-232z" />
    <glyph glyph-name="afii10090" unicode="&#x448;" horiz-adv-x="899" 
d="M20 0l57 467h218l-37 -299h74l37 299h218l-37 -299h74l37 299h218l-57 -467h-802z" />
    <glyph glyph-name="afii10091" unicode="&#x449;" horiz-adv-x="949" 
d="M20 0l57 467h218l-37 -299h74l37 299h218l-37 -299h74l37 299h218l-37 -299h87l-37 -299h-174l17 131h-715z" />
    <glyph glyph-name="afii10092" unicode="&#x44a;" horiz-adv-x="670" 
d="M359 311h115q92 0 134 -39q42 -36 42 -105q0 -71 -43 -114q-53 -53 -174 -53h-343l35 293l-100 -6l22 180h331zM335 116h36q29 0 43 11q16 12 16 37q0 18 -12 27q-12 8 -36 8h-37z" />
    <glyph glyph-name="afii10093" unicode="&#x44b;" horiz-adv-x="884" 
d="M579 0l57 467h228l-57 -467h-228zM289 311h99q92 0 134 -39q42 -38 42 -107q0 -67 -43 -112q-53 -53 -174 -53h-327l56 467h232zM265 116h36q29 0 43 11q16 12 16 37q0 18 -12 27q-12 8 -36 8h-37z" />
    <glyph glyph-name="afii10094" unicode="&#x44c;" horiz-adv-x="600" 
d="M289 311h115q92 0 134 -39q42 -36 42 -105q0 -71 -43 -114q-53 -53 -174 -53h-343l56 467h232zM265 116h36q29 0 43 11q16 12 16 37q0 18 -12 27q-12 8 -36 8h-37z" />
    <glyph glyph-name="afii10095" unicode="&#x44d;" horiz-adv-x="537" 
d="M30 29l19 158q26 -29 58 -44q34 -16 74 -16q45 0 73 17q26 16 34 43h-167l13 110h161q-14 27 -41 42q-26 13 -60 13q-40 0 -75 -17q-34 -16 -56 -38l20 165q83 30 160 30q134 0 203 -69q65 -65 65 -173q0 -120 -74 -192q-72 -70 -212 -70q-114 0 -195 41z" />
    <glyph glyph-name="afii10096" unicode="&#x44e;" horiz-adv-x="912" 
d="M276 318h63q27 81 96 127q71 48 169 48q137 0 215 -78q67 -67 67 -163q0 -112 -73 -186q-78 -79 -227 -79q-111 0 -175 46q-64 48 -83 127h-70l-20 -160h-218l57 467h218zM593 169q25 0 41 16q23 21 23 58q0 32 -20 52q-17 15 -38 15q-26 0 -43 -17q-23 -23 -23 -58
q0 -30 21 -51q17 -15 39 -15z" />
    <glyph glyph-name="afii10097" unicode="&#x44f;" horiz-adv-x="627" 
d="M10 0l130 158q-36 7 -61 32q-33 34 -33 91q0 81 50 131q56 55 179 55h332l-57 -467h-230l17 138h-6l-92 -138h-229zM351 250l11 95h-31q-34 0 -50 -15q-15 -13 -15 -39q0 -19 13 -30q14 -11 38 -11h34z" />
    <glyph glyph-name="afii10071" unicode="&#x451;" horiz-adv-x="618" 
d="M587 202h-331q-1 -6 -1 -17q0 -29 14 -46t37 -17q34 0 50 40h222q-14 -40 -27 -61t-38 -43q-82 -71 -205 -71q-125 0 -202.5 67t-77.5 175q0 113 82.5 189t205.5 76q116 0 195.5 -70.5t79.5 -173.5q0 -6 -4 -48zM322 360q-47 0 -57 -62h108q-1 62 -51 62zM100 642
q0 43 30 73t72 30q43 0 73 -30t30 -73q0 -42 -30 -72t-73 -30q-42 0 -72 30t-30 72zM347 642q0 43 30 73t72 30q43 0 73 -30t30 -73q0 -42 -30 -72t-73 -30q-42 0 -72 30t-30 72z" />
    <glyph glyph-name="afii10099" unicode="&#x452;" horiz-adv-x="656" 
d="M277 0h-232l59 482h-80l15 120h80l16 127h232l-16 -127h165l-15 -120h-165l-7 -51q-5 -39 -21 -90l9 -3q23 42 58 66q41 27 92 27q62 0 105 -41q42 -41 42 -113q0 -23 -4 -51l-29 -234q-7 -59 -23 -100.5t-55 -73.5q-59 -48 -168 -48q-54 0 -101 10l21 174q16 -14 39 -14
q26 0 39 13q13 12 17 44l23 186q3 21 3 24q0 16 -10 25q-10 8 -24 8q-17 0 -27 -12q-11 -13 -17 -61z" />
    <glyph glyph-name="afii10100" unicode="&#x453;" horiz-adv-x="470" 
d="M20 0l57 467h393l-21 -174h-161l-36 -293h-232zM196 596l116 146l117 -73l-146 -128z" />
    <glyph glyph-name="afii10101" unicode="&#x454;" horiz-adv-x="518" 
d="M474 176l-19 -153q-74 -36 -174 -36q-127 0 -192 68q-62 66 -62 169q0 117 72 189q79 79 233 79q93 0 176 -36l-19 -158q-23 27 -49 40q-32 16 -71 16q-41 0 -71 -16q-25 -15 -40 -41h165l-13 -110h-165q9 -29 37 -45q28 -15 72 -15q40 0 71 13q31 15 49 36z" />
    <glyph glyph-name="afii10102" unicode="&#x455;" horiz-adv-x="476" 
d="M271 493q91 0 198 -42l-57 -141q-53 39 -108 39q-40 0 -40 -24q0 -20 27 -26l42 -10q52 -11 82 -45.5t30 -82.5q0 -77 -64.5 -125.5t-165.5 -48.5q-78 0 -167 34q-6 3 -22 9.5t-26 10.5l56 141q74 -49 137 -49q37 0 37 25q0 24 -52 36q-70 16 -98.5 43.5t-28.5 78.5
q0 77 62.5 127t157.5 50z" />
    <glyph glyph-name="afii10103" unicode="&#x456;" horiz-adv-x="332" 
d="M217 747q52 0 90.5 -32.5t38.5 -76.5q0 -47 -38.5 -80t-95.5 -33q-53 0 -90 31t-37 76q0 46 39.5 80.5t92.5 34.5zM81 467h231l-57 -467h-231z" />
    <glyph glyph-name="afii10104" unicode="&#x457;" horiz-adv-x="400" 
d="M286 0h-227l57 467h227zM357 723q35 0 57 -22q22 -24 22 -60q0 -49 -30 -77q-25 -23 -61 -23q-35 0 -57 22q-22 24 -22 60q0 49 30 77q25 23 61 23zM159 723q35 0 57 -22q22 -24 22 -60q0 -49 -30 -77q-25 -23 -61 -23q-35 0 -57 22q-22 24 -22 60q0 49 30 77
q25 23 61 23z" />
    <glyph glyph-name="afii10105" unicode="&#x458;" horiz-adv-x="341" 
d="M90 467h231l-89 -696h-231zM225 747q52 0 91 -32.5t39 -76.5q0 -47 -39 -80t-96 -33q-53 0 -90 31t-37 76q0 46 39.5 80.5t92.5 34.5z" />
    <glyph glyph-name="afii10106" unicode="&#x459;" horiz-adv-x="927" 
d="M617 311h114q92 0 134 -39q42 -36 42 -105q0 -71 -43 -114q-53 -53 -174 -53h-336l37 299h-74l-18 -130q-9 -71 -62 -118q-63 -57 -175 -57q-38 0 -82 6l21 170q49 -10 77 15q26 22 33 90l22 192h502zM592 116h36q29 0 43 11q16 12 16 37q0 18 -12 27q-12 8 -36 8h-37z
" />
    <glyph glyph-name="afii10107" unicode="&#x45a;" horiz-adv-x="905" 
d="M594 311h115q92 0 134 -39q42 -36 42 -105q0 -71 -43 -114q-53 -53 -174 -53h-343l24 192h-74l-23 -192h-232l57 467h232l-19 -156h73l18 156h232zM570 116h36q29 0 43 11q16 12 16 37q0 18 -12 27q-12 8 -36 8h-37z" />
    <glyph glyph-name="afii10108" unicode="&#x45b;" horiz-adv-x="656" 
d="M277 0h-232l59 482h-80l15 120h80l16 127h232l-16 -127h165l-15 -120h-165l-7 -51q-5 -39 -21 -90l9 -3q23 42 58 66q41 27 92 27q62 0 105 -41q42 -41 42 -113q0 -23 -4 -51l-28 -226h-232l23 183q3 21 3 24q0 16 -10 25q-10 8 -24 8q-17 0 -27 -12q-11 -13 -17 -61z
" />
    <glyph glyph-name="afii10109" unicode="&#x45c;" horiz-adv-x="650" 
d="M78 467h231l-7 -56q-7 -65 -24 -136l7 -1q18 46 61 109l57 84h267l-201 -241l134 -226h-248l-42 91q-30 65 -40 114l-9 -1q7 -43 1 -96l-14 -108h-231zM281 596l116 146l117 -73l-146 -128z" />
    <glyph glyph-name="afii10110" unicode="&#x45e;" horiz-adv-x="591" 
d="M381 467h249l-363 -696h-248l88 169q35 61 65 96l-141 431h238l20 -130q7 -43 7 -75q0 -24 -2 -48l10 -1q15 78 34 131zM422 695l134 -51q-24 -61 -80 -93q-49 -28 -128 -28q-88 0 -139 29q-54 31 -73 92l145 51q5 -31 19 -46q16 -16 46 -16q33 0 50 16q19 17 26 46z" />
    <glyph glyph-name="afii10193" unicode="&#x45f;" horiz-adv-x="635" 
d="M20 0l57 467h232l-37 -299h74l37 299h232l-57 -467h-187l-17 -140h-166l18 140h-186z" />
    <glyph glyph-name="afii10146" unicode="&#x462;" horiz-adv-x="743" 
d="M428 744l-15 -118h169l-18 -149l-169 6l-9 -82h82q139 0 195 -56q50 -50 50 -137q0 -102 -80 -159q-70 -49 -208 -49h-332l61 483l-114 -6l19 149h113l14 118h242zM355 156h23q50 0 71 10q30 16 30 50q0 26 -19 37q-17 10 -62 10h-29z" />
    <glyph glyph-name="afii10194" unicode="&#x463;" horiz-adv-x="639" 
d="M332 291h113q86 0 132 -39q42 -36 42 -98q0 -76 -56 -117q-52 -37 -143 -37h-354l44 347h-85l15 120h85l23 200h231l-25 -200h165l-14 -120h-166zM311 116h33q29 0 43 11q16 11 16 31q0 17 -12 26q-12 8 -36 8h-34z" />
    <glyph glyph-name="afii10147" unicode="&#x472;" horiz-adv-x="808" 
d="M315 395h218q-9 38 -38 59q-28 21 -69 21q-42 0 -70 -21q-30 -21 -41 -59zM531 287h-229q5 -44 34 -70q28 -25 74 -25q49 0 80 25q30 26 41 70zM416 683q81 0 156 -30.5t125 -81.5q89 -93 89 -232q0 -149 -103 -252q-104 -104 -262 -104q-168 0 -275 107q-98 98 -98 234
q0 148 105 253q106 106 263 106z" />
    <glyph glyph-name="afii10195" unicode="&#x473;" horiz-adv-x="637" 
d="M250 281h150q-3 27 -21 43t-50 16q-34 0 -55 -19q-17 -15 -24 -40zM390 203h-148q0 -30 17 -45q18 -18 53 -18q32 0 52 16q22 16 26 47zM329 493q135 0 213 -78q69 -69 69 -171q0 -101 -71 -174q-81 -83 -216 -83q-142 0 -223 80q-72 70 -72 169q0 101 69 172
q40 40 101 62.5t130 22.5z" />
    <glyph glyph-name="afii10148" unicode="&#x474;" horiz-adv-x="694" 
d="M474 667h274l-334 -667h-210l-150 667h253l26 -210q6 -47 6 -99q0 -37 -4 -89l10 -1q14 119 52 211z" />
    <glyph glyph-name="afii10196" unicode="&#x475;" horiz-adv-x="565" 
d="M344 467h260l-271 -467h-195l-119 467h232l11 -138q2 -36 2 -51q0 -16 -3 -65h9q10 73 30 130z" />
    <glyph glyph-name="afii10050" unicode="&#x490;" horiz-adv-x="595" 
d="M121 667l295 1l21 158h198l-39 -337h-255l-60 -489h-242z" />
    <glyph glyph-name="afii10098" unicode="&#x491;" horiz-adv-x="540" 
d="M20 0l57 467h285l18 145h170l-39 -319h-223l-36 -293h-232z" />
    <glyph glyph-name="uni0492" unicode="&#x492;" horiz-adv-x="609" 
d="M355 217l-27 -217h-242l26 217h-92l21 175h92l35 275h465l-22 -178h-223l-12 -97h160l-21 -175h-160z" />
    <glyph glyph-name="uni0493" unicode="&#x493;" horiz-adv-x="525" 
d="M75 0l14 118h-84l16 124h84l27 225h393l-21 -174h-161l-6 -51h111l-16 -124h-111l-14 -118h-232z" />
    <glyph glyph-name="uni0494" unicode="&#x494;" horiz-adv-x="720" 
d="M121 667h475l-23 -190h-233l-13 -101q63 23 131 23q114 0 175 -56q57 -51 57 -142q0 -99 -61 -158t-185 -59q-65 0 -115 16l49 143q12 -12 30 -12q23 0 35 13q13 14 13 43q0 23 -15 36q-18 16 -53 16q-36 0 -79 -14l-28 -225h-242z" />
    <glyph glyph-name="uni0495" unicode="&#x495;" horiz-adv-x="577" 
d="M20 0l57 467h393l-21 -174h-161l-6 -51h25q130 0 190 -60q50 -50 50 -133q0 -112 -69 -181q-76 -76 -241 -76h-13l16 124h3q32 0 54 18q37 33 37 100q0 39 -19 55q-16 15 -48 15h-2l-13 -104h-232z" />
    <glyph glyph-name="uni0496" unicode="&#x496;" horiz-adv-x="1063" 
d="M388 0l23 192q0 7 17 97l-8 1q-24 -52 -55 -98l-133 -192h-247l248 356l-150 311h250l75 -197q7 -17 12 -40.5t7 -37t2 -16.5l10 2q2 28 2.5 41.5t0.5 15.5q1 18 6 59l22 173h230l-23 -173q-9 -71 -21 -116l10 -2q14 44 39 85l129 206h259l-242 -320l70 -151h117
l-39 -329h-200l16 133h-44l-85 192q-23 54 -31 98l-10 -1q0 -45 -5 -97l-22 -192h-230z" />
    <glyph glyph-name="uni0497" unicode="&#x497;" horiz-adv-x="959" 
d="M336 0l13 108q6 45 25 96l-9 1q-28 -57 -68 -114l-64 -91h-248l191 247l-130 220h253l37 -84q2 -4 6.5 -13.5t6.5 -14.5t5.5 -16t7.5 -26.5t9 -38.5l7 1q5 115 8 136l7 56h220l-6 -56q-8 -69 -24 -136l7 -1q18 46 61 109l57 84h256l-190 -234l38 -65h107l-35 -299h-166
l15 131h-65l-50 91q-23 42 -40 114l-9 -1q7 -43 1 -96l-14 -108h-220z" />
    <glyph glyph-name="uni0498" unicode="&#x498;" horiz-adv-x="653" 
d="M144 437l-56 178q141 68 265 68q114 0 183 -49q77 -53 77 -144q0 -63 -42 -105q-24 -23 -64 -37l-1 -6q39 -10 66 -37q37 -37 37 -99q0 -85 -58 -144q-63 -65 -161 -73l-17 -138h-206l19 146q-83 15 -170 68l85 180q34 -38 76 -58q44 -22 91 -22q40 0 59 9q28 12 28 39
q0 22 -25 32q-18 7 -56 7h-85l20 162h67q44 0 67 9q27 11 27 35q0 19 -22 30q-19 9 -49 9q-40 0 -87 -20q-31 -13 -68 -40z" />
    <glyph glyph-name="uni0499" unicode="&#x499;" horiz-adv-x="543" 
d="M94 303l-40 142q106 48 219 48q105 0 163 -35q67 -41 67 -112q0 -43 -26 -72q-19 -21 -53 -29l1 -9q31 -7 50 -25q26 -24 26 -66q0 -58 -42 -101q-47 -49 -125 -52l-17 -131h-166l19 132q-86 7 -160 49l56 147q26 -25 61 -39q36 -16 77 -16q35 0 49 7q16 7 16 22
q0 16 -20 23q-14 5 -49 5h-50l14 108h50q44 0 54 4q20 7 20 23q0 14 -19 21q-16 6 -43 6q-38 0 -69 -13q-35 -13 -63 -37z" />
    <glyph glyph-name="uni049A" unicode="&#x49a;" horiz-adv-x="726" 
d="M121 667h242l-21 -171q-8 -60 -22 -118l7 -2q16 44 42 85l129 206h268l-242 -336l74 -135h117l-39 -329h-200l16 133h-49l-88 182q-25 53 -39 108l-7 -1q0 -56 -6 -110l-22 -179h-242z" />
    <glyph glyph-name="uni049B" unicode="&#x49b;" horiz-adv-x="636" 
d="M78 467h231l-7 -56q-7 -65 -24 -136l7 -1q18 46 61 109l57 84h253l-185 -236l38 -63h103l-36 -299h-166l16 131h-60l-53 91q-30 52 -40 114l-9 -1q7 -43 1 -96l-14 -108h-231z" />
    <glyph glyph-name="uni049C" unicode="&#x49c;" horiz-adv-x="901" 
d="M312 254l-31 -254h-242l82 667h242l-33 -265h50l18 141h121l-10 -84q-4 -38 -15 -83h5q17 43 58 110l112 181h282l-260 -338l170 -329h-255l-78 177q-29 67 -40 107h-5q-2 -48 -5 -72l-6 -53h-121l11 95h-50z" />
    <glyph glyph-name="uni049D" unicode="&#x49d;" horiz-adv-x="795" 
d="M297 174l-21 -174h-228l57 467h228l-22 -183h37l11 92h108l-12 -102h5q18 51 57 109l57 84h241l-186 -241l125 -226h-228l-42 91q-27 59 -35 94h-5l-13 -107h-108l11 96h-37z" />
    <glyph glyph-name="uni04A0" unicode="&#x4a0;" horiz-adv-x="807" 
d="M114 0l61 489h-140l22 178h381l-22 -173q-8 -61 -21 -116l7 -2q20 51 42 85l23 37l106 169h282l-260 -338l170 -329h-255l-85 192q-23 52 -34 98l-7 -1v-20q0 -39 -5 -77l-23 -192h-242z" />
    <glyph glyph-name="uni04A1" unicode="&#x4a1;" horiz-adv-x="750" 
d="M46 467h363l-7 -56q-7 -65 -24 -136l7 -1q18 46 61 109l57 84h267l-201 -241l134 -226h-248l-42 91q-30 65 -40 114l-9 -1q7 -43 1 -96l-14 -108h-231l37 293h-132z" />
    <glyph glyph-name="uni04A2" unicode="&#x4a2;" horiz-adv-x="808" 
d="M505 667h242l-57 -471h105l-39 -329h-200l16 133h-149l30 243h-143l-29 -243h-242l82 667h242l-28 -228h142z" />
    <glyph glyph-name="uni04A3" unicode="&#x4a3;" horiz-adv-x="678" 
d="M20 0l57 467h232l-18 -144h74l18 144h232l-36 -299h79l-36 -299h-166l16 131h-146l19 155h-74l-19 -155h-232z" />
    <glyph glyph-name="uni04A4" unicode="&#x4a4;" horiz-adv-x="893" 
d="M121 667h242l-28 -228h142l28 228h418l-22 -178h-176l-60 -489h-242l30 243h-143l-29 -243h-242z" />
    <glyph glyph-name="uni04A5" unicode="&#x4a5;" horiz-adv-x="749" 
d="M20 0l57 467h232l-18 -144h74l18 144h371l-21 -174h-139l-36 -293h-232l19 155h-74l-19 -155h-232z" />
    <glyph glyph-name="uni04AA" unicode="&#x4aa;" horiz-adv-x="582" 
d="M231 -149l19 153q-85 31 -140 107q-63 86 -63 203q0 160 105 265q104 104 270 104q88 0 166 -31l-20 -237q-59 52 -133 52q-59 0 -100 -40q-47 -45 -47 -108q0 -46 30 -79q37 -41 99 -41q74 0 131 57l-29 -243q-30 -16 -65 -19l-17 -143h-206z" />
    <glyph glyph-name="uni04AB" unicode="&#x4ab;" horiz-adv-x="437" 
d="M439 467l-29 -196q-33 42 -82 42q-33 0 -53 -21.5t-20 -58.5q0 -33 18 -51t50 -18q45 0 78 33l-34 -192q-18 -6 -33 -9l-17 -136h-166l20 143q-27 9 -57 31q-87 68 -87 186q0 127 82 204q75 69 191 69q65 0 139 -26z" />
    <glyph glyph-name="uni04AE" unicode="&#x4ae;" horiz-adv-x="684" 
d="M745 667l-281 -384l-35 -283h-240l36 289l-178 378h265l34 -109q10 -33 13 -76h9q8 30 24 63l62 122h291z" />
    <glyph glyph-name="uni04AF" unicode="&#x4af;" horiz-adv-x="616" 
d="M24 467h243l19 -119q15 -99 11 -154h10q8 46 15 68q5 21 25 74l50 131h253l-251 -454l-30 -242h-232l30 242z" />
    <glyph glyph-name="uni04B0" unicode="&#x4b0;" horiz-adv-x="694" 
d="M755 667l-275 -353l-3 -19h180l-20 -168h-180l-18 -127h-240l16 127h-180l20 168h180l3 19l-181 353h265l34 -109q10 -33 13 -76h9q8 30 24 63l62 122h291z" />
    <glyph glyph-name="uni04B1" unicode="&#x4b1;" horiz-adv-x="624" 
d="M180 63l-148 404h243l19 -109q10 -55 11 -74q0 -1 0.5 -7t0.5 -13v-18t-1 -22h10q4 21 13 55q9 33 27 72l50 116h253l-246 -404l-2 -25h137l-17 -138h-137l-15 -129h-232l15 129h-137l17 138h136z" />
    <glyph glyph-name="uni04B2" unicode="&#x4b2;" horiz-adv-x="740" 
d="M765 667l-253 -321l100 -150h117l-39 -329h-200l16 133h-40l-58 99q-21 36 -35 86h-8q-10 -31 -22 -52l-78 -133h-293l278 356l-181 311h273l32 -84q15 -39 20 -68h6q11 32 32 73l41 79h292z" />
    <glyph glyph-name="uni04B3" unicode="&#x4b3;" horiz-adv-x="633" 
d="M374 467h272l-192 -228l51 -71h105l-36 -299h-166l16 131h-65l-25 43q-9 15 -12 27q-5 18 -7 32l-7 1q-6 -15 -9 -21q-12 -22 -16 -28l-35 -54h-278l217 246l-155 221h263l15 -46q1 -2 2.5 -6t2.5 -8.5t2 -9.5q3 -21 3 -23l9 1q3 13 7 21q6 13 11 22z" />
    <glyph glyph-name="uni04B6" unicode="&#x4b6;" horiz-adv-x="770" 
d="M534 0h-147l29 233q-49 -12 -116 -12q-115 0 -170 36q-70 46 -70 137q0 3 4 51l27 222h240l-21 -172q-5 -15 -3.5 -36t17.5 -33q17 -13 53 -13q30 0 62 6l30 248h242l-59 -471h105l-39 -329h-200z" />
    <glyph glyph-name="uni04B7" unicode="&#x4b7;" horiz-adv-x="659" 
d="M453 0h-146l17 141q-46 -10 -94 -10q-92 0 -138 32q-60 42 -50 134l21 170h227l-15 -126q-4 -32 9 -42q9 -8 30 -8q15 0 29 6l21 170h232l-36 -299h79l-36 -299h-166z" />
    <glyph glyph-name="uni04B8" unicode="&#x4b8;" horiz-adv-x="814" 
d="M527 407l32 260h242l-82 -667h-242l30 246q-27 -8 -51 -12l-14 -108h-122l12 97q-60 -6 -123 6.5t-100 45.5q-26 23 -38 53.5t-10.5 57t3.5 54.5l28 227h228l-21 -171q-4 -26 -4 -44q0 -29 17 -42q16 -12 42 -10l18 143h122l-18 -146q29 2 51 10z" />
    <glyph glyph-name="uni04B9" unicode="&#x4b9;" horiz-adv-x="713" 
d="M413 376l-12 -98q17 0 38 8l22 181h232l-57 -467h-232l18 152q-22 -7 -37 -8l-10 -76h-104l8 63q-151 -9 -206 48q-42 43 -30 132l19 156h210l-16 -130q-4 -40 10 -52q12 -11 31 -9l12 100h104z" />
    <glyph glyph-name="uni04BA" unicode="&#x4ba;" horiz-adv-x="725" 
d="M363 667l-29 -233q53 12 115 12q113 0 170 -36q71 -46 71 -135q0 -5 -4 -53l-27 -222h-240l21 172q3 27 3 31q0 26 -17 38q-17 13 -53 13q-33 0 -63 -6l-29 -248h-242l82 667h242z" />
    <glyph glyph-name="uni04BB" unicode="&#x4bb;" horiz-adv-x="632" 
d="M110 729h231l-26 -211q-9 -71 -25 -125l9 -3q53 93 148 93q62 0 104.5 -43t42.5 -106q0 -26 -4 -53l-34 -281h-232l28 226q3 20 3 31q0 35 -30 35q-22 0 -32.5 -15.5t-15.5 -58.5l-26 -218h-231z" />
    <glyph glyph-name="uni04C0" unicode="&#x4c0;" horiz-adv-x="379" 
d="M121 667h245l-82 -667h-245z" />
    <glyph glyph-name="uni04C1" unicode="&#x4c1;" horiz-adv-x="1063" 
d="M388 0l23 192q0 7 17 97l-8 1q-24 -52 -55 -98l-133 -192h-247l248 356l-150 311h250l75 -197q7 -17 12 -40.5t7 -37t2 -16.5l10 2q2 28 2.5 41.5t0.5 15.5q1 18 6 59l22 173h230l-23 -173q-9 -71 -21 -116l10 -2q14 44 39 85l129 206h259l-242 -320l163 -347h-243
l-85 192q-23 54 -31 98l-10 -1q0 -45 -5 -97l-22 -192h-230zM671 904l138 -50q-27 -67 -83 -99q-52 -30 -142 -30q-84 0 -137 30q-57 35 -80 99l144 50q4 -32 23 -48q18 -15 51 -15t53 13q25 16 33 50z" />
    <glyph glyph-name="uni04C2" unicode="&#x4c2;" horiz-adv-x="970" 
d="M336 0l13 108q7 60 25 96l-9 1q-28 -57 -68 -114l-64 -91h-248l191 247l-130 220h253l37 -84q2 -4 6.5 -13.5t6.5 -14.5t5.5 -16t7.5 -26.5t9 -38.5l7 1q5 115 8 136l7 56h220l-6 -56q-8 -69 -24 -136l7 -1q18 46 61 109l57 84h267l-201 -241l134 -226h-248l-42 91
q-30 65 -40 114l-9 -1q7 -43 1 -96l-14 -108h-220zM607 695l134 -51q-24 -61 -80 -93q-49 -28 -128 -28q-88 0 -139 29q-54 31 -73 92l145 51q4 -31 19 -46q16 -16 46 -16q33 0 50 16q19 17 26 46z" />
    <glyph glyph-name="uni04C3" unicode="&#x4c3;" horiz-adv-x="705" 
d="M121 667h242l-21 -171q-8 -60 -22 -118l7 -2q24 51 44 85l127 206h237l-197 -279q72 -9 117 -54q44 -44 44 -117q0 -107 -62 -171q-60 -62 -174 -62q-79 0 -136 25l50 140q15 -20 38 -20q19 0 33 19q11 17 11 38q0 27 -17 42q-19 16 -51 16q-23 0 -44 -10q-11 -5 -40 -23
l-26 -211h-242z" />
    <glyph glyph-name="uni04C4" unicode="&#x4c4;" horiz-adv-x="620" 
d="M78 467h231l-7 -56q-9 -76 -28 -147l7 -1q24 59 65 120l57 84h232l-187 -236v-6q47 -11 82 -44q49 -46 49 -123q0 -117 -69 -186q-80 -80 -259 -80h-13l16 124h3q39 0 61 19q37 32 37 105q0 46 -17 67q-24 31 -72 18l-15 -125h-231z" />
    <glyph glyph-name="uni04C7" unicode="&#x4c7;" horiz-adv-x="760" 
d="M505 667h242l-87 -711q-4 -31 -8 -50.5t-16 -46t-32 -44.5q-49 -45 -165 -45q-65 0 -116 9l18 146q11 -8 28 -8q23 0 34 11q14 14 17 48l33 267h-143l-29 -243h-242l82 667h242l-28 -228h142z" />
    <glyph glyph-name="uni04C8" unicode="&#x4c8;" horiz-adv-x="633" 
d="M20 0l57 467h232l-18 -144h74l18 144h232l-59 -497q-13 -109 -56 -152q-48 -48 -151 -48q-59 0 -124 12l18 148q13 -10 33 -10q23 0 35 14q9 12 13 45l21 176h-74l-19 -155h-232z" />
    <glyph glyph-name="uni04D0" unicode="&#x4d0;" horiz-adv-x="708" 
d="M428 89h-164l-32 -89h-260l308 667h276l124 -667h-247zM365 362l-45 -121h92l-10 121q-2 22 -2 47q0 20 3 53h-8q-13 -55 -30 -100zM518 904l138 -50q-27 -67 -83 -99q-53 -30 -142 -30q-84 0 -137 30q-57 35 -80 99l144 50q4 -32 23 -48q18 -15 51 -15t53 13
q25 16 33 50z" />
    <glyph glyph-name="uni04D1" unicode="&#x4d1;" horiz-adv-x="652" 
d="M403 467h230l-58 -467h-229q7 30 25 83l-7 3q-30 -53 -64 -76t-80 -23q-79 0 -137 65t-58 153q0 111 70.5 194.5t163.5 83.5q56 0 88.5 -23t52.5 -77l8 3q-5 41 -5 71v10zM316 164q28 0 46.5 21t18.5 53q0 26 -15.5 43.5t-39.5 17.5q-27 0 -47 -22.5t-20 -53.5
q0 -26 16 -42.5t41 -16.5zM447 695l134 -51q-24 -61 -80 -93q-49 -28 -128 -28q-88 0 -139 29q-54 31 -73 92l145 51q4 -31 19 -46q16 -16 46 -16q33 0 50 16q19 17 26 46z" />
    <glyph glyph-name="uni04D2" unicode="&#x4d2;" horiz-adv-x="708" 
d="M428 89h-164l-32 -89h-260l308 667h276l124 -667h-247zM365 362l-45 -121h92l-10 121q-2 22 -2 47q0 20 3 53h-8q-13 -55 -30 -100zM208 833q0 42 29 71t71 29t71 -29t29 -71t-29 -71t-71 -29t-71 29t-29 71zM455 833q0 42 29 71t71 29t71 -29t29 -71t-29 -71t-71 -29
t-71 29t-29 71z" />
    <glyph glyph-name="uni04D3" unicode="&#x4d3;" horiz-adv-x="652" 
d="M403 467h230l-58 -467h-229q7 30 25 83l-7 3q-30 -53 -64 -76t-80 -23q-79 0 -137 65t-58 153q0 111 70.5 194.5t163.5 83.5q56 0 88.5 -23t52.5 -77l8 3q-5 41 -5 71v10zM316 164q28 0 46.5 21t18.5 53q0 26 -15.5 43.5t-39.5 17.5q-27 0 -47 -22.5t-20 -53.5
q0 -26 16 -42.5t41 -16.5zM145 642q0 43 30 73t72 30q43 0 73 -30t30 -73q0 -42 -30 -72t-73 -30q-42 0 -72 30t-30 72zM392 642q0 43 30 73t72 30q43 0 73 -30t30 -73q0 -42 -30 -72t-73 -30q-42 0 -72 30t-30 72z" />
    <glyph glyph-name="uni04D4" unicode="&#x4d4;" horiz-adv-x="920" 
d="M289 667h478l31 -175h-203l12 -71h204l29 -170h-203l13 -70h203l32 -181h-446l-4 88h-165l-32 -88h-259zM375 370l-48 -131h93l-12 131q-1 9 -1 32q0 25 4 57l-11 2q-8 -45 -25 -91z" />
    <glyph glyph-name="uni04D5" unicode="&#x4d5;" horiz-adv-x="945" 
d="M913 203h-331q-1 -5 -1 -16q0 -28 14.5 -45t37.5 -17q21 0 34 11q9 9 16 27h222q-25 -80 -95 -127q-72 -49 -172 -49q-132 0 -208 73q-39 -41 -83 -57q-43 -16 -110 -16q-102 0 -158 43q-60 46 -60 124q0 62 44 104q53 51 153 51q49 0 85 -14q39 -16 63 -41q3 15 3 31
q0 43 -38 66q-31 19 -89 19q-88 0 -178 -46l17 133q84 36 180 36q130 0 191 -67q70 67 194 67q127 0 203 -78q70 -73 70 -171q0 -22 -4 -41zM295 97q34 0 55 14q23 15 23 40q0 24 -20 38t-60 14q-38 0 -56 -13q-20 -15 -20 -40q0 -24 21 -39q19 -14 57 -14zM592 299h108
q0 25 -13 43.5t-37 18.5t-40 -17.5t-18 -44.5z" />
    <glyph glyph-name="uni04D6" unicode="&#x4d6;" horiz-adv-x="549" 
d="M121 667h438l-21 -174h-197l-9 -73h180l-20 -165h-180l-9 -76h204l-22 -179h-446zM439 904l138 -50q-27 -67 -83 -99q-52 -30 -142 -30q-84 0 -137 30q-57 35 -80 99l144 50q4 -32 23 -48q18 -15 51 -15t53 13q25 16 33 50z" />
    <glyph glyph-name="uni04D7" unicode="&#x4d7;" horiz-adv-x="618" 
d="M587 202h-331q-1 -6 -1 -17q0 -29 14 -46t37 -17q34 0 50 40h222q-14 -40 -27 -61t-38 -43q-82 -71 -205 -71q-125 0 -202.5 67t-77.5 175q0 113 82.5 189t205.5 76q116 0 195.5 -70.5t79.5 -173.5q0 -6 -4 -48zM322 360q-47 0 -57 -62h108q-1 62 -51 62zM407 695
l134 -51q-24 -61 -80 -93q-49 -28 -128 -28q-88 0 -139 29q-54 31 -73 92l145 51q4 -31 19 -46q16 -16 46 -16q33 0 50 16q19 17 26 46z" />
    <glyph glyph-name="uni04D8" unicode="&#x4d8;" horiz-adv-x="782" 
d="M287 431l-220 37q49 105 141 161q88 54 209 54q161 0 252 -93t91 -238q0 -168 -103 -273q-95 -96 -266 -96q-162 0 -250 92q-111 115 -90 311h466q-2 55 -35 88q-29 29 -80 29q-45 0 -74 -21q-27 -18 -41 -51zM502 258h-245q3 -43 31 -69q29 -26 81 -26q53 0 85 23
q36 25 48 72z" />
    <glyph glyph-name="afii10846" unicode="&#x4d9;" horiz-adv-x="612" 
d="M31 275h331q10 53 -12 77q-12 14 -38 14q-24 0 -39 -14q-15 -15 -21 -32l-196 38q37 63 101 99q66 37 159 37q126 0 201 -73q69 -67 69 -171q0 -117 -78 -193q-72 -71 -201 -71q-137 0 -208 69q-38 36 -57 94t-11 126zM348 174h-107q-2 -30 15 -47q13 -13 34 -13
q24 0 37 13q17 16 21 47z" />
    <glyph glyph-name="uni04DA" unicode="&#x4da;" horiz-adv-x="782" 
d="M287 431l-220 37q49 105 141 161q88 54 209 54q161 0 252 -93t91 -238q0 -168 -103 -273q-95 -96 -266 -96q-162 0 -250 92q-111 115 -90 311h466q-2 55 -35 88q-29 29 -80 29q-45 0 -74 -21q-27 -18 -41 -51zM502 258h-245q3 -43 31 -69q29 -26 81 -26q53 0 85 23
q36 25 48 72zM208 833q0 42 29 71t71 29t71 -29t29 -71t-29 -71t-71 -29t-71 29t-29 71zM455 833q0 42 29 71t71 29t71 -29t29 -71t-29 -71t-71 -29t-71 29t-29 71z" />
    <glyph glyph-name="uni04DB" unicode="&#x4db;" horiz-adv-x="612" 
d="M31 275h331q10 53 -12 77q-12 14 -38 14q-24 0 -39 -14q-15 -15 -21 -32l-196 38q37 63 101 99q66 37 159 37q126 0 201 -73q69 -67 69 -171q0 -117 -78 -193q-72 -71 -201 -71q-137 0 -208 69q-38 36 -57 94t-11 126zM348 174h-107q-2 -30 15 -47q13 -13 34 -13
q24 0 37 13q17 16 21 47zM95 642q0 43 30 73t72 30q43 0 73 -30t30 -73q0 -42 -30 -72t-73 -30q-42 0 -72 30t-30 72zM342 642q0 43 30 73t72 30q43 0 73 -30t30 -73q0 -42 -30 -72t-73 -30q-42 0 -72 30t-30 72z" />
    <glyph glyph-name="uni04DC" unicode="&#x4dc;" horiz-adv-x="1063" 
d="M388 0l23 192q0 7 17 97l-8 1q-24 -52 -55 -98l-133 -192h-247l248 356l-150 311h250l75 -197q7 -17 12 -40.5t7 -37t2 -16.5l10 2q2 28 2.5 41.5t0.5 15.5q1 18 6 59l22 173h230l-23 -173q-9 -71 -21 -116l10 -2q14 44 39 85l129 206h259l-242 -320l163 -347h-243
l-85 192q-23 54 -31 98l-10 -1q0 -45 -5 -97l-22 -192h-230zM378 833q0 42 29 71t71 29t71 -29t29 -71t-29 -71t-71 -29t-71 29t-29 71zM625 833q0 42 29 71t71 29t71 -29t29 -71t-29 -71t-71 -29t-71 29t-29 71z" />
    <glyph glyph-name="uni04DD" unicode="&#x4dd;" horiz-adv-x="970" 
d="M336 0l13 108q7 60 25 96l-9 1q-28 -57 -68 -114l-64 -91h-248l191 247l-130 220h253l37 -84q2 -4 6.5 -13.5t6.5 -14.5t5.5 -16t7.5 -26.5t9 -38.5l7 1q5 115 8 136l7 56h220l-6 -56q-8 -69 -24 -136l7 -1q18 46 61 109l57 84h267l-201 -241l134 -226h-248l-42 91
q-30 65 -40 114l-9 -1q7 -43 1 -96l-14 -108h-220zM285 642q0 43 30 73t72 30q43 0 73 -30t30 -73q0 -42 -30 -72t-73 -30q-42 0 -72 30t-30 72zM532 642q0 43 30 73t72 30q43 0 73 -30t30 -73q0 -42 -30 -72t-73 -30q-42 0 -72 30t-30 72z" />
    <glyph glyph-name="uni04DE" unicode="&#x4de;" horiz-adv-x="653" 
d="M144 437l-56 178q141 68 265 68q114 0 183 -49q77 -53 77 -144q0 -63 -42 -105q-24 -23 -64 -37l-1 -6q39 -10 66 -37q37 -37 37 -95q0 -116 -97 -178q-77 -49 -199 -49q-96 0 -177 27q-60 21 -120 55l85 180q34 -38 76 -58q46 -22 93 -22q38 0 57 9q28 12 28 39
q0 22 -25 32q-18 7 -56 7h-85l20 162h67q44 0 67 9q27 11 27 35q0 19 -22 30q-19 9 -49 9q-40 0 -87 -20q-31 -13 -68 -40zM148 833q0 42 29 71t71 29t71 -29t29 -71t-29 -71t-71 -29t-71 29t-29 71zM395 833q0 42 29 71t71 29t71 -29t29 -71t-29 -71t-71 -29t-71 29t-29 71
z" />
    <glyph glyph-name="uni04DF" unicode="&#x4df;" horiz-adv-x="543" 
d="M94 303l-40 142q102 48 216 48q110 0 166 -34q67 -40 67 -115q0 -41 -26 -68q-21 -22 -53 -31l1 -9q31 -6 52 -27q24 -24 24 -62q0 -58 -43 -100q-61 -60 -208 -60q-131 0 -240 55l56 144q25 -23 60 -37q38 -16 78 -16q41 0 58 12q11 8 11 22q0 18 -20 24q-12 4 -53 4
h-46l14 100h50q35 0 51 4q23 6 23 26q0 14 -18 22q-16 6 -48 6q-37 0 -72 -14q-31 -13 -60 -36zM55 642q0 43 30 73t72 30q43 0 73 -30t30 -73q0 -42 -30 -72t-73 -30q-42 0 -72 30t-30 72zM302 642q0 43 30 73t72 30q43 0 73 -30t30 -73q0 -42 -30 -72t-73 -30
q-42 0 -72 30t-30 72z" />
    <glyph glyph-name="uni04E2" unicode="&#x4e2;" horiz-adv-x="784" 
d="M121 667h238l-26 -204q-10 -78 -32 -140l10 -5q33 64 73 120l166 229h221l-82 -667h-238l21 172q8 68 32 153l-10 2q-26 -51 -75 -117l-159 -210h-221zM633 746h-364l12 104h364z" />
    <glyph glyph-name="uni04E3" unicode="&#x4e3;" horiz-adv-x="673" 
d="M77 467h228l-20 -146q-6 -49 -25 -91l11 -4q12 27 33 59l124 182h227l-57 -467h-228l19 140q6 48 19 92l-10 4q-15 -30 -42 -70l-109 -166h-227zM544 546h-340l12 100h340z" />
    <glyph glyph-name="uni04E4" unicode="&#x4e4;" horiz-adv-x="784" 
d="M121 667h238l-26 -204q-10 -78 -32 -140l10 -5q33 64 73 120l166 229h221l-82 -667h-238l21 172q8 68 32 153l-10 2q-26 -51 -75 -117l-159 -210h-221zM236 833q0 42 29 71t71 29t71 -29t29 -71t-29 -71t-71 -29t-71 29t-29 71zM483 833q0 42 29 71t71 29t71 -29t29 -71
t-29 -71t-71 -29t-71 29t-29 71z" />
    <glyph glyph-name="uni04E5" unicode="&#x4e5;" horiz-adv-x="673" 
d="M77 467h228l-20 -146q-6 -49 -25 -91l11 -4q12 27 33 59l124 182h227l-57 -467h-228l19 140q6 48 19 92l-10 4q-15 -30 -42 -70l-109 -166h-227zM155 642q0 43 30 73t72 30q43 0 73 -30t30 -73q0 -42 -30 -72t-73 -30q-42 0 -72 30t-30 72zM402 642q0 43 30 73t72 30
q43 0 73 -30t30 -73q0 -42 -30 -72t-73 -30q-42 0 -72 30t-30 72z" />
    <glyph glyph-name="uni04E6" unicode="&#x4e6;" horiz-adv-x="808" 
d="M675 591q111 -91 111 -252q0 -152 -104.5 -254t-260.5 -102q-158 0 -265.5 98t-107.5 243q0 151 106.5 255t261.5 104q150 0 259 -92zM410 193q57 0 94.5 40.5t37.5 101.5q0 53 -34 90t-84 37q-55 0 -93.5 -41t-38.5 -99q0 -56 33.5 -92.5t84.5 -36.5zM208 833
q0 42 29 71t71 29t71 -29t29 -71t-29 -71t-71 -29t-71 29t-29 71zM455 833q0 42 29 71t71 29t71 -29t29 -71t-29 -71t-71 -29t-71 29t-29 71z" />
    <glyph glyph-name="uni04E7" unicode="&#x4e7;" horiz-adv-x="637" 
d="M329 493q135 0 213 -78q69 -67 69 -171q0 -102 -71 -174q-81 -83 -216 -83q-141 0 -223 80q-72 69 -72 169q0 101 69 172q40 40 101 62.5t130 22.5zM318 169q25 0 41 16q23 23 23 59q0 33 -20 51q-17 15 -38 15q-26 0 -43 -17q-23 -23 -23 -58q0 -30 21 -51
q17 -15 39 -15zM125 642q0 43 30 73t72 30q43 0 73 -30t30 -73q0 -42 -30 -72t-73 -30q-42 0 -72 30t-30 72zM372 642q0 43 30 73t72 30q43 0 73 -30t30 -73q0 -42 -30 -72t-73 -30q-42 0 -72 30t-30 72z" />
    <glyph glyph-name="uni04E8" unicode="&#x4e8;" horiz-adv-x="808" 
d="M315 395h218q-9 38 -38 59q-28 21 -69 21q-42 0 -70 -21q-30 -21 -41 -59zM531 287h-229q5 -44 34 -70q28 -25 74 -25q49 0 80 25q30 26 41 70zM416 683q81 0 156 -30.5t125 -81.5q89 -93 89 -232q0 -149 -103 -252q-104 -104 -262 -104q-168 0 -275 107q-98 98 -98 234
q0 148 105 253q106 106 263 106z" />
    <glyph glyph-name="uni04E9" unicode="&#x4e9;" horiz-adv-x="637" 
d="M250 281h150q-3 27 -21 43t-50 16q-34 0 -55 -19q-17 -15 -24 -40zM390 203h-148q0 -30 17 -45q18 -18 53 -18q32 0 52 16q22 16 26 47zM329 493q135 0 213 -78q69 -69 69 -171q0 -101 -71 -174q-81 -83 -216 -83q-142 0 -223 80q-72 70 -72 169q0 101 69 172
q40 40 101 62.5t130 22.5z" />
    <glyph glyph-name="uni04EA" unicode="&#x4ea;" horiz-adv-x="808" 
d="M315 395h218q-9 38 -38 59q-28 21 -69 21q-42 0 -70 -21q-30 -21 -41 -59zM531 287h-229q5 -44 34 -70q28 -25 74 -25q49 0 80 25q30 26 41 70zM416 683q81 0 156 -30.5t125 -81.5q89 -93 89 -232q0 -149 -103 -252q-104 -104 -262 -104q-168 0 -275 107q-98 98 -98 234
q0 148 105 253q106 106 263 106zM208 833q0 42 29 71t71 29t71 -29t29 -71t-29 -71t-71 -29t-71 29t-29 71zM455 833q0 42 29 71t71 29t71 -29t29 -71t-29 -71t-71 -29t-71 29t-29 71z" />
    <glyph glyph-name="uni04EB" unicode="&#x4eb;" horiz-adv-x="637" 
d="M250 281h150q-3 27 -21 43t-50 16q-34 0 -55 -19q-17 -15 -24 -40zM390 203h-148q0 -30 17 -45q18 -18 53 -18q32 0 52 16q22 16 26 47zM329 493q135 0 213 -78q69 -69 69 -171q0 -101 -71 -174q-81 -83 -216 -83q-142 0 -223 80q-72 70 -72 169q0 101 69 172
q40 40 101 62.5t130 22.5zM125 642q0 43 30 73t72 30q43 0 73 -30t30 -73q0 -42 -30 -72t-73 -30q-42 0 -72 30t-30 72zM372 642q0 43 30 73t72 30q43 0 73 -30t30 -73q0 -42 -30 -72t-73 -30q-42 0 -72 30t-30 72z" />
    <glyph glyph-name="uni04EE" unicode="&#x4ee;" horiz-adv-x="714" 
d="M40 667h259l72 -188q15 -39 17 -73h8q11 43 26 75l90 186h263l-389 -667h-266l87 153q25 44 53 73zM595 746h-364l12 104h364z" />
    <glyph glyph-name="uni04EF" unicode="&#x4ef;" horiz-adv-x="591" 
d="M381 467h249l-363 -696h-248l88 169q35 61 65 96l-141 431h238l20 -130q7 -43 7 -75q0 -24 -2 -48l10 -1q15 78 34 131zM498 546h-340l12 100h340z" />
    <glyph glyph-name="uni04F0" unicode="&#x4f0;" horiz-adv-x="714" 
d="M40 667h259l72 -188q15 -39 17 -73h8q11 43 26 75l90 186h263l-389 -667h-266l87 153q25 44 53 73zM198 833q0 42 29 71t71 29t71 -29t29 -71t-29 -71t-71 -29t-71 29t-29 71zM445 833q0 42 29 71t71 29t71 -29t29 -71t-29 -71t-71 -29t-71 29t-29 71z" />
    <glyph glyph-name="uni04F1" unicode="&#x4f1;" horiz-adv-x="591" 
d="M381 467h249l-363 -696h-248l88 169q35 61 65 96l-141 431h238l20 -130q7 -43 7 -75q0 -24 -2 -48l10 -1q15 78 34 131zM95 642q0 43 30 73t72 30q43 0 73 -30t30 -73q0 -42 -30 -72t-73 -30q-42 0 -72 30t-30 72zM342 642q0 43 30 73t72 30q43 0 73 -30t30 -73
q0 -42 -30 -72t-73 -30q-42 0 -72 30t-30 72z" />
    <glyph glyph-name="uni04F2" unicode="&#x4f2;" horiz-adv-x="714" 
d="M40 667h259l72 -188q15 -39 17 -73h8q11 43 26 75l90 186h263l-389 -667h-266l87 153q25 44 53 73zM424 779l111 137l111 -73l-143 -119zM206 779l111 137l111 -73l-143 -119z" />
    <glyph glyph-name="uni04F3" unicode="&#x4f3;" horiz-adv-x="591" 
d="M381 467h249l-363 -696h-248l88 169q35 61 65 96l-141 431h238l20 -130q7 -43 7 -75q0 -24 -2 -48l10 -1q15 78 34 131zM143 596l100 146l112 -73l-133 -128zM347 596l100 146l111 -73l-132 -128z" />
    <glyph glyph-name="uni04F4" unicode="&#x4f4;" horiz-adv-x="724" 
d="M387 0l29 233q-49 -12 -116 -12q-115 0 -170 36q-70 46 -70 137q0 3 4 51l27 222h240l-21 -172q-5 -15 -3.5 -36t17.5 -33q17 -13 53 -13q30 0 62 6l30 248h242l-82 -667h-242zM198 833q0 42 29 71t71 29t71 -29t29 -71t-29 -71t-71 -29t-71 29t-29 71zM445 833
q0 42 29 71t71 29t71 -29t29 -71t-29 -71t-71 -29t-71 29t-29 71z" />
    <glyph glyph-name="uni04F5" unicode="&#x4f5;" horiz-adv-x="616" 
d="M307 0l17 141q-46 -10 -94 -10q-92 0 -138 32q-60 42 -50 134l21 170h227l-15 -126q-4 -32 9 -42q9 -8 30 -8q15 0 29 6l21 170h232l-57 -467h-232zM115 642q0 43 30 73t72 30q43 0 73 -30t30 -73q0 -42 -30 -72t-73 -30q-42 0 -72 30t-30 72zM362 642q0 43 30 73t72 30
q43 0 73 -30t30 -73q0 -42 -30 -72t-73 -30q-42 0 -72 30t-30 72z" />
    <glyph glyph-name="uni04F8" unicode="&#x4f8;" horiz-adv-x="1007" 
d="M912 0h-242l82 667h242zM39 0l83 667h242l-31 -254h78q138 0 195 -56q50 -48 50 -134q0 -116 -83 -175q-68 -48 -208 -48h-326zM301 156h23q50 0 71 10q29 14 29 50q0 26 -19 37q-17 10 -62 10h-29zM348 833q0 42 29 71t71 29t71 -29t29 -71t-29 -71t-71 -29t-71 29
t-29 71zM595 833q0 42 29 71t71 29t71 -29t29 -71t-29 -71t-71 -29t-71 29t-29 71z" />
    <glyph glyph-name="uni04F9" unicode="&#x4f9;" horiz-adv-x="884" 
d="M579 0l57 467h228l-57 -467h-228zM289 311h99q92 0 134 -39q42 -38 42 -107q0 -67 -43 -112q-53 -53 -174 -53h-327l56 467h232zM265 116h36q29 0 43 11q16 12 16 37q0 18 -12 27q-12 8 -36 8h-37zM245 642q0 43 30 73t72 30q43 0 73 -30t30 -73q0 -42 -30 -72t-73 -30
q-42 0 -72 30t-30 72zM492 642q0 43 30 73t72 30q43 0 73 -30t30 -73q0 -42 -30 -72t-73 -30q-42 0 -72 30t-30 72z" />
    <glyph glyph-name="uni1E9E" unicode="&#x1e9e;" horiz-adv-x="679" 
d="M39 0l51 416q9 69 29.5 114.5t66.5 86.5q72 65 204 65q97 0 151 -34q58 -36 78 -85q19 -47 15 -89l-96 -102q42 -15 65 -40q36 -37 36 -99q0 -56 -23 -107.5t-68 -83.5q-28 -21 -75 -31t-69.5 -10.5t-69.5 -0.5h-18l19 157q37 0 51 10q28 19 28 70q0 29 -21 42
q-14 9 -42 12l13 99l51 63q0 23 -7 32q-12 15 -33 15q-26 0 -41 -15q-14 -14 -17 -41l-54 -444h-224z" />
    <glyph glyph-name="uni2010" unicode="&#x2010;" horiz-adv-x="415" 
d="M356 175h-315l23 180h315z" />
    <glyph glyph-name="uni2011" unicode="&#x2011;" horiz-adv-x="415" 
d="M356 175h-315l23 180h315z" />
    <glyph glyph-name="figuredash" unicode="&#x2012;" horiz-adv-x="574" 
d="M63 266l19 150h434l-19 -150h-434z" />
    <glyph glyph-name="endash" unicode="&#x2013;" horiz-adv-x="574" 
d="M63 190l19 150h434l-19 -150h-434z" />
    <glyph glyph-name="emdash" unicode="&#x2014;" horiz-adv-x="933" 
d="M856 190h-793l19 150h793z" />
    <glyph glyph-name="afii00208" unicode="&#x2015;" horiz-adv-x="933" 
d="M856 190h-793l19 150h793z" />
    <glyph glyph-name="quoteleft" unicode="&#x2018;" horiz-adv-x="426" 
d="M51 337l198 330h178l-147 -330h-229z" />
    <glyph glyph-name="quoteright" unicode="&#x2019;" horiz-adv-x="426" 
d="M433 667l-188 -330h-178l147 330h219z" />
    <glyph glyph-name="quotesinglbase" unicode="&#x201a;" horiz-adv-x="425" 
d="M139 183h233l-187 -343h-178z" />
    <glyph glyph-name="quotedblleft" unicode="&#x201c;" horiz-adv-x="702" 
d="M337 337l188 330h178l-148 -330h-218zM60 337l188 330h178l-147 -330h-219z" />
    <glyph glyph-name="quotedblright" unicode="&#x201d;" horiz-adv-x="702" 
d="M433 667l-188 -330h-178l147 330h219zM709 667l-188 -330h-178l148 330h218z" />
    <glyph glyph-name="quotedblbase" unicode="&#x201e;" horiz-adv-x="702" 
d="M373 170l-188 -330h-178l148 330h218zM650 170l-188 -330h-178l147 330h219z" />
    <glyph glyph-name="dagger" unicode="&#x2020;" horiz-adv-x="707" 
d="M402 -193h-194l69 564h-171l21 168h171l23 190h195l-24 -190h171l-21 -168h-170z" />
    <glyph glyph-name="daggerdbl" unicode="&#x2021;" horiz-adv-x="707" 
d="M257 208l22 183h-164l21 168h164l21 170h195l-21 -170h164l-21 -168h-164l-22 -183h164l-21 -168h-164l-29 -233h-194l28 233h-164l21 168h164z" />
    <glyph glyph-name="bullet" unicode="&#x2022;" horiz-adv-x="1000" 
d="M376 340q0 58 40 99t97 41t98 -41t41 -99t-41 -99t-98 -41t-97 41t-40 99z" />
    <glyph glyph-name="ellipsis" unicode="&#x2026;" horiz-adv-x="1065" 
d="M164 211q54 0 91.5 -32.5t37.5 -78.5q0 -47 -39 -80t-96 -33q-55 0 -91.5 30.5t-36.5 75.5q0 48 40 83t94 35zM519 211q54 0 91.5 -32.5t37.5 -78.5q0 -47 -39 -80t-96 -33q-55 0 -91.5 30.5t-36.5 75.5q0 48 40 83t94 35zM874 211q54 0 91.5 -32.5t37.5 -78.5
q0 -47 -39 -80t-96 -33q-55 0 -91.5 30.5t-36.5 75.5q0 48 40 83t94 35z" />
    <glyph glyph-name="perthousand" unicode="&#x2030;" horiz-adv-x="1538" 
d="M267 683q87 0 152.5 -49t65.5 -133q0 -81 -63.5 -136t-155.5 -55q-93 0 -151.5 51t-58.5 133q0 83 59 136t152 53zM312 507q0 17 -10.5 28.5t-24.5 11.5q-18 0 -31 -15.5t-13 -35.5q0 -17 10.5 -29t24.5 -12q19 0 31.5 15t12.5 37zM720 667h120l-470 -667h-121zM812 357
q84 0 151 -48.5t67 -134.5q0 -81 -63 -136t-156 -55t-151.5 51.5t-58.5 132.5q0 83 59 136.5t152 53.5zM857 180q0 18 -10 29t-25 11q-18 0 -31 -15t-13 -36q0 -16 10.5 -28t24.5 -12q19 0 31.5 14.5t12.5 36.5zM1291 357q84 0 151 -48.5t67 -134.5q0 -81 -63 -136t-156 -55
t-151.5 51.5t-58.5 132.5q0 83 59 136.5t152 53.5zM1336 180q0 18 -10 29t-25 11q-18 0 -31 -15t-13 -36q0 -16 10.5 -28t24.5 -12q19 0 31.5 14.5t12.5 36.5z" />
    <glyph glyph-name="guilsinglleft" unicode="&#x2039;" horiz-adv-x="332" 
d="M275 67l-96 -62l-144 222l192 230l85 -71l-142 -161z" />
    <glyph glyph-name="guilsinglright" unicode="&#x203a;" horiz-adv-x="332" 
d="M65 395l96 62l141 -222l-192 -230l-84 71l141 159z" />
    <glyph glyph-name="fraction" unicode="&#x2044;" horiz-adv-x="301" 
d="M321 667h130l-470 -667h-131z" />
    <glyph glyph-name="Euro" unicode="&#x20ac;" horiz-adv-x="707" 
d="M650 228l-25 -203q-90 -42 -208 -42q-140 0 -226 73q-76 64 -95 161h-95l47 90h41l3 43h-76l47 90h51q37 112 130 176q96 67 241 67q125 0 230 -56l-84 -157q-58 42 -141 42q-53 0 -88 -20q-32 -18 -52 -52h268l-47 -90h-244l-4 -43h239l-47 -90h-176q14 -34 48 -49
q32 -15 81 -15q57 0 102 19q49 21 80 56z" />
    <glyph glyph-name="uni20B4" unicode="&#x20b4;" horiz-adv-x="707" 
d="M204 513l-47 123q112 46 249 46q116 0 170 -33q56 -34 56 -95q0 -53 -38 -87h72l-12 -102h-151l-85 -71h227l-12 -102h-296q-19 -18 -19 -40q0 -19 14 -29q16 -12 63 -12q69 0 152 33l46 -121q-118 -44 -259 -44q-130 0 -185 33q-56 35 -56 95q0 49 33 85h-56l12 102h135
l85 71h-211l12 102h284q18 16 18 37q0 16 -15 29t-50 13q-64 0 -136 -33z" />
    <glyph glyph-name="uni20B6" unicode="&#x20b6;" horiz-adv-x="707" 
d="M167 667h268q126 0 195 -48q42 -29 61.5 -71.5t19.5 -83.5q0 -97 -70 -162q-40 -37 -88.5 -50t-118.5 -13h-87l-8 -62h180l-12 -102h-180l-10 -75h-232l10 75h-82l12 102h82l8 62h-82l16 130h82zM402 493h-25l-15 -124h22q52 0 74 23q18 20 18 48q0 26 -17 39
q-17 14 -57 14z" />
    <glyph glyph-name="uni20B6" unicode="&#x20cf;" horiz-adv-x="707" 
d="M167 667h268q126 0 195 -48q42 -29 61.5 -71.5t19.5 -83.5q0 -97 -70 -162q-40 -37 -88.5 -50t-118.5 -13h-87l-8 -62h180l-12 -102h-180l-10 -75h-232l10 75h-82l12 102h82l8 62h-82l16 130h82zM402 493h-25l-15 -124h22q52 0 74 23q18 20 18 48q0 26 -17 39
q-17 14 -57 14z" />
    <glyph glyph-name="uni20B6" unicode="&#x20ce;" horiz-adv-x="707" 
d="M167 667h268q126 0 195 -48q42 -29 61.5 -71.5t19.5 -83.5q0 -97 -70 -162q-40 -37 -88.5 -50t-118.5 -13h-87l-8 -62h180l-12 -102h-180l-10 -75h-232l10 75h-82l12 102h82l8 62h-82l16 130h82zM402 493h-25l-15 -124h22q52 0 74 23q18 20 18 48q0 26 -17 39
q-17 14 -57 14z" />
    <glyph glyph-name="uni20B6" unicode="&#x20cd;" horiz-adv-x="707" 
d="M167 667h268q126 0 195 -48q42 -29 61.5 -71.5t19.5 -83.5q0 -97 -70 -162q-40 -37 -88.5 -50t-118.5 -13h-87l-8 -62h180l-12 -102h-180l-10 -75h-232l10 75h-82l12 102h82l8 62h-82l16 130h82zM402 493h-25l-15 -124h22q52 0 74 23q18 20 18 48q0 26 -17 39
q-17 14 -57 14z" />
    <glyph glyph-name="uni20B6" unicode="&#x20cc;" horiz-adv-x="707" 
d="M167 667h268q126 0 195 -48q42 -29 61.5 -71.5t19.5 -83.5q0 -97 -70 -162q-40 -37 -88.5 -50t-118.5 -13h-87l-8 -62h180l-12 -102h-180l-10 -75h-232l10 75h-82l12 102h82l8 62h-82l16 130h82zM402 493h-25l-15 -124h22q52 0 74 23q18 20 18 48q0 26 -17 39
q-17 14 -57 14z" />
    <glyph glyph-name="uni20B6" unicode="&#x20cb;" horiz-adv-x="707" 
d="M167 667h268q126 0 195 -48q42 -29 61.5 -71.5t19.5 -83.5q0 -97 -70 -162q-40 -37 -88.5 -50t-118.5 -13h-87l-8 -62h180l-12 -102h-180l-10 -75h-232l10 75h-82l12 102h82l8 62h-82l16 130h82zM402 493h-25l-15 -124h22q52 0 74 23q18 20 18 48q0 26 -17 39
q-17 14 -57 14z" />
    <glyph glyph-name="uni20B6" unicode="&#x20ca;" horiz-adv-x="707" 
d="M167 667h268q126 0 195 -48q42 -29 61.5 -71.5t19.5 -83.5q0 -97 -70 -162q-40 -37 -88.5 -50t-118.5 -13h-87l-8 -62h180l-12 -102h-180l-10 -75h-232l10 75h-82l12 102h82l8 62h-82l16 130h82zM402 493h-25l-15 -124h22q52 0 74 23q18 20 18 48q0 26 -17 39
q-17 14 -57 14z" />
    <glyph glyph-name="uni20B6" unicode="&#x20c9;" horiz-adv-x="707" 
d="M167 667h268q126 0 195 -48q42 -29 61.5 -71.5t19.5 -83.5q0 -97 -70 -162q-40 -37 -88.5 -50t-118.5 -13h-87l-8 -62h180l-12 -102h-180l-10 -75h-232l10 75h-82l12 102h82l8 62h-82l16 130h82zM402 493h-25l-15 -124h22q52 0 74 23q18 20 18 48q0 26 -17 39
q-17 14 -57 14z" />
    <glyph glyph-name="uni20B6" unicode="&#x20c8;" horiz-adv-x="707" 
d="M167 667h268q126 0 195 -48q42 -29 61.5 -71.5t19.5 -83.5q0 -97 -70 -162q-40 -37 -88.5 -50t-118.5 -13h-87l-8 -62h180l-12 -102h-180l-10 -75h-232l10 75h-82l12 102h82l8 62h-82l16 130h82zM402 493h-25l-15 -124h22q52 0 74 23q18 20 18 48q0 26 -17 39
q-17 14 -57 14z" />
    <glyph glyph-name="uni20B6" unicode="&#x20c7;" horiz-adv-x="707" 
d="M167 667h268q126 0 195 -48q42 -29 61.5 -71.5t19.5 -83.5q0 -97 -70 -162q-40 -37 -88.5 -50t-118.5 -13h-87l-8 -62h180l-12 -102h-180l-10 -75h-232l10 75h-82l12 102h82l8 62h-82l16 130h82zM402 493h-25l-15 -124h22q52 0 74 23q18 20 18 48q0 26 -17 39
q-17 14 -57 14z" />
    <glyph glyph-name="uni20B6" unicode="&#x20c6;" horiz-adv-x="707" 
d="M167 667h268q126 0 195 -48q42 -29 61.5 -71.5t19.5 -83.5q0 -97 -70 -162q-40 -37 -88.5 -50t-118.5 -13h-87l-8 -62h180l-12 -102h-180l-10 -75h-232l10 75h-82l12 102h82l8 62h-82l16 130h82zM402 493h-25l-15 -124h22q52 0 74 23q18 20 18 48q0 26 -17 39
q-17 14 -57 14z" />
    <glyph glyph-name="uni20B6" unicode="&#x20c5;" horiz-adv-x="707" 
d="M167 667h268q126 0 195 -48q42 -29 61.5 -71.5t19.5 -83.5q0 -97 -70 -162q-40 -37 -88.5 -50t-118.5 -13h-87l-8 -62h180l-12 -102h-180l-10 -75h-232l10 75h-82l12 102h82l8 62h-82l16 130h82zM402 493h-25l-15 -124h22q52 0 74 23q18 20 18 48q0 26 -17 39
q-17 14 -57 14z" />
    <glyph glyph-name="uni20B6" unicode="&#x20c4;" horiz-adv-x="707" 
d="M167 667h268q126 0 195 -48q42 -29 61.5 -71.5t19.5 -83.5q0 -97 -70 -162q-40 -37 -88.5 -50t-118.5 -13h-87l-8 -62h180l-12 -102h-180l-10 -75h-232l10 75h-82l12 102h82l8 62h-82l16 130h82zM402 493h-25l-15 -124h22q52 0 74 23q18 20 18 48q0 26 -17 39
q-17 14 -57 14z" />
    <glyph glyph-name="uni20B6" unicode="&#x20c3;" horiz-adv-x="707" 
d="M167 667h268q126 0 195 -48q42 -29 61.5 -71.5t19.5 -83.5q0 -97 -70 -162q-40 -37 -88.5 -50t-118.5 -13h-87l-8 -62h180l-12 -102h-180l-10 -75h-232l10 75h-82l12 102h82l8 62h-82l16 130h82zM402 493h-25l-15 -124h22q52 0 74 23q18 20 18 48q0 26 -17 39
q-17 14 -57 14z" />
    <glyph glyph-name="uni20B6" unicode="&#x20c2;" horiz-adv-x="707" 
d="M167 667h268q126 0 195 -48q42 -29 61.5 -71.5t19.5 -83.5q0 -97 -70 -162q-40 -37 -88.5 -50t-118.5 -13h-87l-8 -62h180l-12 -102h-180l-10 -75h-232l10 75h-82l12 102h82l8 62h-82l16 130h82zM402 493h-25l-15 -124h22q52 0 74 23q18 20 18 48q0 26 -17 39
q-17 14 -57 14z" />
    <glyph glyph-name="uni20B6" unicode="&#x20c1;" horiz-adv-x="707" 
d="M167 667h268q126 0 195 -48q42 -29 61.5 -71.5t19.5 -83.5q0 -97 -70 -162q-40 -37 -88.5 -50t-118.5 -13h-87l-8 -62h180l-12 -102h-180l-10 -75h-232l10 75h-82l12 102h82l8 62h-82l16 130h82zM402 493h-25l-15 -124h22q52 0 74 23q18 20 18 48q0 26 -17 39
q-17 14 -57 14z" />
    <glyph glyph-name="uni20B6" unicode="&#x20c0;" horiz-adv-x="707" 
d="M167 667h268q126 0 195 -48q42 -29 61.5 -71.5t19.5 -83.5q0 -97 -70 -162q-40 -37 -88.5 -50t-118.5 -13h-87l-8 -62h180l-12 -102h-180l-10 -75h-232l10 75h-82l12 102h82l8 62h-82l16 130h82zM402 493h-25l-15 -124h22q52 0 74 23q18 20 18 48q0 26 -17 39
q-17 14 -57 14z" />
    <glyph glyph-name="uni20B6" unicode="&#x20bf;" horiz-adv-x="707" 
d="M167 667h268q126 0 195 -48q42 -29 61.5 -71.5t19.5 -83.5q0 -97 -70 -162q-40 -37 -88.5 -50t-118.5 -13h-87l-8 -62h180l-12 -102h-180l-10 -75h-232l10 75h-82l12 102h82l8 62h-82l16 130h82zM402 493h-25l-15 -124h22q52 0 74 23q18 20 18 48q0 26 -17 39
q-17 14 -57 14z" />
    <glyph glyph-name="uni20B6" unicode="&#x20be;" horiz-adv-x="707" 
d="M167 667h268q126 0 195 -48q42 -29 61.5 -71.5t19.5 -83.5q0 -97 -70 -162q-40 -37 -88.5 -50t-118.5 -13h-87l-8 -62h180l-12 -102h-180l-10 -75h-232l10 75h-82l12 102h82l8 62h-82l16 130h82zM402 493h-25l-15 -124h22q52 0 74 23q18 20 18 48q0 26 -17 39
q-17 14 -57 14z" />
    <glyph glyph-name="uni20B6" unicode="&#x20bd;" horiz-adv-x="707" 
d="M167 667h268q126 0 195 -48q42 -29 61.5 -71.5t19.5 -83.5q0 -97 -70 -162q-40 -37 -88.5 -50t-118.5 -13h-87l-8 -62h180l-12 -102h-180l-10 -75h-232l10 75h-82l12 102h82l8 62h-82l16 130h82zM402 493h-25l-15 -124h22q52 0 74 23q18 20 18 48q0 26 -17 39
q-17 14 -57 14z" />
    <glyph glyph-name="uni20B6" unicode="&#x20bc;" horiz-adv-x="707" 
d="M167 667h268q126 0 195 -48q42 -29 61.5 -71.5t19.5 -83.5q0 -97 -70 -162q-40 -37 -88.5 -50t-118.5 -13h-87l-8 -62h180l-12 -102h-180l-10 -75h-232l10 75h-82l12 102h82l8 62h-82l16 130h82zM402 493h-25l-15 -124h22q52 0 74 23q18 20 18 48q0 26 -17 39
q-17 14 -57 14z" />
    <glyph glyph-name="uni20B6" unicode="&#x20bb;" horiz-adv-x="707" 
d="M167 667h268q126 0 195 -48q42 -29 61.5 -71.5t19.5 -83.5q0 -97 -70 -162q-40 -37 -88.5 -50t-118.5 -13h-87l-8 -62h180l-12 -102h-180l-10 -75h-232l10 75h-82l12 102h82l8 62h-82l16 130h82zM402 493h-25l-15 -124h22q52 0 74 23q18 20 18 48q0 26 -17 39
q-17 14 -57 14z" />
    <glyph glyph-name="uni20B6" unicode="&#x20ba;" horiz-adv-x="707" 
d="M167 667h268q126 0 195 -48q42 -29 61.5 -71.5t19.5 -83.5q0 -97 -70 -162q-40 -37 -88.5 -50t-118.5 -13h-87l-8 -62h180l-12 -102h-180l-10 -75h-232l10 75h-82l12 102h82l8 62h-82l16 130h82zM402 493h-25l-15 -124h22q52 0 74 23q18 20 18 48q0 26 -17 39
q-17 14 -57 14z" />
    <glyph glyph-name="uni20B6" unicode="&#x20b9;" horiz-adv-x="707" 
d="M167 667h268q126 0 195 -48q42 -29 61.5 -71.5t19.5 -83.5q0 -97 -70 -162q-40 -37 -88.5 -50t-118.5 -13h-87l-8 -62h180l-12 -102h-180l-10 -75h-232l10 75h-82l12 102h82l8 62h-82l16 130h82zM402 493h-25l-15 -124h22q52 0 74 23q18 20 18 48q0 26 -17 39
q-17 14 -57 14z" />
    <glyph glyph-name="uni20B6" unicode="&#x20b7;" horiz-adv-x="707" 
d="M167 667h268q126 0 195 -48q42 -29 61.5 -71.5t19.5 -83.5q0 -97 -70 -162q-40 -37 -88.5 -50t-118.5 -13h-87l-8 -62h180l-12 -102h-180l-10 -75h-232l10 75h-82l12 102h82l8 62h-82l16 130h82zM402 493h-25l-15 -124h22q52 0 74 23q18 20 18 48q0 26 -17 39
q-17 14 -57 14z" />
    <glyph glyph-name="uni20B8" unicode="&#x20b8;" horiz-adv-x="707" 
d="M153 500h467l-26 -187l-106 7l-37 -320h-245l37 320l-115 -7zM623 546h-465l14 121h467z" />
    <glyph glyph-name="afii61352" unicode="&#x2116;" horiz-adv-x="1222" 
d="M554 667h245l-82 -667h-234l-116 230q-13 26 -23 49t-14 34.5t-9 29t-7 22.5l-4 12h-8q4 -55 4 -84q0 -30 -6 -94l-18 -199h-243l82 667h243l118 -251q27 -57 48 -140l10 1l-2 22q-5 62 -5 88q0 25 4 83zM844 498q0 71 51 117q56 52 150 52q83 0 128 -39q49 -41 49 -109
q0 -71 -51 -118q-54 -49 -146 -49q-83 0 -129 37q-52 41 -52 109zM829 291h361l-15 -126h-361zM1033 461q23 0 36 15q13 14 13 38q0 21 -12 33q-11 11 -34 11t-36 -12q-16 -14 -16 -38q0 -21 14 -35q14 -12 35 -12z" />
    <glyph glyph-name="uni2117" unicode="&#x2117;" horiz-adv-x="772" 
d="M415 158h-138v353h163q85 0 125 -38q36 -34 36 -94q0 -65 -47 -97q-35 -22 -108 -22h-31v-102zM414 409v-52h13q19 0 27 7q7 7 7 18q0 13 -9 20q-8 7 -23 7h-15zM779 330q0 -148 -103 -249q-47 -46 -113.5 -74.5t-135.5 -28.5t-136 28.5t-114 74.5q-103 101 -103 249
t103 249q47 46 114 74.5t136 28.5t135.5 -28.5t113.5 -74.5q103 -101 103 -249zM426 610q-107 0 -185 -75q-87 -82 -87 -205t87 -205q78 -75 185 -75q108 0 186 75q87 82 87 205t-87 205q-78 75 -186 75z" />
    <glyph glyph-name="trademark" unicode="&#x2122;" horiz-adv-x="857" 
d="M51 667h293l-15 -129l-64 3l-32 -254h-160l31 254l-69 -3zM678 667h164l6 -380h-155l10 159l-69 -159h-101l-23 162l-38 -162h-161l117 380h164l17 -120q3 -13 4 -41q9 28 24 66z" />
    <glyph glyph-name="partialdiff" unicode="&#x2202;" horiz-adv-x="548" 
d="M82 567l17 110q85 -6 167.5 -35t140.5 -84q63 -59 89 -136t26 -147q0 -137 -76 -218q-65 -69 -175 -69q-105 0 -172 64q-70 69 -70 169q0 96 67 161q58 57 145 57q71 0 123 -40q-34 80 -106 120q-73 41 -176 48zM276 110q40 0 68 27q34 34 34 82q0 52 -35 82
q-27 24 -71 24q-42 0 -70 -25q-35 -32 -35 -81q0 -47 32 -79q30 -30 77 -30z" />
    <glyph glyph-name="product" unicode="&#x220f;" horiz-adv-x="749" 
d="M43 624v126h669v-126h-82v-748h82v-126h-301v126h73v748h-212v-748h71v-126h-300v126h83v748h-83z" />
    <glyph glyph-name="summation" unicode="&#x2211;" horiz-adv-x="667" 
d="M21 750h599v-247h-117l-13 121h-307l250 -357l-250 -391h316l8 124h122v-250h-608v130l243 387l-243 353v130z" />
    <glyph glyph-name="minus" unicode="&#x2212;" 
d="M47 280v120h433v-120h-433z" />
    <glyph glyph-name="uni2215" unicode="&#x2215;" horiz-adv-x="740" 
d="M-82 -193l631 922h173l-632 -922h-172z" />
    <glyph glyph-name="uni2219" unicode="&#x2219;" horiz-adv-x="275" 
d="M153 452q57 0 96.5 -34t39.5 -83q0 -50 -41.5 -84.5t-100.5 -34.5q-58 0 -96.5 32t-38.5 80q0 50 42 87t99 37z" />
    <glyph glyph-name="radical" unicode="&#x221a;" horiz-adv-x="667" 
d="M415 827h291v-117h-178l-165 -710h-173l-56 271h-95v116h202l18 -84l3 -15q5 -37 6 -58q4 -39 4 -73h11q3 39 7 73q14 123 36 217z" />
    <glyph glyph-name="infinity" unicode="&#x221e;" horiz-adv-x="667" 
d="M502 176q-82 0 -152 79q-73 -79 -156 -79q-72 0 -118 46t-46 117t46 117t117 46q42 0 76.5 -18t74.5 -60q70 78 156 78q72 0 118 -45.5t46 -116.5q0 -72 -45.5 -118t-116.5 -46zM480 386q-34 0 -69 -47q35 -46 69 -46q21 0 35.5 13.5t14.5 33.5q0 19 -15 32.5t-35 13.5z
M215 293q33 0 68 46q-35 46 -69 46q-21 0 -35.5 -13.5t-14.5 -32.5t15 -32.5t36 -13.5z" />
    <glyph glyph-name="integral" unicode="&#x222b;" 
d="M143 -250q-35 0 -94 10l24 116q32 -10 55 -10q31 0 44.5 16.5t13.5 54.5v18v44v476q0 114 6 150t30 66q47 59 143 59q35 0 91 -10l-23 -116q-33 10 -56 10q-30 0 -44 -17t-14 -54v-62v-67v-409q0 -113 -6 -149.5t-30 -66.5q-47 -59 -140 -59z" />
    <glyph glyph-name="approxequal" unicode="&#x2248;" 
d="M164 401q-25 0 -39.5 -12t-33.5 -49l-71 47q24 61 49 91q39 48 103 48q29 0 103 -26q65 -24 86 -24q24 0 39 11t33 41l73 -43q-25 -54 -44.5 -78t-49.5 -40q-31 -16 -65 -16q-27 0 -102 28q-64 22 -81 22zM164 198q-25 0 -39.5 -12.5t-33.5 -48.5l-71 46q24 62 49 92
q39 48 103 48q29 0 103 -26q65 -24 86 -24q24 0 39 10.5t33 40.5l73 -42q-25 -54 -44.5 -78t-49.5 -40q-31 -16 -65 -16q-26 0 -102 27q-63 23 -81 23z" />
    <glyph glyph-name="notequal" unicode="&#x2260;" 
d="M45 471h228l55 108h102l-54 -108h102v-116h-155l-33 -67h188v-117h-241l-49 -95h-102l47 95h-88v117h141l34 67h-175v116z" />
    <glyph glyph-name="lessequal" unicode="&#x2264;" 
d="M46 353v109l434 207l-1 -121l-296 -141l297 -141v-121zM46 0v117h434v-117h-434z" />
    <glyph glyph-name="greaterequal" unicode="&#x2265;" 
d="M480 353l-434 -208v121l297 141l-296 141l-1 121l434 -207v-109zM480 0h-434v117h434v-117z" />
    <glyph glyph-name="dotmath" unicode="&#x22c5;" horiz-adv-x="275" 
d="M153 452q57 0 96.5 -34t39.5 -83q0 -50 -41.5 -84.5t-100.5 -34.5q-58 0 -96.5 32t-38.5 80q0 50 42 87t99 37z" />
    <glyph glyph-name="lozenge" unicode="&#x25ca;" horiz-adv-x="667" 
d="M87 334l259 359l260 -359l-260 -360zM454 334l-108 148l-107 -148l107 -148z" />
    <glyph glyph-name="openbullet" unicode="&#x25e6;" horiz-adv-x="499" 
d="M286 363q-66 0 -111 45t-45 108q0 62 45 106q46 45 108 45q64 0 110 -44q45 -43 45 -107q0 -63 -45 -108t-107 -45zM214 515q0 -28 20.5 -48t49.5 -20t49.5 20t20.5 48t-20.5 48t-49.5 20t-49.5 -20t-20.5 -48z" />
    <glyph glyph-name="uniF400" unicode="&#xf400;" horiz-adv-x="2" 
d="M-141 641l-149 -108l-75 70l127 120z" />
    <glyph glyph-name="uniF401" unicode="&#xf401;" horiz-adv-x="2" 
d="M-141 824l-149 -108l-75 70l127 120z" />
    <glyph glyph-name="uniF406" unicode="&#xf406;" 
d="M382 875h102q-11 -61 -53 -103q-50 -49 -133 -49q-70 0 -112 31q-54 39 -56 121h102q4 -26 19 -40q16 -16 52 -16q31 0 51 15t28 41z" />
    <glyph glyph-name="uniF407" unicode="&#xf407;" horiz-adv-x="641" 
d="M118 -190l152 147l116 -82l-158 -143z" />
    <glyph glyph-name="uniF408" unicode="&#xf408;" 
d="M180 716l-55 101l187 101l161 -115l-66 -87l-98 70z" />
    <glyph glyph-name="uniF409" unicode="&#xf409;" 
d="M367 -62l-125 -212h-155l84 212h196z" />
    <glyph glyph-name="uniF40A" unicode="&#xf40a;" 
d="M426 667l-126 -218h-152l85 218h193z" />
    <glyph glyph-name="uniF40B" unicode="&#xf40b;" 
d="M198 825q0 43 30 73t73 30q42 0 72 -30t30 -73q0 -42 -30 -72t-72 -30q-43 0 -73 30t-30 72z" />
    <glyph glyph-name="uniF40C" unicode="&#xf40c;" 
d="M434 826q0 -51 -40 -81q-36 -28 -104 -28t-103 27q-41 31 -41 82q0 49 40 80q36 28 104 28q69 0 104 -28q40 -32 40 -80zM290 860q-22 0 -35 -8q-15 -10 -15 -28q0 -16 15 -25q13 -8 35 -8t36 8t14 27q0 16 -14 26q-13 8 -36 8z" />
    <glyph glyph-name="uniF40D" unicode="&#xf40d;" 
d="M363 829q12 0 19 5.5t15 22.5l83 -42q-34 -51 -57.5 -69.5t-54.5 -18.5q-19 0 -58 13l-34 12q-21 6 -28 6q-27 0 -39 -31l-90 28q33 56 64.5 79t74.5 23q25 0 70 -18q26 -10 35 -10z" />
    <glyph glyph-name="uniF40E" unicode="&#xf40e;" 
d="M335 0q-19 -14 -40 -34q-20 -23 -20 -43q0 -13 10 -23q9 -9 28 -9q36 0 63 25l-33 -95q-42 -23 -95 -23q-49 0 -73 22q-24 21 -24 59q0 43 39 80q23 22 55 41h90z" />
    <glyph glyph-name="uniF4C6" unicode="&#xf4c6;" horiz-adv-x="724" 
d="M469 667h242l-87 -709q-13 -101 -58 -143q-48 -45 -165 -45q-65 0 -116 9l18 146q13 -8 28 -8q23 0 34 11q13 13 17 48l34 257q-49 -12 -116 -12q-115 0 -170 36q-70 46 -70 137q0 3 4 51l27 222h240l-21 -172q-3 -27 -3 -31q0 -26 17 -38q17 -13 53 -13q30 0 62 6z" />
    <glyph glyph-name="uniF4C7" unicode="&#xf4c7;" horiz-adv-x="616" 
d="M63 467h227l-15 -126q-1 -5 -1 -15q0 -20 10 -27q9 -8 30 -8q15 0 29 6l21 170h232l-61 -497q-13 -109 -56 -152q-48 -48 -151 -48q-59 0 -124 12l18 148q13 -10 33 -10q23 0 35 14q8 8 13 45l21 162q-46 -10 -94 -10q-92 0 -138 32q-52 36 -52 106q0 12 2 28z" />
    <glyph glyph-name="uniF4CC" unicode="&#xf4cc;" horiz-adv-x="714" 
d="M40 667h259l72 -188q15 -39 17 -73h8q11 43 26 75l90 186h263l-389 -667h-266l87 153q25 44 53 73zM346 779l127 137l117 -73l-157 -119z" />
    <glyph glyph-name="uniF4CD" unicode="&#xf4cd;" horiz-adv-x="591" 
d="M381 467h249l-363 -696h-248l88 169q35 61 65 96l-141 431h238l20 -130q7 -43 7 -75q0 -24 -2 -48l10 -1q15 78 34 131zM241 596l116 146l117 -73l-146 -128z" />
    <glyph glyph-name="dollar.fitted" unicode="&#xf5f5;" horiz-adv-x="666" 
d="M480 773l-12 -96q80 -8 173 -49l-77 -177q-72 63 -162 63q-82 0 -82 -45q0 -18 11 -24t63 -16q126 -22 172 -55q68 -50 68 -143q0 -113 -96 -182q-35 -25 -66.5 -36t-94.5 -21l-14 -107h-145l14 107q-64 9 -114 28t-99 48l79 181q44 -42 93 -63q58 -25 114 -25
q44 0 68.5 13t24.5 36q0 19 -15 29t-52 15q-116 15 -174 50q-34 22 -54.5 62t-20.5 85q0 90 63.5 150.5t174.5 75.5l12 96h148z" />
    <glyph glyph-name="Euro.fitted" unicode="&#xf5f6;" horiz-adv-x="766" 
d="M669 228l-25 -203q-90 -42 -208 -42q-140 0 -226 73q-76 64 -95 161h-95l47 90h41l3 43h-76l47 90h51q37 112 130 176q96 67 241 67q125 0 230 -56l-84 -157q-58 42 -141 42q-53 0 -88 -20q-32 -18 -52 -52h268l-47 -90h-244l-4 -43h239l-47 -90h-176q14 -34 48 -49
q32 -15 81 -15q57 0 102 19q49 21 80 56z" />
    <glyph glyph-name="cent.fitted" unicode="&#xf5f7;" horiz-adv-x="451" 
d="M364 670l-10 -84q38 -3 71 -19l-28 -193q-32 41 -79 41q-32 0 -53 -21q-21 -22 -21 -53q0 -29 19 -46q20 -18 52 -18q43 0 79 34l-34 -191q-34 -15 -66 -18l-12 -92h-104l12 92q-59 12 -103 53q-69 65 -69 174q0 117 77 192q63 61 160 70l9 79h100z" />
    <glyph glyph-name="sterling.fitted" unicode="&#xf5f8;" horiz-adv-x="634" 
d="M449 162h126q-4 -82 -53 -131q-44 -44 -131 -44q-57 0 -105 20l-39 16q-39 16 -54 16q-25 0 -40 -15q-9 -9 -14 -24h-113q5 62 40 111q32 45 84 65q4 13 7 67h-120l15 110h83q-20 53 -20 105q0 89 63 152q72 72 188 72q114 0 174 -59q51 -51 51 -136q0 -27 -6 -59h-154
q3 12 3 32q0 37 -18 56q-17 17 -43 17q-33 0 -53 -20q-22 -22 -22 -58q0 -18 7.5 -45.5t10.5 -56.5h133l-15 -110h-118q0 -51 -20 -81q8 -4 24 -11t21.5 -9.5t16.5 -7t16.5 -5.5t12.5 -2.5t14 -1.5q22 0 33 10q9 8 15 27z" />
    <glyph glyph-name="yen.fitted" unicode="&#xf5f9;" horiz-adv-x="783" 
d="M477 247h206l-13 -108h-206l-17 -139h-240l17 139h-196l13 108h196l6 42l-24 50h-167l14 108h102l-103 220h265l34 -109q9 -33 13 -76h8q8 29 25 63l61 122h291l-160 -220h106l-14 -108h-171l-41 -56z" />
    <glyph glyph-name="florin.fitted" unicode="&#xf5fa;" horiz-adv-x="620" 
d="M431 321l-69 -292q-25 -110 -77 -160q-65 -62 -204 -62q-41 0 -69 6l40 169h12q46 0 66 14q23 16 32 57l66 268h-60l31 124h60l27 110q8 30 14 48t20 42.5t34 42.5q56 52 147 52q53 0 107 -22l-40 -167q-20 12 -39 12q-21 0 -33 -12q-10 -8 -16 -32l-18 -74h69l-31 -124
h-69z" />
    <glyph glyph-name="uni20B4.fitted" unicode="&#xf5fb;" horiz-adv-x="640" 
d="M156 513l-47 123q112 46 249 46q116 0 170 -33q56 -34 56 -95q0 -53 -38 -87h72l-12 -102h-151l-85 -71h227l-12 -102h-296q-19 -18 -19 -40q0 -19 14 -29q16 -12 63 -12q70 0 152 33l46 -121q-118 -44 -259 -44q-130 0 -185 33q-56 35 -56 95q0 49 33 85h-56l12 102h135
l85 71h-211l12 102h284q18 16 18 37q0 16 -15 29t-50 13q-64 0 -136 -33z" />
    <glyph glyph-name="uni20B6.fitted" unicode="&#xf5fc;" horiz-adv-x="735" 
d="M175 667h268q126 0 195 -48q42 -29 61.5 -71.5t19.5 -83.5q0 -97 -70 -162q-40 -37 -88.5 -50t-118.5 -13h-87l-8 -62h180l-12 -102h-180l-10 -75h-232l10 75h-82l12 102h82l8 62h-82l16 130h82zM410 493h-25l-15 -124h22q52 0 74 23q18 20 18 48q0 26 -17 39
q-17 14 -57 14z" />
    <glyph glyph-name="uni20B8.fitted" unicode="&#xf5fd;" horiz-adv-x="551" 
d="M48 500h467l-26 -187l-106 7l-37 -320h-245l37 320l-115 -7zM518 546h-465l14 121h467z" />
    <glyph glyph-name="uniF639" unicode="&#xf639;" horiz-adv-x="710" 
d="M362 683q136 0 226 -93t90 -233q0 -159 -97 -266.5t-241 -107.5q-136 0 -222 91.5t-86 235.5q0 161 93.5 267t236.5 106zM339 183q41 0 70 56t29 136q0 47 -19 76t-50 29q-38 0 -67.5 -55t-29.5 -127q0 -53 18 -84t49 -31z" />
    <glyph glyph-name="uniF63A" unicode="&#xf63a;" horiz-adv-x="723" 
d="M572 190h89l-23 -190h-614l331 299q29 26 44 41.5t30 40.5t15 48q0 30 -17 45q-15 13 -37 13q-34 0 -51 -30q-15 -27 -15 -57h-244q17 126 91 200q85 83 233 83q137 0 213 -71q69 -65 69 -165q0 -96 -72 -165q-33 -31 -83 -60q-39 -22 -95 -41l3 -11q34 12 61 16
q25 4 72 4z" />
    <glyph glyph-name="uniF63B" unicode="&#xf63b;" horiz-adv-x="681" 
d="M67 100q-20 29 -28.5 55t-14.5 76h246q-1 -7 -1 -16q0 -28 17.5 -45.5t45.5 -17.5q30 0 51 20t21 48q0 26 -18 43t-46 17q-13 0 -23 -2l17 137q14 -3 20 -3q25 0 41.5 15t16.5 38q0 22 -14.5 36.5t-34.5 14.5q-46 0 -52 -55h-232q10 62 33 99q27 43 67 69q79 54 193 54
q119 0 196 -56t77 -142q0 -52 -31.5 -88.5t-83.5 -44.5v-10q50 -9 79.5 -47.5t29.5 -93.5q0 -98 -83 -158t-217 -60q-91 0 -161.5 30.5t-110.5 86.5z" />
    <glyph glyph-name="uniF63C" unicode="&#xf63c;" horiz-adv-x="716" 
d="M592 309h92l-23 -182h-92l-15 -127h-223l16 127h-332l22 182l312 358h287zM334 309h41l7 56q7 59 40 132l-10 1q-23 -45 -57 -87l-46 -59q-22 -26 -62 -57l4 -7q36 21 83 21z" />
    <glyph glyph-name="uniF63D" unicode="&#xf63d;" horiz-adv-x="685" 
d="M202 667h447l-23 -188h-274l-18 -62q43 12 84 12q101 0 163 -60q55 -55 55 -134q0 -93 -67 -161q-90 -91 -285 -91q-81 0 -151 16q-54 12 -107 35l50 177q46 -21 89 -33q48 -13 107 -13q56 0 85 15q35 18 35 46q0 38 -48 55q-32 12 -92 12q-56 0 -105 -12
q-36 -10 -57 -17z" />
    <glyph glyph-name="uniF63E" unicode="&#xf63e;" horiz-adv-x="704" 
d="M335 667h339l-186 -148q-6 -4 -12 -9t-8.5 -7.5t-3.5 -2.5q-11 -8 -30 -18q-4 -2 -20 -8l3 -13q23 7 44 7q83 0 137.5 -59.5t54.5 -149.5q0 -119 -90 -197.5t-227 -78.5q-135 0 -222 77.5t-87 197.5q0 113 81 205q32 35 72 69zM337 171q35 0 58.5 25t23.5 63q0 33 -21 54
t-54 21q-34 0 -58.5 -25.5t-24.5 -60.5q0 -34 21 -55.5t55 -21.5z" />
    <glyph glyph-name="uniF63F" unicode="&#xf63f;" horiz-adv-x="764" 
d="M117 667h637l-444 -667h-275l260 372q47 67 88 101l-3 7q-25 -7 -41 -7h-32h-214z" />
    <glyph glyph-name="uniF640" unicode="&#xf640;" horiz-adv-x="686" 
d="M522 338l-1 -8q116 -26 116 -132q0 -92 -84.5 -153.5t-212.5 -61.5q-132 0 -221 64t-89 159q0 65 39 105t109 46l2 8q-93 27 -93 120q0 86 78.5 142t197.5 56q122 0 205.5 -58t83.5 -143q0 -65 -47 -106q-29 -26 -83 -38zM367 412q23 0 39 15.5t16 38.5q0 22 -16 38
t-38 16t-38 -16t-16 -38t15.5 -38t37.5 -16zM334 145q29 0 49 19.5t20 47.5q0 30 -19.5 50t-48.5 20t-49.5 -20t-20.5 -48t20.5 -48.5t48.5 -20.5z" />
    <glyph glyph-name="uniF641" unicode="&#xf641;" horiz-adv-x="691" 
d="M361 0h-328l150 121q64 50 107 69l-5 11q-28 -7 -50 -7q-85 0 -142.5 61t-57.5 152q0 120 92 198t233 78q132 0 218 -77t86 -196q0 -48 -17 -98t-46 -87q-26 -32 -75 -77zM346 324q35 0 60.5 28t25.5 65q0 33 -21.5 54.5t-54.5 21.5q-36 0 -61 -25.5t-25 -62.5
q0 -35 21.5 -58t54.5 -23z" />
    <glyph glyph-name="uniF6BA" unicode="&#xf6ba;" horiz-adv-x="415" 
d="M356 251h-315l23 180h315z" />
    <glyph glyph-name="uniF6BB" unicode="&#xf6bb;" horiz-adv-x="574" 
d="M63 266l19 150h434l-19 -150h-434z" />
    <glyph glyph-name="uniF6BC" unicode="&#xf6bc;" horiz-adv-x="933" 
d="M856 266h-793l19 150h793z" />
    <glyph glyph-name="uniF6C3" unicode="&#xf6c3;" 
d="M367 -62l-125 -212h-155l84 212h196z" />
    <glyph glyph-name="uniF6C9" unicode="&#xf6c9;" 
d="M226 779l127 137l117 -73l-157 -119z" />
    <glyph glyph-name="uniF6CA" unicode="&#xf6ca;" 
d="M418 918l55 -101l-187 -101l-161 115l67 87l97 -70z" />
    <glyph glyph-name="uniF6CB" unicode="&#xf6cb;" 
d="M78 833q0 42 29 71t71 29t71 -29t29 -71t-29 -71t-71 -29t-71 29t-29 71zM325 833q0 42 29 71t71 29t71 -29t29 -71t-29 -71t-71 -29t-71 29t-29 71z" />
    <glyph glyph-name="uniF6CE" unicode="&#xf6ce;" 
d="M160 843l117 73l126 -137l-86 -55z" />
    <glyph glyph-name="uniF6CF" unicode="&#xf6cf;" 
d="M320 779l111 137l111 -73l-143 -119zM102 779l111 137l111 -73l-143 -119z" />
    <glyph glyph-name="uniF6D0" unicode="&#xf6d0;" 
d="M470 746h-364l12 104h364z" />
    <glyph glyph-name="uniF6D1" unicode="&#xf6d1;" 
d="M346 904l138 -50q-27 -67 -83 -99q-53 -30 -142 -30q-84 0 -137 30q-57 35 -80 99l144 50q4 -32 23 -48q18 -15 51 -15t53 13q25 16 33 50z" />
    <glyph glyph-name="uniF6D4" unicode="&#xf6d4;" 
d="M327 695l134 -51q-24 -61 -80 -93q-49 -28 -128 -28q-88 0 -139 29q-54 31 -73 92l145 51q4 -31 19 -46q16 -16 46 -16q33 0 50 16q19 17 26 46z" />
    <glyph glyph-name="uniF6DC" unicode="&#xf6dc;" horiz-adv-x="443" 
d="M58 667h355l-82 -667h-246l56 461l-109 -8z" />
    <glyph glyph-name="uniF6DE" unicode="&#xf6de;" horiz-adv-x="699" 
d="M642 190h-595l14 150h595z" />
    <glyph glyph-name="nbspace" horiz-adv-x="233" 
 />
    <glyph glyph-name="hyphenminus" horiz-adv-x="415" 
d="M356 175h-315l23 180h315z" />
    <glyph glyph-name="dotlessi1" horiz-adv-x="332" 
d="M81 467h231l-57 -467h-231z" />
    </font>
</defs>
</svg>
